<svg xmlns="http://www.w3.org/2000/svg" width="1025.957" height="574.724" viewBox="0 0 1025.957 574.724">
  <g id="illustration" transform="translate(-138 -461.953)">
    <g id="Illustrasi-1">
      <g id="Illustrasi-1-2" data-name="Illustrasi-1" transform="translate(750.958 619.413)">
        <path id="_Background" data-name="ðŸŽ¨ Background" d="M30.535,73.629c2.824-10.936,5.42-15.573,10.436-19.374,4.692-3.555,11.54-6.541,21.533-8.723,10.408-1.817,10.7-7.219,13.313-15.9a3.773,3.773,0,0,1,6.162-1.423,7.469,7.469,0,0,1,.717-.679c-.222-1.245,1.593-4.813,1.533-6C83.6,9.1,87.667,2.857,97.828.537c2.21-.5,17.219-.8,19.373-.207,9.419,2.6,18.691,10.857,17.272,20.8,2.957,3.858,5.85,6.213,10.412,7.457Q160.112,30.52,175.34,32a84.3,84.3,0,0,1,51.248,28.94,3.984,3.984,0,0,1,.477,4.842c.812,3.474,5.384,11.9,1.787,14.282C234.768,94.193,248.379,121.5,248.4,129.3c.107,32.774-3.438,75.434-35.825,93.571-1.3,1.273-1.482,2.682-2.044,4.576-1.424,5.967-6.6,10.231-12.255,9.883-27.882.619-54.887-2.778-82.77-2.943-12.3-.073-27.084,1.76-37.765,2.981a78.315,78.315,0,0,1-31.715-2.981,4.158,4.158,0,0,1-4.385,1.76c-10.627-2.108-19.22-8.648-26.7-15.795-2.287-4.155-11.219-15.993-7.669-20.113-3.218-13.587-3.051-28.185,2.668-41.123-.811-2.372.667-4.978,0-7.427-.483-1.772-1.719-2.505-2.341-4.26-.876-2.47.077-5.783,1.062-8.3.4-1.256-.744-2.608-1.062-3.89-1.513-6.045,1.951-5.512,4.448-9.553-.037-.012-.686-2.9-.684-2.883-.382-2.06.575-4.7,1.411-6.418a3.034,3.034,0,0,1,2.976-1.756,109.263,109.263,0,0,0-4.387-11.47A120.032,120.032,0,0,0,.588,83.212c-1.712-2.583.587-5.575,3.357-5.751A169.488,169.488,0,0,0,30.535,73.629Z" transform="translate(1.245 177.305)" fill="#fff"/>
        <path id="_Ink" data-name="ðŸ– Ink" d="M196.877,0h0a72.059,72.059,0,0,0-7.412.393c-2.781.288-5.6.664-8.32,1.027-3.154.421-6.411.855-9.633,1.157-3.32.312-6.78.559-10.578.755.249.5.508,1,.759,1.481l0,0c.192.369.39.752.582,1.13a1.256,1.256,0,0,1-.037,1.266,1.469,1.469,0,0,1-1.2.7,1.1,1.1,0,0,1-1-.655c-.205-.4-.417-.814-.622-1.209-.436-.842-.886-1.71-1.295-2.578-4.954.21-10.2.312-16.033.312-8.548,0-17.234-.223-25.633-.438-3.51-.09-7.14-.183-10.7-.259-3.485-.073-7.025-.137-10.449-.2-7.594-.136-15.445-.277-23.167-.534-3.214-.106-6.488-.237-9.653-.364h-.011c-2.019-.081-4.107-.164-6.161-.241-.3.957-.636,1.922-.959,2.856q-.212.613-.421,1.225a1.272,1.272,0,0,1-1.252.892,1.392,1.392,0,0,1-1.127-.537,1.1,1.1,0,0,1-.12-1.043q.205-.6.414-1.2l0-.009c.258-.746.525-1.516.773-2.277-5.536-.187-9.788-.27-13.788-.27l-.987,0a1.239,1.239,0,0,0-.4.062c-.013-.084-.026-.166-.039-.248V1.192L38.4,1.14a.039.039,0,0,0-.04-.033.05.05,0,0,0-.033.012.044.044,0,0,0-.015.034c0,.11,0,.223-.006.339a1.434,1.434,0,0,0-.826.929,9.741,9.741,0,0,0-.156,4.041,5.2,5.2,0,0,1-1.335,1.812A11.681,11.681,0,0,1,32.176,10.1a18.885,18.885,0,0,0-2.51.984,29.775,29.775,0,0,0-4.412,2.773,37.184,37.184,0,0,0-7.45,7.616,58.089,58.089,0,0,0-6.038,10.2A91.052,91.052,0,0,0,7.482,42.736C2.963,56.837.461,72.906.045,90.5a161.945,161.945,0,0,0,.782,20.125,54.312,54.312,0,0,0,4.808,2.765,1.1,1.1,0,0,1,.619,1.293,1.421,1.421,0,0,1-1.316,1.1,1.342,1.342,0,0,1-.611-.153c-1.015-.516-2.041-1.086-3.136-1.741A156.337,156.337,0,0,0,13.34,158.226c2.511,5.68,6.468,14.077,11.818,21.386a22.858,22.858,0,0,0,5.228-.941,1.367,1.367,0,0,1,.409-.066,1.227,1.227,0,0,1,1.167,1.111,1.257,1.257,0,0,1-.886,1.451,23.144,23.144,0,0,1-4.071.862,59.373,59.373,0,0,0,4.521,5.042,57.041,57.041,0,0,0,11.846,8.881,79.728,79.728,0,0,0,13.552,6.042c9.717,3.343,19.832,5.193,30.2,6.946.947.16,1.9.311,2.819.456,8.183,1.294,15.912,2.516,20.939,10.425a1.374,1.374,0,0,0,1.13.629,1.062,1.062,0,0,0,.6-.176l.009-.006c.25-.166.5-.333.75-.5l.015.042c.008.023.016.046.024.068a31.514,31.514,0,0,1,1,4.462c.172.995.351,2.024.6,3.035a.321.321,0,0,0,.324.257.408.408,0,0,0,.379-.257,14.429,14.429,0,0,0-.239-9.069q.576-.409,1.15-.82l.015-.011a76.928,76.928,0,0,1,6.973-4.608c4.249-2.387,11.547-3.657,16.377-4.5l.222-.039a71.933,71.933,0,0,1,12.229-1.152c.834,0,1.664.019,2.466.058a20.876,20.876,0,0,1,5.578.945,11.436,11.436,0,0,1,2.682,1.288c.179.12.349.242.518.372a35.936,35.936,0,0,0-.263,6.119c.081,2.077.165,4.225,1.28,6.121a.079.079,0,0,0,.07.044.109.109,0,0,0,.1-.066,22.321,22.321,0,0,0,1.271-6.771c.04-.475.081-.967.128-1.447a6.6,6.6,0,0,0,1.9.283,6.362,6.362,0,0,0,5.2-2.7,12.1,12.1,0,0,0,1.545-3.45,21.2,21.2,0,0,1,.748-2.053,5.658,5.658,0,0,1,.541-.833,3.61,3.61,0,0,0,.746-1.337c.137-.118.2-.187.19-.212,0-.006-.01-.009-.021-.009a.849.849,0,0,0-.247.089c-.142.046-.224.071-.252.077.027-.011.075-.028.148-.054l.114-.04.272-.135.008,0a5.392,5.392,0,0,0,1.269-.782,3,3,0,0,0,.887-2.553c.423-.2.85-.409,1.263-.611.859-.422,1.747-.857,2.628-1.216l.337-.137c2.26-.922,4.6-1.875,6.861-2.921,5.075-2.34,10.122-4.936,15-7.717l.723-.411c1.063-.6,2.16-1.226,3.229-1.875a28.56,28.56,0,0,1-3.214-2.723,1.165,1.165,0,0,1-.294-1.32,1.416,1.416,0,0,1,1.263-.886,1.225,1.225,0,0,1,.864.375,26.126,26.126,0,0,0,3.7,3.055,20.577,20.577,0,0,0,5.688-5.533,30.319,30.319,0,0,0,2.765-5.891l.023-.059.179-.466a30.318,30.318,0,0,1,3.291-6.361l.009-.013a1.162,1.162,0,0,0,.072-.119l.348-.019.242-.014c4.213-.24,8.493-.567,12.721-.97.642-.061,1.3-.12,1.932-.177h.008a84.386,84.386,0,0,0,10.413-1.375,1.167,1.167,0,0,0,.731-.611.972.972,0,0,0,.075-.811c-.148-.363-.3-.728-.459-1.116-4.366-10.616-9.438-21.529-15.5-33.365a2.912,2.912,0,0,0,2.929-1.983c.79-2.266,1.722-5.633.7-8.707a.128.128,0,0,0-.122-.1.136.136,0,0,0-.069.019,5.876,5.876,0,0,1,1.619-4.255,11.729,11.729,0,0,1,1.321-1.107,8.242,8.242,0,0,0,1.786-1.656c1.363-1.883.43-3.395-.557-5-.187-.3-.38-.616-.557-.932-.706-1.256.005-1.884.829-2.612a6.756,6.756,0,0,0,.885-.885,4.81,4.81,0,0,0,.878-3.643,12.582,12.582,0,0,0-1.528-4.183c-.192-.367-.384-.753-.569-1.127a18,18,0,0,0-2.181-3.649.8.8,0,0,0-.13-.122.143.143,0,0,0,.032,0c.175,0,.4-.278.46-.424.032-.071.063-.143.094-.216s.071-.163.106-.243c0,.008-.006.016-.009.025s-.007.019-.01.027a.189.189,0,0,0,.023.181.337.337,0,0,0,.26.133h.006c.2,0,.525-.373.589-.54a77.323,77.323,0,0,0,3.062-8.205l.181-.7.021-.08q.419-1.619.839-3.238c.46-1.971.742-3.992,1.013-5.945l0-.027c.219-1.385.376-2.756.466-4.073.219-2,.35-4.036.389-6.051a75.534,75.534,0,0,0-.849-9.765,39.39,39.39,0,0,0-.654-3.976,49.037,49.037,0,0,0-1.39-5.908c-.226-.931-.454-1.876-.675-2.792l-.011-.046-.192-.8-.182-.492-.206-.557A18.421,18.421,0,0,0,242,30.92c-.1-.318-.223-.652-.373-1.053a30.8,30.8,0,0,1-8.263,1.51h-.026a1.2,1.2,0,0,1-1.226-1.262,1.245,1.245,0,0,1,1.252-1.326,27.332,27.332,0,0,0,7.229-1.3c-.371-.746-.776-1.47-1.2-2.151l-.036-.07c-1.168-2.292-2.376-4.663-3.761-6.9a42.214,42.214,0,0,0-2.627-3.763A28.713,28.713,0,0,0,227.382,9a14.869,14.869,0,0,0-3.331-2.11,24.915,24.915,0,0,0-4.247-1.41,23.416,23.416,0,0,0-2.468-.46c-.443-.055-.9-.088-1.335-.121-.543-.04-1.1-.082-1.652-.164a12.527,12.527,0,0,1-2.64-.653,6.388,6.388,0,0,1-1.205-.6,8.912,8.912,0,0,1-.9-.925.04.04,0,0,0-.022-.02,2.4,2.4,0,0,0-2-1.653A64.545,64.545,0,0,0,196.877,0ZM91.929,19.821a1.346,1.346,0,0,1-.341-.045,1.409,1.409,0,0,1-.845-.727,1.04,1.04,0,0,1-.06-.865,17.845,17.845,0,0,1,3.692-5.79,1.2,1.2,0,0,1,.862-.389,1.408,1.408,0,0,1,1.241.871,1.2,1.2,0,0,1-.271,1.348,14.539,14.539,0,0,0-3.025,4.648A1.384,1.384,0,0,1,91.929,19.821Zm17.617,28.357a1.273,1.273,0,0,1-.3-.039,7.136,7.136,0,0,0-.825-.143,4.462,4.462,0,0,1-1.218-.284c-.394-.163-.785-.352-1.163-.536-.153-.074-.307-.149-.46-.221q-1.871-.884-3.741-1.771c-2.465-1.171-4.721-2.246-6.9-3.287-4.249-2.031-8.53-4.175-12.67-6.248l-.225-.113L80.39,34.71C75.848,32.439,70.983,30,66.171,27.571,63.651,26.3,61.19,25,59.116,23.9l-.6-.315-.023-.012c-.9-.475-1.836-.967-2.741-1.476-.24-.135-.486-.264-.747-.4a8.44,8.44,0,0,1-2.481-1.692.138.138,0,0,1-.019-.144.1.1,0,0,1,.1-.063h.009a14.5,14.5,0,0,1,5.051,1.842c.557.282,1.083.549,1.587.776l1.516.683c1.793.807,3.648,1.643,5.461,2.488C71.9,28.237,76.592,30.406,81,32.415c1.966.9,3.967,1.8,5.9,2.67,2.831,1.276,5.758,2.595,8.628,3.922,2.313,1.069,4.748,2.19,7.239,3.333l3.479,1.591c.2.089.393.177.589.265.38.17.771.344,1.151.529a6.7,6.7,0,0,1,1.389.937c.211.172.428.349.688.536a1.13,1.13,0,0,1,.427,1.282A.969.969,0,0,1,109.546,48.178ZM192,25.792a1.41,1.41,0,0,1-1.247-.876,1.187,1.187,0,0,1,.278-1.34c.357-.362.7-.744,1.04-1.114a15.84,15.84,0,0,1,2.581-2.443,1.06,1.06,0,0,1,.611-.185,1.381,1.381,0,0,1,1.162.648,1.311,1.311,0,0,1-.465,1.771,12.108,12.108,0,0,0-2.1,2.057c-.321.369-.653.75-.993,1.1A1.2,1.2,0,0,1,192,25.792Zm-56.456,8.2a1.2,1.2,0,0,1-.863-.385,45.4,45.4,0,0,1-3.935-4.735,1.041,1.041,0,0,1-.167-.838,1.449,1.449,0,0,1,.632-.934,1.2,1.2,0,0,1,.622-.179,1.475,1.475,0,0,1,1.151.643,40.613,40.613,0,0,0,3.529,4.211,1.187,1.187,0,0,1,.279,1.34A1.41,1.41,0,0,1,135.542,33.992ZM30.675,43.645a1.358,1.358,0,0,1-.6-.145c-.805-.394-1.643-.758-2.452-1.11a37.888,37.888,0,0,1-3.892-1.872,1.177,1.177,0,0,1-.58-1.384A1.358,1.358,0,0,1,24.394,38.1a1.283,1.283,0,0,1,.646.185,37.815,37.815,0,0,0,3.886,1.869c.811.353,1.65.717,2.458,1.112a1.078,1.078,0,0,1,.629,1.266A1.434,1.434,0,0,1,30.675,43.645Zm197.138,20.5a.132.132,0,0,1-.094-.039.107.107,0,0,1-.03-.081,11.32,11.32,0,0,1,.751-3.009c.137-.4.279-.8.394-1.191.585-1.972.994-3.588,1.285-5.088a37.907,37.907,0,0,0,.5-4.333,28.314,28.314,0,0,1,.834-5.725,1.072,1.072,0,0,1,1.049-.84,1.364,1.364,0,0,1,1.234.84c1.505,3.575.383,7.928-.592,10.891a24.672,24.672,0,0,1-2.161,4.864,10.38,10.38,0,0,1-3.111,3.7A.119.119,0,0,1,227.813,64.146Zm-66.9-4.158a1.358,1.358,0,0,1-1.132-.54,1.039,1.039,0,0,1-.061-1.009c.357-.882.747-1.766,1.125-2.622s.761-1.724,1.114-2.6A1.434,1.434,0,0,1,164.4,52.9a1.03,1.03,0,0,1,.062,1.01c-.356.877-.744,1.758-1.12,2.609s-.764,1.732-1.12,2.609A1.36,1.36,0,0,1,160.915,59.988Zm34.066.848a1.388,1.388,0,0,1-.394-.06,53.391,53.391,0,0,1-6.259-2.449c-.47-.207-1-.442-1.514-.663a1.014,1.014,0,0,1-.654-1.184,1.494,1.494,0,0,1,1.4-1.17,1.4,1.4,0,0,1,.558.119c.434.187.886.386,1.285.561a50.732,50.732,0,0,0,5.868,2.29,1.313,1.313,0,0,1-.294,2.556ZM78.923,61.942a1.413,1.413,0,0,1-1.255-.88,1.176,1.176,0,0,1,.285-1.33l3.359-3.355A1.213,1.213,0,0,1,82.176,56a1.413,1.413,0,0,1,1.255.88,1.177,1.177,0,0,1-.286,1.331l-3.358,3.354A1.214,1.214,0,0,1,78.923,61.942Zm-20.054,55a.291.291,0,0,1-.213-.084.271.271,0,0,1-.067-.207c.092-1.618.238-3.256.379-4.841.187-2.107.381-4.285.452-6.443.117-3.558.1-7.289-.041-11.407-.119-3.36-.341-6.9-.7-11.144-.093-1.1-.243-2.244-.389-3.353a34.447,34.447,0,0,1-.442-7.348c-3.434-.9-6.4-1.807-9.059-2.78-.554-.2-1.132-.4-1.744-.613-3.9-1.347-8.764-3.023-10.592-6.81a.114.114,0,0,1,.009-.11.11.11,0,0,1,.089-.055.087.087,0,0,1,.068.037c1.5,1.872,4,2.59,6.216,3.224l.008,0,.654.189c2.562.751,5.131,1.425,7.984,2.164,5.365,1.39,10.886,2.535,16.224,3.642l.56.116,2.64.546c4.66.961,9.479,1.955,14.182,3.11l.764.187c2.4.587,4.871,1.192,7.23,1.993a31.765,31.765,0,0,1,7.837,3.56,1.077,1.077,0,0,1,.358,1.174.707.707,0,0,1-.7.528,1.006,1.006,0,0,1-.114-.007,48.005,48.005,0,0,1-6.884-1.494c-.469-.126-.955-.256-1.427-.38-1.155-.3-2.324-.625-3.456-.937l-.008,0c-1.67-.461-3.4-.937-5.112-1.357-3.98-.974-8.05-1.869-11.986-2.735-1.857-.408-3.777-.83-5.669-1.257-2.132-.48-3.893-.892-5.544-1.3a25.369,25.369,0,0,1,.4,3.249c.024.309.049.626.076.939q.071.808.144,1.616v.01c.115,1.291.235,2.625.34,3.939.353,4.4.549,8.245.6,11.762a90,90,0,0,1-.513,11.406,48.44,48.44,0,0,1-2.229,11.057A.334.334,0,0,1,58.869,116.943ZM186.12,128.48c-1.543,0-3.092-.134-4.589-.263-.413-.036-.8-.069-1.2-.1a64.984,64.984,0,0,1-10.065-1.53,12.884,12.884,0,0,1-7.014-4.145,36.962,36.962,0,0,1-3.972-5.885c-.178-.3-.354-.6-.53-.9a44.175,44.175,0,0,0-5.736-7.683,40.626,40.626,0,0,0-7.225-6.132,2.229,2.229,0,0,0-.885-.977.07.07,0,0,0,.014-.02c-.131-.056-.238-.1-.338-.148l-.014-.006-.016-.007-.637-.279a94.337,94.337,0,0,1-10.1-4.921c-.017-.137-.036-.275-.056-.411v-.006c-.035-.251-.069-.489-.089-.721-.062-.719-.142-1.449-.22-2.155s-.159-1.439-.221-2.158a74.35,74.35,0,0,1-.324-8.687,44.134,44.134,0,0,1,1.2-9.018c.287-1.179.667-2.346,1.035-3.476l.07-.215a33.652,33.652,0,0,0,6.524,3.646,26.335,26.335,0,0,0,7.279,2.326,18.116,18.116,0,0,0,2.639.183,37.512,37.512,0,0,0,5.234-.461l.543-.078a27.631,27.631,0,0,1,3.915-.376,9.353,9.353,0,0,1,2.834.392c2.486.784,3.978,2.955,5.42,5.055a20.306,20.306,0,0,0,2.688,3.38,8.124,8.124,0,0,0,4.752,2.291,7.417,7.417,0,0,0,.787.036c.207,0,.417-.005.619-.01h.022c.21-.005.428-.011.643-.011a4.8,4.8,0,0,1,1.979.336,4.2,4.2,0,0,1,2.277,2.838,1.7,1.7,0,0,0,.9,1.048,4.888,4.888,0,0,0-1.546,1.013c-.156.133-.316.27-.485.4-.918.73-1.84,1.419-2.74,2.048-.564.395-1.147.782-1.711,1.158q-.445.3-.887.593c-.149.1-.336.252-.551.428a4.093,4.093,0,0,1-1.917,1.108.655.655,0,0,1-.133-.013l-.019,0a.13.13,0,0,0-.1.051.087.087,0,0,0-.011.083c.128.344.456.518.974.518,1.185,0,3.44-.951,6.031-2.543,2.281-1.4,4.162-2.9,4.472-3.562a1.006,1.006,0,0,0-.207-1.174,2.485,2.485,0,0,1,.618-.08c1.565,0,2.772,1.557,3.156,3.1A15.646,15.646,0,0,1,189,98.476l0,.013q-.04.239-.078.473a.314.314,0,0,0,.074.257.306.306,0,0,0,.227.111.238.238,0,0,0,.065-.009l.071.162c-1.567.683-3.237,1.227-4.851,1.753-.721.235-1.466.478-2.188.728l-1.516.527-3.006,1.045c-.152.053-.305.1-.458.155a5.32,5.32,0,0,0-2.658,1.495,1.365,1.365,0,0,0-.247,1.281,1.008,1.008,0,0,0,.762.67,3.916,3.916,0,0,0,.859.094,8.138,8.138,0,0,0,2.789-.671c.233-.085.472-.173.709-.254,1.1-.372,2.206-.752,3.281-1.119l.015,0,.936-.32c.66-.225,1.338-.445,1.993-.658a54.561,54.561,0,0,0,5.465-1.995,8.759,8.759,0,0,0,4.693-4.339c.085-.188.172-.449.273-.752.307-.924.727-2.189,1.493-2.361a.77.77,0,0,1,.168-.019c.722,0,1.213,1.081,1.461,3.213.623,5.387-2.5,11.355-7.114,13.586a40.61,40.61,0,0,1-7.537,2.478l-.273.071c-2.107.545-4.355,1.01-6.682,1.382-.855.14-1.783.273-2.838.408a.159.159,0,0,0-.147.165.139.139,0,0,0,.147.136c.814.036,1.629.054,2.423.054.369,0,.74,0,1.1-.012a28.177,28.177,0,0,0,10.68,3.161c.11.007.221.01.331.01a6.326,6.326,0,0,0,4.193-1.7,7.579,7.579,0,0,0,2.338-3.974,1.271,1.271,0,0,0-.7-1.524,15.511,15.511,0,0,0,5.922-8.341c.066-.2.123-.38.175-.556a9.923,9.923,0,0,0,3.774,4.277,39.608,39.608,0,0,0,5.485,3.038,1.808,1.808,0,0,0-.453.256,3.432,3.432,0,0,0-.943,2.486c-.013.12-.025.237-.039.351a11,11,0,0,0,.065,3.821c.487,2.076,2.031,3.708,4.72,4.99a45.423,45.423,0,0,0,17.066,4.219,1.387,1.387,0,0,0,.136.329,335.129,335.129,0,0,1,16.216,33.507c-2.043.152-4.119.4-6.127.647-1.491.181-3.031.367-4.547.512-4.005.384-8.07.7-12.082.939-.748.046-1.505.087-2.237.127l-.277.015c-2.713.143-5.513.255-8.322.333l-1.014.029h-.05c-1.309.039-2.663.079-3.995.079q-.311,0-.621,0a2.507,2.507,0,0,1-2.171-.809,3.747,3.747,0,0,1-.358-.56,2.161,2.161,0,0,0-.72-.884l-.1-.058c-.051-.029-.105-.061-.159-.09-.028-.029-.056-.057-.084-.084a1.853,1.853,0,0,1-.172-.184,14.111,14.111,0,0,1-1.033-1.563c-.9-1.552-1.732-3.186-2.534-4.765l-.022-.043c-.6-1.179-1.179-2.391-1.741-3.563-.8-1.663-1.621-3.38-2.506-5.03-1.547-2.879-2.984-5.4-4.393-7.71-.316-.514-3.075-4.733-4.73-6.97a14.759,14.759,0,0,0,3.719-.579c.263.6.568,1.188.864,1.758.251.484.511.985.744,1.49.172.377.326.782.475,1.174a10.567,10.567,0,0,0,1.005,2.147.7.7,0,0,0,.586.333.715.715,0,0,0,.541-.256.736.736,0,0,0,.152-.614,9.451,9.451,0,0,0-1.591-3.256l-.1-.151a15.456,15.456,0,0,0-2.193-2.786c.037-.011.079-.026.13-.045,2.489-.938,4.261-3.339,5.825-5.457.308-.417.6-.81.893-1.193.307-.4,7.5-9.8,5.989-13.111a2.1,2.1,0,0,0-1.984-1.111l-.085,0a1.121,1.121,0,0,0-1.117,1.2,1.2,1.2,0,0,0,1.2,1.292c-.273,0-.28.181-.289.41a1.582,1.582,0,0,1-.031.3,5.547,5.547,0,0,1-.3.825c-.032.076-.063.151-.092.224a25.089,25.089,0,0,1-1.315,2.721,40.039,40.039,0,0,1-2.731,4.226c-1.031,1.413-2.136,2.783-3.272,4.178l-.151.185c-1.125,1.379-2.187,2.681-3.969,3.17a15.637,15.637,0,0,1-4.027.475Zm16.65-47.53h0c.01-.235.02-.472.03-.71l0-.094.025-.617c.057-1.334.079-2.688.1-4,.006-.366.012-.731.019-1.095,0-.155-.007-.34-.017-.535A4.681,4.681,0,0,1,203,72.438c2.066-.065,4.2-.1,6.508-.1q.622,0,1.245,0c1.6.007,3.047.041,4.415.1a1.315,1.315,0,0,0,1.142.654h.027l.2,0c4.419,0,7.069,2.9,9.875,5.968.453.5.922,1.009,1.393,1.5a41.021,41.021,0,0,0,10.522,8.355,23.062,23.062,0,0,0,1.343,2.509c.279.474.567.961.82,1.439l.042.079c.734,1.383,1.738,3.277,1.1,4.848a4.293,4.293,0,0,1-1.261,1.52,4.415,4.415,0,0,0-1.279,1.538,3.246,3.246,0,0,0,.3,2.944,7.743,7.743,0,0,0,.76,1.034,4.057,4.057,0,0,1,1.167,2.173c.049,1.1-1.029,1.942-1.98,2.683a10.541,10.541,0,0,0-.88.734,5.47,5.47,0,0,0-1.13,6.43.163.163,0,0,0,.133.09,22.546,22.546,0,0,1-1.924,6.83,1.847,1.847,0,0,1-1.9,1.04c-.2,0-.416-.01-.641-.021-.148-.007-.3-.015-.453-.019-1.116-.037-2.217-.111-3.271-.22a45.093,45.093,0,0,1-13.8-3.685c-1.853-.842-3.86-1.936-4.214-4.264a10.7,10.7,0,0,1,.094-3.122c.005-.036.01-.073.016-.112.042-.3.093-.678.214-.736a.244.244,0,0,1,.1-.015,8.081,8.081,0,0,1,1.427.324c.163.046.29.082.348.095l1.625.35c1.717.37,3.664.789,5.541,1.2.625.135,1.276.3,1.906.458a22.656,22.656,0,0,0,4.919.868h.018a.966.966,0,0,0,.89-.815.767.767,0,0,0-.442-.906,31.367,31.367,0,0,0-6.72-1.717c-.936-.168-1.9-.341-2.81-.541l-.7-.154-.074-.016-.821-.18c-.835-.388-1.691-.768-2.518-1.136a65.261,65.261,0,0,1-6.42-3.141l-.095-.055c-1.621-.944-3.458-2.013-4.43-3.689a3.82,3.82,0,0,1-.286-3.263,2.179,2.179,0,0,1,1.556-1.3,4.616,4.616,0,0,1,1.047-.111,7.411,7.411,0,0,1,1.016.075,21.142,21.142,0,0,1,2.787.655c.531.15,1.033.292,1.5.4l6.258,1.418,12.829,2.9a.987.987,0,0,0,.217.025.917.917,0,0,0,.877-.842.775.775,0,0,0-.624-.881c-5.655-1.283-11.354-2.58-16.865-3.835l-.028-.006c-.712-.161-1.441-.345-2.146-.522a44.746,44.746,0,0,0-4.787-1.018l-.04-.026a23.547,23.547,0,0,1-5.677-4.524c-.107-.123-.218-.26-.35-.43a1.919,1.919,0,0,1-.409-1.922,1.487,1.487,0,0,1,1.4-.744c.051,0,.1,0,.156,0a7.746,7.746,0,0,1,1.928.363c.2.055.408.113.608.162,1.692.423,3.439.81,5.193,1.148A200.41,200.41,0,0,0,229.613,93.8l.95.087c.035,0,.069,0,.1,0a.8.8,0,0,0,.812-.818,1.014,1.014,0,0,0-.915-1.1l-.15-.014c-4.776-.45-9.715-.915-14.544-1.6-2.636-.378-4.959-.762-7.1-1.174-.819-.158-1.654-.364-2.462-.564-.4-.1-.815-.2-1.222-.3a.12.12,0,0,0-.016-.107c-1.422-2.122-2.379-5.257-.4-7.108a3.083,3.083,0,0,1,2.232-.744,13.042,13.042,0,0,1,1.388.1l.106.011c1.437.156,2.882.355,4.36.563,2.4.338,4.9.733,7.629,1.207,1.284.22,2.615.464,3.955.725.174.033.335.068.491.1a5.256,5.256,0,0,0,1.1.162,2.4,2.4,0,0,0,1.09-.27.5.5,0,0,0,.275-.359.688.688,0,0,0-.154-.57c-.768-.879-2.156-1.041-3.38-1.183-.366-.043-.712-.083-1.032-.14-1.92-.345-3.617-.626-5.189-.858l-1.22-.182c-2.863-.43-5.824-.874-8.738-1.043-.137-.008-.274-.012-.408-.012A4.749,4.749,0,0,0,202.769,80.95Zm1.93,7.284a19.411,19.411,0,0,0-2.391-.408.345.345,0,0,0-.061,0c.114-.843.206-1.714.282-2.66A9.022,9.022,0,0,0,204.7,88.233Zm-182.872,5a1.443,1.443,0,0,1-1.281-.9,1.141,1.141,0,0,1,.311-1.3A16.752,16.752,0,0,1,26.5,87.932l.035-.014.49-.193a1.279,1.279,0,0,1,.469-.1,1.133,1.133,0,0,1,1.059,1,1.381,1.381,0,0,1-.839,1.589l-.6.234-.01,0a13.039,13.039,0,0,0-4.419,2.412A1.246,1.246,0,0,1,21.827,93.234Zm180.326,5.175a13.318,13.318,0,0,0-.113-2.446,13.461,13.461,0,0,0,2.235,1.3A3.912,3.912,0,0,0,202.153,98.409ZM111.3,107.041a1.2,1.2,0,0,1-1.218-1.253,1.252,1.252,0,0,1,1.251-1.336,14.714,14.714,0,0,0,3.271-.576l.489-.124a1.432,1.432,0,0,1,.345-.044,1.306,1.306,0,0,1,1.257,1.2,1.17,1.17,0,0,1-.913,1.336l-.3.075a18.966,18.966,0,0,1-4.15.717Zm77.256,10c-.3,0-.63-.016-1.063-.053-2.091-.179-4.172-.527-6.3-.9a39.472,39.472,0,0,0,11.328-2.482c.186-.073.346-.139.489-.2-.127.23-.246.469-.362.7a6.947,6.947,0,0,1-1.21,1.88A3.752,3.752,0,0,1,188.56,117.037Zm-113.367,10.1a1.433,1.433,0,0,1-1.337-1.112,1.081,1.081,0,0,1,.629-1.268,23.717,23.717,0,0,1,5.533-1.994,1.462,1.462,0,0,1,.3-.033,1.362,1.362,0,0,1,1.309,1.261,1.107,1.107,0,0,1-.924,1.268,20.884,20.884,0,0,0-4.915,1.733A1.355,1.355,0,0,1,75.194,127.136Zm45.417,16.022a1.187,1.187,0,0,1-1.192-.914,58.215,58.215,0,0,1-1.493-7.455,1.335,1.335,0,0,1,.315-1.1,1.554,1.554,0,0,1,1.141-.529,1.006,1.006,0,0,1,1.044.938,58.061,58.061,0,0,0,1.492,7.455,1.171,1.171,0,0,1-.178,1.066A1.434,1.434,0,0,1,120.61,143.159Zm-85.273-3.64a1.277,1.277,0,0,1-.473-.1,43.384,43.384,0,0,1-5.907-2.739,1.186,1.186,0,0,1-.577-1.394,1.353,1.353,0,0,1,1.235-1.029,1.277,1.277,0,0,1,.649.188,39.106,39.106,0,0,0,5.288,2.479,1.389,1.389,0,0,1,.836,1.6A1.127,1.127,0,0,1,35.337,139.519ZM166.819,161.1a1.089,1.089,0,0,1-1-.658,13.068,13.068,0,0,1-1.669-5.5,1.179,1.179,0,0,1,.318-.877,1.32,1.32,0,0,1,.946-.372,1.258,1.258,0,0,1,1.327,1.249,9.911,9.911,0,0,0,1.317,4.192,1.266,1.266,0,0,1-.046,1.271A1.471,1.471,0,0,1,166.819,161.1Zm-83.442,4.089a1.411,1.411,0,0,1-.372-.052c-1.6-.437-3.249-.761-4.845-1.074-1.23-.241-2.5-.49-3.739-.79a1.159,1.159,0,0,1-.914-1.322,1.314,1.314,0,0,1,1.266-1.215,1.438,1.438,0,0,1,.337.042c1.239.3,2.51.549,3.74.79,1.6.313,3.247.637,4.843,1.073a1.2,1.2,0,0,1,.9,1.382A1.279,1.279,0,0,1,83.377,165.192Zm-50.9,3.77a1.137,1.137,0,0,1-1.064-1.008,1.377,1.377,0,0,1,.842-1.583c.861-.337,1.75-.639,2.61-.931s1.753-.6,2.614-.933a1.284,1.284,0,0,1,.467-.095,1.137,1.137,0,0,1,1.065,1.008A1.376,1.376,0,0,1,38.165,167c-.861.337-1.751.64-2.612.932s-1.752.595-2.613.932A1.283,1.283,0,0,1,32.474,168.962Zm80.73,9.27a1.295,1.295,0,0,1,0-2.588,28.844,28.844,0,0,0,5.253-.327,1.482,1.482,0,0,1,.269-.025,1.392,1.392,0,0,1,1.35,1.305,1.069,1.069,0,0,1-.93,1.216A32.109,32.109,0,0,1,113.2,178.232Zm69.8,14.58a1.208,1.208,0,0,1-.673-.22l-3.146-2.1-.141-.094-.071-.047a1.352,1.352,0,0,1,.636-2.456,1.208,1.208,0,0,1,.673.22l3.359,2.236a1.352,1.352,0,0,1-.636,2.456ZM65.713,196.47a1.5,1.5,0,0,1-.248-.021,30.651,30.651,0,0,1-5.971-1.491,1.37,1.37,0,0,1-.845-1.575,1.14,1.14,0,0,1,1.07-1.014,1.291,1.291,0,0,1,.464.093,30.046,30.046,0,0,0,5.972,1.491,1.048,1.048,0,0,1,.932,1.185A1.426,1.426,0,0,1,65.713,196.47Zm62.832,4.5a1.378,1.378,0,0,1-1.159-.647,1.317,1.317,0,0,1,.465-1.771,19.274,19.274,0,0,0,2.68-2.364l.042-.042a1.214,1.214,0,0,1,.864-.381,1.413,1.413,0,0,1,1.255.88,1.177,1.177,0,0,1-.286,1.331,22.78,22.78,0,0,1-3.248,2.812A1.082,1.082,0,0,1,128.544,200.974Z" transform="translate(250.477 417.229) rotate(180)"/>
        <path id="_Background-2" data-name="ðŸŽ¨ Background" d="M2.176,52.074C4.4,25,11.17,1.022,42.983,0A111.2,111.2,0,0,1,85.2,8.811c32.089,16.069,42.27,74.787,14,98.424a.3.3,0,0,1,.01.5,109.466,109.466,0,0,1-18.835,9.867C63.051,124.92,42.661,128.1,25,120.163-1.959,108.707-2.363,76.829,2.176,52.074Z" transform="translate(54.416 75.71)" fill="#fff"/>
        <path id="_Ink-2" data-name="ðŸ– Ink" d="M3.533,115.165A8.048,8.048,0,0,1,1.181,111.4a7.365,7.365,0,0,1,0-4.128c.434-1.43,1.37-2.569,1.16-4.057a3.394,3.394,0,0,0-.1-.45c-.81-2.8-2.8-4.824-2.089-7.93a5.378,5.378,0,0,1,1.108-2.287c-.058-.673-.11-1.352-.152-2.032a10.832,10.832,0,0,1,.12-8.674,32.747,32.747,0,0,1,.706-4.086,7.846,7.846,0,0,1,.441-3.533,50.19,50.19,0,0,1,2.4-5.4,1.987,1.987,0,0,1,.209-1.451A13.5,13.5,0,0,1,6.772,65.1c.465-.829.933-1.652,1.4-2.463.215-.373.453-.787.714-1.225a4.2,4.2,0,0,1-.34-4.165,1.926,1.926,0,0,1,1.7-.976c.7.042,1.409.073,2.121.1A15.162,15.162,0,0,1,16.821,52.5c1.636-1.385,3.295-2.744,4.908-4.132L23.1,47.181c0-.01.006-.023.01-.032.337-1.226.716-2.436,1.095-3.653.236-.754.308-1.543,1.043-1.954,1.535-.857,3.9-.993,5.659-1.139.175-.155.35-.307.525-.463a8.218,8.218,0,0,1,.35-6.523,1.607,1.607,0,0,1,2.19-.573,7.335,7.335,0,0,0,5.073,1.336c2.6-2,13.11-11.041,14.733-12,.02-.034.036-.069.058-.1A13.164,13.164,0,0,1,57.1,18.521l.534-.557a6.768,6.768,0,0,0-1.231-3.077c-.071-.1-.152-.2-.233-.3a1.555,1.555,0,0,1,1.876-2.43c.117.052.233.1.35.159,1.245.555,2.623,1.157,4.058,1.666.525-.2,1.06-.374,1.548-.57l5.227-2.1c.86-.346,1.77-.638,2.6-1.044a4.008,4.008,0,0,1,4.234-3.126,3.755,3.755,0,0,0-.533-1.07c-.071-.1-.149-.2-.23-.291-1.033-1.2.347-3.426,1.824-2.359l.314.223c.41.288.831.557,1.255.819a2.861,2.861,0,0,1,2.247-.05A23.134,23.134,0,0,1,85.92,6.9c.063.044.129.082.193.123a4.257,4.257,0,0,1,3.116-1.555h.06A4.077,4.077,0,0,1,93.1,3.652C93.006,1.841,94.82.226,96.472.03A3.893,3.893,0,0,1,100.721,2.8l.484,1.571a17.079,17.079,0,0,1,4.732-1.623c3.762-.658,7.44.043,11.066,1.086.362.1.724.211,1.086.318.517-.6,1-1.211,1.466-1.782a1.532,1.532,0,0,1,2.592,1.071,2.077,2.077,0,0,0,.839,1.952,12.444,12.444,0,0,0,2.155.1,7.093,7.093,0,0,0,3.032-.556,4,4,0,0,0,1.671-1.376c1.32-2.079,4.673-2.64,6.27-.657a4.119,4.119,0,0,1,4.735,1.707,4.74,4.74,0,0,0,2.789,1.524c.962.269,1.947.473,2.935.651a1.53,1.53,0,0,1,2.049-.5c.461.34.909.689,1.35,1.047A19.113,19.113,0,0,0,160.009,6.5c2.748-1.123,5.272,1.944,4.818,4.518.8.414,1.66.689,2.446,1.123a9.686,9.686,0,0,1,3.982,4.2c.154.315.293.634.425.956.641.521,1.275,1.056,1.894,1.621l3.087-1.582c.771-.395,2.07-.12,2.222.9a9.286,9.286,0,0,0,1.72,4.245,70.416,70.416,0,0,1,8.105,4.973c2.977.932,6.142,1.475,8.743,2.087a1.472,1.472,0,0,1,.875,2.145q-.8,1.228-1.591,2.456,2.221,2.165,4.182,4.51a83.817,83.817,0,0,1,9.44,14.123q1.623.655,3.246,1.307a1.529,1.529,0,0,1,.667,2.52,9.644,9.644,0,0,0-1.069,1.339,17.82,17.82,0,0,0,5.86,6.358,3.953,3.953,0,0,1,1.652,2c.262.175.522.362.777.553a1.55,1.55,0,0,1,.308,2.4,9.654,9.654,0,0,0-1.6,1.718c-.1.366-.2.734-.308,1.1a27.233,27.233,0,0,1,5.76,7.468,1.289,1.289,0,0,1,.991.194c2.617,1.932,2.7,5.009,1.642,7.759a28.062,28.062,0,0,1-1,12.408,11.648,11.648,0,0,1,2.974,6.154c.7,3.921.745,9.952.926,13.955a14.273,14.273,0,0,1,3.7,6.238l1.759.874a1.719,1.719,0,0,1,.871,1.517,12.3,12.3,0,0,1-2.825,6.979,15.359,15.359,0,0,1-2.391,4.313,32.718,32.718,0,0,0-2.06,2.831,1.8,1.8,0,0,0-.133.259,5.747,5.747,0,0,1,.628,1.019c1.5,2.634,1.519,5.72-.606,8.014a1.993,1.993,0,0,1,.12,2.783c-4.6,5.245-8.429,11.622-14.807,14.408a1.59,1.59,0,0,0-.078.146c1.293,3.106,1.467,4.721.411,7.93a.834.834,0,0,1-.026.084c-.564,1.682-1.6,4.378-3.469,4.9a6.3,6.3,0,0,1-1.743.236q-2.225,2.14-4.445,4.287a14.884,14.884,0,0,0-.236,2.145,1.919,1.919,0,0,1-2.4,1.828c-.431-.126-2.815-2.44-3.252-2.427-.22.22-.434.44-.648.663-.787.825-1.879,2.126-1.97,2.99-.175,1.627-1.244,3.491-2.971,3.821a1.634,1.634,0,0,1-2.478,0c-.052-.055-.1-.11-.159-.159l-.249-.029q-.573,1.708-1.15,3.413c-.755,2.239-3.638,3.679-5.685,2.372-.33.2-.654.408-.978.618-.492.314-.991.634-1.5.935-.029.084-.058.168-.084.249a1.8,1.8,0,0,1-2.549.967,7.492,7.492,0,0,1-.8.207,8.1,8.1,0,0,1-4.247-.272,13.012,13.012,0,0,0-2.993-1.068c-.066-.005-.135,0-.2,0a8.342,8.342,0,0,1-4.409,3.821,8.2,8.2,0,0,1-6-.4,13.916,13.916,0,0,1-1.887,2.832,1.151,1.151,0,0,1-1.6,0q-1.227-1.087-2.443-2.181c-.588-.226-1.181-.5-1.8-.75-1.935-.789-4.057-1.117-5.847-2.257a9.88,9.88,0,0,1-2.307-2.034,16.613,16.613,0,0,1-3.406-2.627,3.414,3.414,0,0,1-1.565-.379,6.5,6.5,0,0,1-3.408-5.63,39.633,39.633,0,0,1-3.077-13.029,32.359,32.359,0,0,1,.006-4.449,7.8,7.8,0,0,1,.735-2.679,8.274,8.274,0,0,0,.347-.9c-.023-1-.036-1.993-.049-2.986a5.593,5.593,0,0,0-1.416-2.275,3.646,3.646,0,0,1-.567-4.381q.918-1.218,1.834-2.436c-.172-3.485-1.007-9.03.845-9.613-.075-.518-.233-1.029-.324-1.543a9.363,9.363,0,0,1,1.14-6.843c.275-.45.509-.848.7-1.236l.36-2.135c.185-1.1.366-2.2.522-3.316.081-1.417.156-2.834.236-4.255q.112-1.961.246-3.925c-.036-.586-.087-1.171-.162-1.757-.444-3.491-1.872-4.782-4.347-7.209-.389-.061-.774-.129-1.153-.207a17.616,17.616,0,0,0-5.429-.728c-1.973.22-3.738,1.071-5.656-.016-.564-.324-1.8-1.217-1.911-1.925a.44.44,0,0,0-.029-.113c-.133-.019-.3-.036-.411-.039-1.523-.052-2.977.547-4.513.382a7.065,7.065,0,0,1-4.513-2.194,11.28,11.28,0,0,1-4.192.3,9.326,9.326,0,0,1-3.317-1.119c-.768-.414-.525-.534-1.361-.2-1.9.77-3.622,1.786-5.763,1.259a6.127,6.127,0,0,1-2.877-1.676,9.805,9.805,0,0,1-.732-.734c-1.017.514-3.576,1.676-4,1.78a6.542,6.542,0,0,1-3.615-.142c-.852-.285-1.9-1.061-2.643-1.22-.969-.207-3.12,1.139-4.276,1.6a8.154,8.154,0,0,1-6.229.175c-.706-.288-2.08-1.437-2.608-1.427-.858,1.058-3.256,6.846-3.975,8.959-2.912,8.542-3.667,35.212-2.323,42.016.052.2.107.4.162.6,1.652,5.918,3.372,11.936,6.135,17.449,2.608,5.2,6.213,9.875,11.387,12.712,5.365,2.944,11.662,3.718,17.694,3.32a61.485,61.485,0,0,0,11.461-2.009c1.963-.508,3.91-1.074,5.847-1.663.845-.256,1.7-.5,2.533-.793a3.884,3.884,0,0,1,3.635.107,2.638,2.638,0,0,1,.939,3.572c-1.082,1.864-3.065,1.993-4.979,2.537-1.95.553-3.907,1.084-5.876,1.56a76.225,76.225,0,0,1-11.477,1.922,39.567,39.567,0,0,1-20.366-3.333c-.713-.343-1.4-.709-2.064-1.1.246.343.5.686.748,1.026a2.245,2.245,0,0,1-.8,3.058c-.311.162-.622.317-.936.469-.042.1-.087.2-.139.3a6.863,6.863,0,0,1-4.691,3.32c-2.274.544-4.82.159-7.133.091l-6.43-.194c-.505-.013-1.011-.029-1.516-.045q-3.819-.116-7.632-.23c-2.268-.068-2.161.107-4.289-.8a6.361,6.361,0,0,1-2.381-1.75,9.584,9.584,0,0,1-1.182-.624,15.431,15.431,0,0,1-3.3-2.893c-1.694.534-4.069.039-4.4-2.087-.531-3.4-4.956-4.853-7.023-7.312a11.077,11.077,0,0,1-2.8-7.076c-4.2-2.032-6.492-7.387-7.026-11.929-.249-2.106-.211-4.361-.57-6.5a3.567,3.567,0,0,1-.421-.547,45.225,45.225,0,0,1-2.786-5.261,7.275,7.275,0,0,0-3.813-1.362,3.016,3.016,0,0,1-.8-5.9l.045-.016a8.476,8.476,0,0,1,.262-6.888c-.045-.226-.087-.45-.13-.676A10.3,10.3,0,0,1,5.5,136.969a8.982,8.982,0,0,0-2.786-1.32,1.784,1.784,0,0,1-.421-3.216,5.449,5.449,0,0,0,1.182-1.2,7.589,7.589,0,0,1,1.16-7.205L1.5,120.012c-.693-.887-1.059-2.391,0-3.232Q2.514,115.969,3.533,115.165Z"/>
        <path id="_Ink-3" data-name="ðŸ– Ink" d="M36.069,0a8.5,8.5,0,0,0-3.521.8,8.828,8.828,0,0,0-2.939,2.168,6.823,6.823,0,0,0-1.343,2.277A5.79,5.79,0,0,0,28,7.925a.914.914,0,0,0,.99.817A1.464,1.464,0,0,0,30.137,8.2l.2-.266c1.167-1.567,2.789-3.365,4.985-3.365a4.151,4.151,0,0,1,3.4,1.759,4.977,4.977,0,0,1,.755,1.819,6.138,6.138,0,0,0,.545,1.51,2.631,2.631,0,0,0,2.343,1.29,2.553,2.553,0,0,0,2.592-1.934,5.354,5.354,0,0,0-.1-2.685,7.23,7.23,0,0,0-1.28-2.423A10.417,10.417,0,0,0,36.252,0Zm2.336,17.335a21.416,21.416,0,0,0-7.7,1.709,2.027,2.027,0,0,0-1.042.95,1.894,1.894,0,0,0-.143,1.216,1.979,1.979,0,0,0,.606,1.064,1.764,1.764,0,0,0,1.2.453,2.252,2.252,0,0,0,.706-.12l.392-.162h0a18.313,18.313,0,0,1,6.381-1.75,3.739,3.739,0,0,1,3.447,1.717,3.418,3.418,0,0,1-.058,2.848c-.934,1.956-3.711,3.408-6,4.113a.821.821,0,0,0-.482.921,1.083,1.083,0,0,0,1.175.828c.093,0,.187,0,.279,0a9.17,9.17,0,0,0,6.185-2.155,7.6,7.6,0,0,0,1.732-2.209,7.086,7.086,0,0,0,.767-2.532,5.907,5.907,0,0,0-1.443-4.643,7.805,7.805,0,0,0-6-2.252h0ZM2.526,31.417a.8.8,0,0,0-.712.519A.545.545,0,0,0,2,32.567a27.294,27.294,0,0,0,4.53,2.981,31.209,31.209,0,0,0,5.06,2.137A3.247,3.247,0,0,0,11.119,39a2.753,2.753,0,0,0,.159,1.362c.056.187.126.366.187.517l.144.351a2.532,2.532,0,0,0,.092.489l.008.049,0,0a2.753,2.753,0,0,0,.661,1.109,2.482,2.482,0,0,0,1.108.665,2.436,2.436,0,0,0,.646.087,2.525,2.525,0,0,0,.992-.2,2.954,2.954,0,0,0,1.487-.778,3.354,3.354,0,0,0,.894-1.422c.026-.092.055-.184.087-.273l.05-.134-.134.341a2.177,2.177,0,0,1,.229-.563,2.749,2.749,0,0,0,.2-.463,3.678,3.678,0,0,0,.11-1.342c.412,0,.751-.019,1.066-.046l.343-.031c1.9-.177,4.025-.5,5.163-2.161a1.568,1.568,0,0,0,.259-.843A2.134,2.134,0,0,0,24.7,34.8a1.65,1.65,0,0,0-1.215-1.033,4.254,4.254,0,0,0-.64-.048,8.575,8.575,0,0,0-2.486.491,11.482,11.482,0,0,1-2.037.479,15.811,15.811,0,0,1-1.74.094,19.1,19.1,0,0,1-3.423-.32,44.858,44.858,0,0,1-6-1.678c-1.314-.435-2.672-.884-4.04-1.241l-.46-.117v0A.581.581,0,0,0,2.526,31.417Zm53.881,2.719a1.315,1.315,0,0,0-1.237.783l-.031.068c-.407.947-1.526,1.428-3.324,1.428a13.961,13.961,0,0,1-1.612-.1,18.9,18.9,0,0,1-3.013-.657c-.36-.1-.71-.215-1.035-.319l-.344-.112c-.13-.042-.75-.366-.736-.453,0-.013.02-.02.053-.02a.749.749,0,0,1,.139.019.153.153,0,0,0,.031,0,.171.171,0,0,0,.16-.133.125.125,0,0,0-.074-.147A.893.893,0,0,0,45,34.4a1,1,0,0,0-.714.328,1.154,1.154,0,0,0-.315.857c.072,1.162,1.706,1.86,2.787,2.322.144.062.281.12.4.174l.06.028c.4.184.805.355,1.211.508a5.867,5.867,0,0,0-.591,1.155,5.063,5.063,0,0,0-.311,1.194,1.166,1.166,0,0,0,0,.614l.008.059a1.9,1.9,0,0,0-.04.416l-.006.054h.006a1.993,1.993,0,0,0,.536,1.307,1.717,1.717,0,0,0,1.234.52,2.229,2.229,0,0,0,1.32-.472l.1-.08A4.277,4.277,0,0,0,52.411,41.7a4.16,4.16,0,0,0,.695-2.121,6.264,6.264,0,0,0,4.826-1.988,1.873,1.873,0,0,0,.482-1.819l-.139-.376A2.089,2.089,0,0,0,56.407,34.135ZM.9,43.784a.808.808,0,0,0-.73.55,3.9,3.9,0,0,0,.082,2.484,10.905,10.905,0,0,0,1.09,2.312,12.262,12.262,0,0,0,4.01,3.922,21.607,21.607,0,0,0,5.576,2.29l.485.142c.357.1.72.219,1.071.331a11.934,11.934,0,0,0,3.47.744,4.068,4.068,0,0,0,2.794-1.051,2.548,2.548,0,0,0,.781-1.6,2.636,2.636,0,0,0-.35-1.741,3.814,3.814,0,0,0-2.114-1.645,10.063,10.063,0,0,0-2.616-.336c-.372-.016-.756-.033-1.143-.064A18.162,18.162,0,0,1,8.16,48.817a18.034,18.034,0,0,1-3.768-2.1,10.324,10.324,0,0,1-1.463-1.347,8.872,8.872,0,0,0-1.67-1.478A.68.68,0,0,0,.9,43.784Zm55.315,3.426a2.984,2.984,0,0,0-2.3,1.233l-.051.066a13.2,13.2,0,0,1-5.219,4.184,13.816,13.816,0,0,1-3.25,1.012l-.356.061a7.034,7.034,0,0,1-1.114.117,2.473,2.473,0,0,1-.416-.032,1.755,1.755,0,0,1-.669-.233.251.251,0,0,0-.022-.244.289.289,0,0,0-.238-.136.269.269,0,0,0-.13.034,1.3,1.3,0,0,0-.745.967,1.792,1.792,0,0,0,.69,1.456c.945.87,2.72,1.312,5.278,1.312h0a12.628,12.628,0,0,0,6.077-1.618,13.756,13.756,0,0,0,4.669-4.22,2.3,2.3,0,0,0,.309-1.827,2.775,2.775,0,0,0-1.255-1.779A2.48,2.48,0,0,0,56.211,47.211Z" transform="translate(119.927 175.104) rotate(180)"/>
        <path id="_Ink-4" data-name="ðŸ– Ink" d="M60.024,0h0a20.358,20.358,0,0,0-10.83,3.188,14.329,14.329,0,0,0-4.485,4.6,13.217,13.217,0,0,0-1.786,5.349,17.407,17.407,0,0,0,.587,6.51,5.915,5.915,0,0,0-1.725-.227,8.43,8.43,0,0,0-2.515.38,3.606,3.606,0,0,0-1.814,1.121c-3.513.3-7.062.734-10.495,1.155a157.965,157.965,0,0,1-19.1,1.553c-1.528,0-3.031-.045-4.467-.134-1.082-.15-1.02-.924-.961-1.672a2.637,2.637,0,0,0-.051-1.061,1,1,0,0,0-.9-.606A1.549,1.549,0,0,0,.027,21.625,3.929,3.929,0,0,0,.4,23.753,2.731,2.731,0,0,0,1.749,25.2c.643.46,2.6.7,5.658.7A128.507,128.507,0,0,0,22.1,24.833a125.144,125.144,0,0,0,15.512-2.8,5.484,5.484,0,0,0,3.06.733,22.291,22.291,0,0,0,2.9-.254c.311-.041.6-.08.879-.111a19.4,19.4,0,0,0,2.44,4.263,23.936,23.936,0,0,0,3.743,3.98,19.2,19.2,0,0,0,4.656,2.942,12.963,12.963,0,0,0,5.18,1.149,10.813,10.813,0,0,0,1.74-.14,24.015,24.015,0,0,0,5.039-.8,15.768,15.768,0,0,0,4.393-1.947,13.374,13.374,0,0,0,3.522-3.359,16.866,16.866,0,0,0,2.427-5.033,12.448,12.448,0,0,0,4.142,2.415,14.705,14.705,0,0,0,4.9.859,10.835,10.835,0,0,0,5.535-1.387,20.707,20.707,0,0,0,4.821,6.828,19.194,19.194,0,0,0,7.238,4.211,8.772,8.772,0,0,0,5.135,1.712,9.513,9.513,0,0,0,3.994-.923,13.547,13.547,0,0,0,3.572-2.454,17.3,17.3,0,0,0,2.86-3.516,17.027,17.027,0,0,0,1.858-4.107,5.967,5.967,0,0,0,3.534.928,1.723,1.723,0,0,0,1.011-.542,1.156,1.156,0,0,0,.282-.861c-.059-.618-.654-1.243-1.852-1.243a6.237,6.237,0,0,0-2.693.758c2-8.358-.366-13.641-2.7-16.6a15.707,15.707,0,0,0-2.831-2.77,17,17,0,0,0-3.365-1.981,18.693,18.693,0,0,0-7.54-1.588h0a18.024,18.024,0,0,0-3.515.342,16.264,16.264,0,0,0-3.31,1.029,14.262,14.262,0,0,0-2.944,1.717A12.841,12.841,0,0,0,93.3,8.691a13.266,13.266,0,0,0-2.557,6.2,20.911,20.911,0,0,0,.691,8.53,25.936,25.936,0,0,1-6.024.763,16.79,16.79,0,0,1-7.54-1.658,16.874,16.874,0,0,0,.3-8.09,17.289,17.289,0,0,0-1.228-3.711,18.044,18.044,0,0,0-2.007-3.337A18.694,18.694,0,0,0,60.024,0ZM62.1,32.249h0a23.4,23.4,0,0,1-8.164-1.627c-5.668-3.8-9.307-10.926-8.653-16.933.346-3.174,2.038-7.461,8.138-9.86a16.979,16.979,0,0,1,6.41-1.238,16.135,16.135,0,0,1,12.9,6.168,15.51,15.51,0,0,1,1.724,16.171c-2.3,4.652-6.809,7.319-12.358,7.319Zm46.422,3.567a.181.181,0,0,1-.08-.015,15.814,15.814,0,0,1-3.08-.8c-.545-.18-1.059-.351-1.52-.465-6.3-2.856-11.159-10.376-11.056-17.119.074-4.88,2.757-8.67,7.554-10.672a14.512,14.512,0,0,1,5.527-1.079,14.206,14.206,0,0,1,10.2,4.126c3.894,3.811,5.153,11.115,2.994,17.368-1.735,5.025-5.3,8.194-9.794,8.7a.774.774,0,0,0-.359-.085,1.384,1.384,0,0,0-.218.021l-.024,0A.992.992,0,0,1,108.525,35.816Zm-64.311-14h0l-.162-.072,0,0L44,21.72l.018-.007.019-.007a.414.414,0,0,0,.071-.046l.032-.023c.012.033.026.067.039.1l0,.005.028.072Z" transform="translate(169.168 157.483) rotate(180)"/>
      </g>
    </g>
    <g id="Illustrasi-2" transform="translate(210.001 658.239)">
      <path id="_Background-3" data-name="ðŸŽ¨ Background" d="M169.327,244.232c-26.433.074-42.265-.235-72.164-.668-34.605-.916-43.932.731-63.318-3.076a24.218,24.218,0,0,1-7.506-2.914c-.82.926-2.21,2.3-3.53,1.392-2.431-1.607-1.317-7.219-1.919-10.389-1-27.909-2.594-56.652,2.863-84.223C20.444,143.279,1.059,135.3,0,132.633c17.531-45.84,55.988-99.482,106.586-97.462,1.018,1.255,1.923,3.112,3.052,4.389,6.879-2.576,16.429-5.158,16.9-15.076,1.191-6.619,2.049-12.8,2.623-18.882.1-.7.938-.935,1.451-1.231a7.372,7.372,0,0,1,1.8-4.259c8.868-.8,29.11,2.86,34.422,4.367,7.247,1.24,6.493,9.017,7.843,14.913,2.14,7.288,3.63,14.852,6.81,21.972.72.1,2.735.45,3.478.58.039-.807-.34-3.2.4-3.69,1.371-1.378,1.687,1.243,1.992,2.1,29.945-5.655,49.526,19.756,56.088,48.139a288.032,288.032,0,0,0,19.27,44.213c5.155,9.619-9.655,11.407-15.863,15.246,6.406,24.926,7.178,50.312,8.229,75.435.278,3.864.655,9.119-.714,11.042a2.573,2.573,0,0,1-1.76.528c-1.271,1.371-3.45,1.28-5.285,1.672A110.224,110.224,0,0,1,230,238.492c-15.675,9.7-39.841,4.276-60.668,5.74" transform="translate(2.28 131.97)" fill="#fff"/>
      <path id="_Ink-5" data-name="ðŸ– Ink" d="M171.343,243.537c-10.081,0-20.32-.031-30.221-.061l-3.595-.011c-3.8-.086-7.863-.126-12.783-.126-3.449,0-6.958.02-10.351.039h-.02c-3.4.019-6.915.039-10.374.039-7.49,0-13.251-.094-18.681-.305-6.785-.264-12.87-.713-18.6-1.373a3.74,3.74,0,0,1-2.152.894,2.02,2.02,0,0,1-1.595-.815,4.851,4.851,0,0,1-.8-1.537,10.176,10.176,0,0,1-.431-1.949,12.6,12.6,0,0,1,.058-3.756l.234-6.358c.149-4.031.318-8.362.538-12.713l.534-10.328c.9-17.336,1.835-34.326,3.348-51.594a204.145,204.145,0,0,1-20.259-3.84c-6.568-1.589-13.227-3.537-19.791-5.79.383,10.675.347,21.573.312,32.112-.031,9.456-.064,19.233.206,28.829.145,5.166.364,9.868.669,14.373.342,5.058.783,9.742,1.348,14.32a3.153,3.153,0,0,1,.642,1.562,2.528,2.528,0,0,1-.271,1.4,4.017,4.017,0,0,1-3.526,2,3.547,3.547,0,0,1-2.1-.663c-2.435-1.857-2.454-4.954-2.473-7.95a22.451,22.451,0,0,0-.23-3.8l-.09-2.489c-.049-1.328-.1-2.644-.152-4.1-.469-12.6-.954-25.632-.721-38.454.126-6.908.444-13.18.973-19.174.6-6.737,1.439-12.945,2.579-18.979l-2.152-.835c-4.958-1.936-9.149-3.74-12.456-5.362-5.4-2.65-8.39-4.779-8.885-6.328a1.232,1.232,0,0,1,.125-1.1c2.194-5.75,4.687-11.533,7.41-17.189,2.85-5.92,5.966-11.73,9.261-17.268a182.831,182.831,0,0,1,23.682-31.85c9.493-10.083,19.555-17.955,29.905-23.4a85.645,85.645,0,0,1,8.356-3.843A77.848,77.848,0,0,1,87.5,32.907a72.915,72.915,0,0,1,9-1.782,71.02,71.02,0,0,1,9.3-.614c1.186,0,2.389.03,3.578.09a7.967,7.967,0,0,1,2.039,2.545,15.818,15.818,0,0,0,.938,1.44l1.552-.563c1.453-.532,3-1.12,4.5-1.823a20.7,20.7,0,0,0,4.048-2.421,10.187,10.187,0,0,0,4.171-8.144c1.2-6.659,2.065-12.868,2.637-18.981A3.137,3.137,0,0,1,130.541.643,3.8,3.8,0,0,1,132.726,0a4.179,4.179,0,0,1,3.035,1.238,3.1,3.1,0,0,1,.817,2.4c-.63,2.837-1.079,5.819-1.513,8.7-.477,3.165-.926,6.154-1.6,9a36.914,36.914,0,0,1-1.191,4.088,22.044,22.044,0,0,1-1.669,3.639,13.891,13.891,0,0,1-5.419,5.406,15.687,15.687,0,0,1-4.075,1.5,23.782,23.782,0,0,1-5.2.531c-.764,0-1.567-.029-2.388-.087C121.749,50.891,140.143,61.8,156.312,61.8a32.584,32.584,0,0,0,8.239-1.02,27.372,27.372,0,0,0,7.541-3.219,29.9,29.9,0,0,0,11.523-13.976,4.585,4.585,0,0,1-2.085-.812,7.305,7.305,0,0,1-1.715-1.745,18.989,18.989,0,0,1-2.488-5.419,78.238,78.238,0,0,1-2.379-12.456v-.009c-.1-.767-.187-1.429-.27-2l-.033-.5a19.507,19.507,0,0,1,.088-4.167,8.947,8.947,0,0,1,1.524-3.854,6.427,6.427,0,0,1,1.934,2.573,21.188,21.188,0,0,1,1.076,3.205l.429,1.713a117.458,117.458,0,0,0,5.209,16.836l.081.013A3.7,3.7,0,0,1,186,34.245a3.094,3.094,0,0,1,2.185-.979,2.412,2.412,0,0,1,1.531.538,3.406,3.406,0,0,1,1.075,1.734,50.784,50.784,0,0,1,6.9-.485,43.267,43.267,0,0,1,9.835,1.107,40.3,40.3,0,0,1,8.726,3.137,43.044,43.044,0,0,1,7.653,4.891,50.765,50.765,0,0,1,6.617,6.369,69.678,69.678,0,0,1,10.272,16.069A101.6,101.6,0,0,1,247.36,85.3a286.222,286.222,0,0,0,19.117,43.844,11.608,11.608,0,0,1,1.278,3.893,6.754,6.754,0,0,1-.349,3.156,7.651,7.651,0,0,1-1.767,2.684,14.286,14.286,0,0,1-2.8,2.152,50.882,50.882,0,0,1-7.088,3.315c-1.66.677-3.227,1.316-4.585,2,1.341,5.372,2.457,10.9,3.412,16.893.852,5.347,1.553,10.94,2.145,17.1,1.124,11.7,1.669,23.769,2.149,34.422a46.221,46.221,0,0,0,.2,5.841c.343,4.78.732,10.2-1.284,12.591a4.153,4.153,0,0,1-2.5,1.033,2.524,2.524,0,0,1-1.2-.3,3.343,3.343,0,0,1-.978-.818,6.731,6.731,0,0,1-1.287-2.852,8.642,8.642,0,0,1-.094-3.265c.178-7.545.1-15.788-.254-25.2-.311-8.4-.8-16.921-1.273-25.165v-.005c-.549-9.583-1.118-19.493-1.41-29.25-5.3,2.238-10.89,4.4-16.621,6.424.167,14.585,1.268,29.4,2.334,43.726.753,10.134,1.533,20.613,1.971,30.892a4.081,4.081,0,0,1,1.448,2.109,2.928,2.928,0,0,1-.479,2.528,20.383,20.383,0,0,1-2.6,2.975,21.124,21.124,0,0,1-3.009,2.344,24.225,24.225,0,0,1-3.337,1.788,29.811,29.811,0,0,1-3.589,1.3,43.145,43.145,0,0,1-7.628,1.458c-2.294.248-4.747.38-7.72.418C198.209,243.471,186.067,243.537,171.343,243.537Zm40.581-129.322c-4.328,0-12.063,1.454-22.99,4.322-8.725,2.29-16.888,4.8-20.374,5.871l-.018.005c-.64.2-1.1.339-1.349.412l-1.387.506c-1.775.645-3.587,1.3-5.339,1.93-21.264,7.663-43.251,15.587-59.942,30.756a.465.465,0,0,0-.1.517.5.5,0,0,0,.454.3.536.536,0,0,0,.231-.054l.063-.037c.213-.119.63-.3,1.07-.485a4.881,4.881,0,0,0,1.337-.672c0-.02-.039-.029-.107-.029a4.392,4.392,0,0,0-.672.094c11.921-7.518,25.593-14.045,41.794-19.955,6.738-2.458,13.974-4.836,22.123-7.272,6.426-1.921,13.311-3.85,22.324-6.255,4.309-1.042,8.684-2.01,13-2.876,1.309-.318,2.693-.544,4.032-.763,3.176-.519,6.46-1.056,9.162-2.857.691-.967.9-1.741.608-2.3a2.009,2.009,0,0,0-1.331-.879,9.978,9.978,0,0,0-2.591-.273ZM99.436,135.8c-2,0-3.2.327-3.774,1.03a2.083,2.083,0,0,0-.3,1.813c1.515,2.78,4.8,3.238,7.813,3.319.422.029.855.044,1.287.044a19.759,19.759,0,0,0,3.549-.322,17.482,17.482,0,0,0,3.375-.963,10.292,10.292,0,0,0,5-3.838,6.77,6.77,0,0,0,1.048-3.552,10.049,10.049,0,0,0-1.108-4.472,6.1,6.1,0,0,0,4.023,1.562,9.726,9.726,0,0,0,6.1-2.753,17.68,17.68,0,0,0,2.449-2.685,16.708,16.708,0,0,0,1.737-2.883,6.347,6.347,0,0,0,5.981,3.572,13.016,13.016,0,0,0,7.786-2.986,8.155,8.155,0,0,0,5.137,1.845,9.376,9.376,0,0,0,3.445-.689,12.908,12.908,0,0,0,3.171-1.84,15.8,15.8,0,0,0,2.663-2.648,15.11,15.11,0,0,0,1.921-3.114c.05,1.112.108,2.406.17,3.692a2.322,2.322,0,0,0,.854,1.691,2.72,2.72,0,0,0,1.707.618,2,2,0,0,0,2.047-1.686c.453-2.124.986-4.183,1.583-6.122a58.922,58.922,0,0,1,2.174-5.936,21.669,21.669,0,0,1,2.16-4.487c.628-.907,1.217-1.366,1.749-1.366.7,0,1.3.814,1.725,2.353a24.786,24.786,0,0,1,.679,5.886,8.469,8.469,0,0,0,1.576,3.985,4.91,4.91,0,0,0,3.7,1.892l.091,0a2.389,2.389,0,0,0,1.377-.516,1.977,1.977,0,0,0,.8-1.215l.191-1.275a35.617,35.617,0,0,1,1.879-7.932,6.874,6.874,0,0,0,7.1,6.4,8.483,8.483,0,0,0,7.788-5.02,8.567,8.567,0,0,0,4.453,1.278c4.8,0,9.175-4.136,11.379-8.235l.088-.165a1.9,1.9,0,0,0-.061-1.926,2.1,2.1,0,0,0-1.735-1.076,1.651,1.651,0,0,0-1.274.633l-.517.539a27.725,27.725,0,0,1-3.6,3.248,10.667,10.667,0,0,1-2.074,1.194,5.58,5.58,0,0,1-2.14.471,4.111,4.111,0,0,1-1.6-.322,5.071,5.071,0,0,1-1.554-1.059,34.7,34.7,0,0,0-.026-4.866,2.945,2.945,0,0,0-2.738-2.591,1.95,1.95,0,0,0-1.494.7,5.177,5.177,0,0,0-3.434-1.278,7.141,7.141,0,0,0-3.476,1c-6.043,1.708-9.394,7.659-10.515,12.66a18.531,18.531,0,0,0-.376-3.3,11.074,11.074,0,0,0-1.063-2.994,5.98,5.98,0,0,0-4.967-3.3H173.3c-4.437,0-6.405,4.492-7.987,8.1l0,.005c-.171.39-.333.759-.495,1.117-.117-2-.205-3.591-.277-5.008a2.255,2.255,0,0,0-.718-1.618,2.183,2.183,0,0,0-1.458-.536,2.256,2.256,0,0,0-2.281,2.069l-.009.085a40.71,40.71,0,0,1-2.753,10.939,15.705,15.705,0,0,1-3.048,4.844,6.093,6.093,0,0,1-4.385,2.017,6.532,6.532,0,0,1-2.073-.358,22.9,22.9,0,0,0,2.2-2.952,33.12,33.12,0,0,0,2.193-4.007c1.069-2.332,2.258-5.707,1.848-8.541a5.1,5.1,0,0,0-2.419-3.833,8.022,8.022,0,0,0-1.953-.25c-2.9,0-5.5,1.748-7.331,4.922-2.618,4.549-2.969,10.772-.817,14.477l-.206.144a9.3,9.3,0,0,1-4.586,1.841,2.715,2.715,0,0,1-2.686-2.041l-.143-.323a10.634,10.634,0,0,1-.775-2.293,4.091,4.091,0,0,1,.191-2.355,95.925,95.925,0,0,0,1.543-9.92,48.52,48.52,0,0,0,.3-6.451c-.074-2.1-.392-3.516-.945-4.221a1.243,1.243,0,0,0-1-.528,3.471,3.471,0,0,0-2.1,1.136,21.867,21.867,0,0,0-2.072,5.5,39.473,39.473,0,0,0-.9,5.822,19.882,19.882,0,0,0-.029,5.745,27.853,27.853,0,0,1,.174,4.014,8.867,8.867,0,0,1-1,3.81,13.524,13.524,0,0,1-1.27,2.513,14.943,14.943,0,0,1-1.768,2.264,9.581,9.581,0,0,1-2,1.636,3.924,3.924,0,0,1-1.957.63c-1.229,0-2.74-.928-2.957-5.352a10.812,10.812,0,0,0,3.613-.7,7.039,7.039,0,0,0,2.439-1.578,6.169,6.169,0,0,0,1.777-4.483c-.043-2.527-1.654-5.212-4.555-5.212a6.142,6.142,0,0,0-3.044.913c-4.793,4.1-5.148,11.581-3.047,16.535a11.947,11.947,0,0,0-3.6-2.6,36.291,36.291,0,0,0-4.157-1.635,23.835,23.835,0,0,1-6.09-2.772,7.471,7.471,0,0,1-2.2-6.855,10.632,10.632,0,0,1,2.062-4.17,22.106,22.106,0,0,1,3.709-3.7,36.162,36.162,0,0,1,4.425-3.02,38.269,38.269,0,0,1,4.21-2.13,12,12,0,0,1,2.023-.962c1.451-.62,3.1-1.321,3.066-1.609-.005-.05-.062-.086-.169-.107a35.274,35.274,0,0,0-8.16.991,27.128,27.128,0,0,0-7.6,3.122A16.239,16.239,0,0,0,93.082,115.1a12.274,12.274,0,0,0,.434,3.147,11.07,11.07,0,0,0,1.279,2.919,12.127,12.127,0,0,0,5.34,4.548,37.259,37.259,0,0,0,3.619,1.441,34.557,34.557,0,0,1,3.875,1.567,8.84,8.84,0,0,1,3,2.3,2.639,2.639,0,0,1,.618,2.2,3.01,3.01,0,0,1-1.778,1.9,9.692,9.692,0,0,1-3.992.81,5.659,5.659,0,0,1-1.164.093c-.632,0-1.376-.048-2.164-.1l-.147-.01c-.886-.058-1.748-.109-2.563-.109ZM117.33,119.68h0l.006-.207a15.031,15.031,0,0,1,.664-3.8,8.06,8.06,0,0,1,.817-1.816,3.683,3.683,0,0,1,1.216-1.249,1.245,1.245,0,0,1,.622-.191,1.068,1.068,0,0,1,.88.547,4.225,4.225,0,0,1,.435,3.161,4.833,4.833,0,0,1-1.856,2.2,11.912,11.912,0,0,1-2.784,1.35Zm27.732-3.8h0a10.352,10.352,0,0,1,.194-6.767,9.655,9.655,0,0,1,1.72-2.959,7.745,7.745,0,0,1,2.686-2.038,2.053,2.053,0,0,1-.013.527v0c-.009.086-.018.168-.021.242a18.3,18.3,0,0,1-1.466,5.826,22.724,22.724,0,0,1-3.1,5.165Zm47.321-8.4a2.216,2.216,0,0,1-1.351-.472,3.133,3.133,0,0,1-.953-1.272,4.9,4.9,0,0,1-.184-3.025,6.864,6.864,0,0,1,.709-1.781,9.141,9.141,0,0,1,1.377-1.827,5.84,5.84,0,0,1,1.488-.186,7.841,7.841,0,0,1,2.038.288,7.966,7.966,0,0,0,.787,3.9,8.784,8.784,0,0,1-1.853,3.369A2.924,2.924,0,0,1,192.383,107.48Z" transform="translate(0 134.902)"/>
      <path id="_Background-4" data-name="ðŸŽ¨ Background" d="M128.955,57.019C127.72,36.759,121.146,13.788,101.8,3.84,59.14-13.279,3.055,29.833.086,73.875c-1.035,15.076,7.335,31.549,22.632,35.741,3.4,4.506,8.544,7.257,13.621,9.646,60.463,31.37,99.52,5.87,92.617-62.242Z" transform="translate(86.968 20.572)" fill="#fff"/>
      <path id="_Ink-6" data-name="ðŸ– Ink" d="M182.142,64.988q-3.205-8.9-6.769-17.667c-2.313-5.687-4.4-11.5-7.273-16.915C150.947-1.952,119.756-1.952,103.632,2.276,95.271-1.327,79.61-.31,70.9,2.94,56.809,8.2,39.627,28.906,33.753,38.207c-12.97,20.537-21.064,47.871-12.449,71.6a53.465,53.465,0,0,0,4.179,8.742,34.1,34.1,0,0,1-3.489,3.973,121.8,121.8,0,0,0-11.052,11.817,58.755,58.755,0,0,0-8.1,13.849C-1.018,157.652-1.2,168.367,3.893,177.4c4.434,7.857,12.29,13.707,21.14,14.265.454.063.909.121,1.366.167a25.585,25.585,0,0,0,4.234,5.26c5,4.756,16.918,7.2,23.716,7.352.349.28.7.56,1.052.837a75.954,75.954,0,0,0,13.3,8.905c3.234,1.58,7.475,2.9,10.85,1.759a5.889,5.889,0,0,0,5.56-.029,14.708,14.708,0,0,0,5.759-6.384c2.993-6.153,2.274-12.886,1.5-19.459-.847-7.26-1.661-14.524-2.489-21.785-.648-5.677-1.326-11.449-3.052-16.918a38.874,38.874,0,0,0-3.573-8.117,1.334,1.334,0,0,0-.029-.632,7.738,7.738,0,0,0-2.73-3.547c-.156-.14-.313-.283-.466-.43a14.666,14.666,0,0,0-1.948-1.876c-.267-.27-.531-.544-.795-.818a66.263,66.263,0,0,1-6.1-7.3c-1.785-2.508-3.4-5.127-4.931-7.795-1.56-2.713-2.593-5.707-4.15-8.4a.427.427,0,0,0-.661-.085,2.119,2.119,0,0,0-.733,1.635l-.241.036a1.638,1.638,0,0,0-2-1.4,7.937,7.937,0,0,1-4.43-.153c.251-1.664.482-3.332.71-5,.417-3.075.8-6.159,1.137-9.244a13.413,13.413,0,0,1,2.384.821,11.491,11.491,0,0,1,3.065,1.993c.886.814,1.5,1.912,2.58,2.479A1.641,1.641,0,0,0,66.3,101.7c-.739-2.844-4.925-4.472-7.514-5.01a11.983,11.983,0,0,0-2.707-.244q.308-2.971.537-5.944.108-1.407.2-2.818a14.8,14.8,0,0,1,6.264-.5c.691.55,1.381,1.094,2.049,1.645,2.12,1.752,4.231,3.515,6.316,5.309.189.16.375.319.564.482a1.555,1.555,0,0,0,2.573-1.5c-1.7-12.358,5.87-22.188,14.733-29.8,9.811-8.433,27.648-9.415,39.315-24.022C134,40.385,146,43.633,150.947,51.522c6.931,11.055,6.026,20.96,6.554,33.5s1.87,25.641-.98,38.015c-2.629,11.41-9.746,21.159-20.788,25.641-.274.111-.55.218-.827.322a33.424,33.424,0,0,1-17.947,1.629c-6.648-1.257-12.2-4.3-17.729-8.042-.319-.212-.785.225-.544.544,7.29,9.661,21.609,12.889,32.967,10.339q.8-.181,1.583-.394a29.873,29.873,0,0,0,1.28,22.439,30.21,30.21,0,0,0,8.723,10.905c4.075,3.218,9.13,5.817,11.957,10.335,2.59,4.14,1.821,8.791-2.612,11.182a2.193,2.193,0,0,0-.44,3.423c.423.326.847.658,1.28.984,2.482,1.873,9.3,5.391,10.4,5.521,9.8,1.163,16.4-6.036,20.622-14.527,4.961-9.967,3.671-22.114-1.795-31.605-4.384-7.615-13.019-15.12-9.586-24.758,1.225-3.443,3.73-6.378,6.163-9.029,2.775-3.019,5.759-5.847,8.42-8.974a31.937,31.937,0,0,0,6.3-10.378c1.912-5.694.961-11.85-.476-17.534C190.4,88.86,186.4,76.821,182.142,64.988Z" transform="translate(47.556 0)"/>
      <path id="_Ink-7" data-name="ðŸ– Ink" d="M34.3,60.842a12.412,12.412,0,0,1-6.877-2.034,13.1,13.1,0,0,1-2.845-2.457,8.861,8.861,0,0,1-2.353-5.916.971.971,0,0,1,.23-.619,1.081,1.081,0,0,1,.575-.345,1.111,1.111,0,0,1,.253-.029,1.02,1.02,0,0,1,.419.088.9.9,0,0,1,.443.436c.206.271.479.626.752.97,2.058,2.541,4.037,4.368,7.005,5.021a8.317,8.317,0,0,0,1.785.194,8.737,8.737,0,0,0,3.014-.545,10.25,10.25,0,0,0,4.218-2.964,2.265,2.265,0,0,1,1.724-.852h.015a2.65,2.65,0,0,1,1.833.812,2.859,2.859,0,0,1,.856,1.866,2.5,2.5,0,0,1-.709,1.833,14.209,14.209,0,0,1-2.99,2.436,14.471,14.471,0,0,1-3.521,1.555A13.759,13.759,0,0,1,34.3,60.842Zm3.88-18.117h0a11.372,11.372,0,0,1-4.055-.817A20.479,20.479,0,0,1,29.352,39.2a1.832,1.832,0,0,1-.665-1.058,2.192,2.192,0,0,1,.094-1.188,2.7,2.7,0,0,1,.8-1.16,1.954,1.954,0,0,1,1.251-.488,1.775,1.775,0,0,1,.968.3l.316.243.011.008c1.657,1.281,4.161,3.217,6.563,3.217a3.918,3.918,0,0,0,2.92-1.295A4.317,4.317,0,0,0,42.43,34.3c-.554-2.7-3.493-4.672-4.38-5.212a.818.818,0,0,1-.221-.94,1.217,1.217,0,0,1,1.185-.842,1.658,1.658,0,0,1,.28.025A8.846,8.846,0,0,1,42.4,28.456,7.056,7.056,0,0,1,44.5,30.385a7.663,7.663,0,0,1,1.336,5.12,8.175,8.175,0,0,1-2.226,5A7.37,7.37,0,0,1,38.175,42.725ZM7,30.207a1.559,1.559,0,0,1-.452-.067.918.918,0,0,1-.619-.533,7.838,7.838,0,0,1,.38-5.708,11.582,11.582,0,0,1,4.171-5.235,7.239,7.239,0,0,1,3.433-.885,6.878,6.878,0,0,1,3.31.854,8.611,8.611,0,0,1,2.286,1.88,23.7,23.7,0,0,1,1.774,2.362c.233.34.475.692.721,1.034a2.08,2.08,0,0,1,.35,1.934,2.5,2.5,0,0,1-1.42,1.466,2.718,2.718,0,0,1-1.046.215,2.388,2.388,0,0,1-.933-.185,2.509,2.509,0,0,1-1.346-1.421,7.46,7.46,0,0,0-2.566-3.4,2.74,2.74,0,0,0-2.751-.21,8.99,8.99,0,0,0-3.2,3.192,6.257,6.257,0,0,0-1.05,3.728.846.846,0,0,1-.274.711,1.066,1.066,0,0,1-.594.264A1.4,1.4,0,0,1,7,30.207Zm47.217-4.6a2.035,2.035,0,0,1-.587-.095,2.221,2.221,0,0,1-.917-.548,1.826,1.826,0,0,1-.51-.923,3.779,3.779,0,0,0-1.326-2.208,2.647,2.647,0,0,0-2.117-.557,4.065,4.065,0,0,0-2.278,1.366,5,5,0,0,0-.478.7l-.014.024a5.089,5.089,0,0,1-.946,1.241.922.922,0,0,1-.585.22.874.874,0,0,1-.261-.041,2.7,2.7,0,0,1-1.008-2.19,4.017,4.017,0,0,1,.739-2.035,8.023,8.023,0,0,1,4.3-3.058,6.1,6.1,0,0,1,1.279-.136,6.529,6.529,0,0,1,3.755,1.222,7.13,7.13,0,0,1,2.916,4.462,2.374,2.374,0,0,1-.119,1.318,1.848,1.848,0,0,1-.862.959A2.05,2.05,0,0,1,54.213,25.609ZM1.119,16.918a.543.543,0,0,1-.07,0A.661.661,0,0,1,.7,16.747,2.5,2.5,0,0,1,0,14.688a8.911,8.911,0,0,1,.906-3.462A18.755,18.755,0,0,1,4.888,5.754a19.356,19.356,0,0,1,6.26-3.813A13.461,13.461,0,0,1,15.61.958c.093,0,.185,0,.276.005a5.361,5.361,0,0,1,1.66.316,4.367,4.367,0,0,1,1.478.919,2.744,2.744,0,0,1,.82,2,2.861,2.861,0,0,1-.824,2.05A4.235,4.235,0,0,1,17.27,7.275a10.179,10.179,0,0,1-1.911.341,17.377,17.377,0,0,0-1.862.275A17.5,17.5,0,0,0,9,9.533,16.642,16.642,0,0,0,4.786,12.52c-.275.294-.537.606-.789.908l-.007.008c-.235.28-.457.545-.694.8-.264.288-.505.577-.794.926a3.938,3.938,0,0,0-.224.4c-.057.12-.113.23-.169.337-.1.2-.206.371-.3.515-.187.315-.284.39-.361.424A.808.808,0,0,1,1.119,16.918ZM56.874,16.2a.638.638,0,0,1-.105-.009.629.629,0,0,1-.321-.156.6.6,0,0,1-.18-.311c-.789-3.467-2.361-5.633-5.1-7.023a21.8,21.8,0,0,0-4.747-1.6c-.457-.108-.949-.18-1.425-.25l-.022,0c-1.442-.21-3.076-.449-4.112-1.735a3.462,3.462,0,0,1-.641-1.25,3.189,3.189,0,0,1-.077-1.346,2.764,2.764,0,0,1,1.5-2.045A4.517,4.517,0,0,1,43.745,0a13.723,13.723,0,0,1,5.036,1.406l.111.047.005,0,.368.156a16.532,16.532,0,0,1,5.764,3.846,12.457,12.457,0,0,1,2.963,5.475,6.571,6.571,0,0,1-.6,4.982.592.592,0,0,1-.27.237A.623.623,0,0,1,56.874,16.2Z" transform="translate(136.804 68.473)"/>
    </g>
    <g id="Illustrasi-3" transform="translate(-2063.865 357.985)">
      <path id="_Background-5" data-name="ðŸŽ¨ Background" d="M92.227,285.818c-2.674,0-5.288-.1-7.768-.293a22.455,22.455,0,0,1-6.593-1.76,29.362,29.362,0,0,1-5.747-3.365,80.958,80.958,0,0,1-10-9.317l0,0c-1.716-1.788-3.491-3.637-5.276-5.311-8.251-8.434-16.277-17.22-23.855-26.115-7.657-8.988-15.049-18.314-21.973-27.719l-.291-.4c-.73-1-1.515-2.018-2.274-3a67.076,67.076,0,0,1-5.455-7.836,24.49,24.49,0,0,1-1.924-4.264,17.408,17.408,0,0,1-.9-4.6,3.855,3.855,0,0,1-.1-1.876,7.238,7.238,0,0,1,.682-1.995,10.465,10.465,0,0,1,2.624-3.32l.666-.961c2.83-4.07,5.488-7.711,8.126-11.131,2.986-3.87,5.862-7.351,8.795-10.642,3.169-3.557,6.4-6.875,9.614-9.864a119.146,119.146,0,0,1,10.585-8.8,5.186,5.186,0,0,1,.513-2.408,5.3,5.3,0,0,1,1.668-2L105.309,94c5.115-3.52,10.2-7.3,15.114-10.955,5.229-3.888,10.636-7.908,16.1-11.631a159.314,159.314,0,0,1,16.965-10.234,76.761,76.761,0,0,1,7.393-3.081c2.355-.847,4.837-1.629,7.586-2.39,5.107-1.414,10.388-2.54,15.5-3.63,4.225-.9,8.592-1.832,12.842-2.922a107.352,107.352,0,0,0,12.562-3.965c.172-2.295,2.417-3.723,4.27-4.518a16.949,16.949,0,0,1,5.829-1.346c.413,0,.672.049.731.137a.077.077,0,0,1,0,.076A49.919,49.919,0,0,0,233.321,28.5a33.03,33.03,0,0,0,3.8-5.793,26.216,26.216,0,0,0,2.139-5.729A42.063,42.063,0,0,0,240.1,11.4c.266-2.533.516-4.925,1.52-6.846,1.111-2.126,3.038-3.487,6.064-4.284C250.21.092,252.756,0,255.253,0A89.756,89.756,0,0,1,270.39,1.222,58.79,58.79,0,0,1,284.8,5.5a40.467,40.467,0,0,1,6.313,3.568,32.761,32.761,0,0,1,5.39,4.674,29.514,29.514,0,0,1,4.22,5.895,31.251,31.251,0,0,1,2.8,7.229c1.9,8.8,5.733,12.66,11.825,18.227A42.047,42.047,0,0,1,319.806,52a25.635,25.635,0,0,1,2.265,6.33,16.674,16.674,0,0,1-1.259,10.89,22.239,22.239,0,0,1-7.056,8.025,44.652,44.652,0,0,1-11.414,5.815A78.773,78.773,0,0,1,287.874,86.6a107.779,107.779,0,0,1-16.215,1.195c-3.557,0-7.147-.166-10.669-.494-3.578-.333-7.114-.836-10.51-1.494A81.535,81.535,0,0,1,231.3,79.743a45.218,45.218,0,0,1-14.47-10.268,27.389,27.389,0,0,1-7.04-14.616c-7.429,2.706-15.315,4.379-22.942,6-7.724,1.639-15.71,3.334-23.235,6.1-8.269,3.055-15.709,7.894-22.517,12.669-16.44,11.677-33.016,23.74-49.047,35.406-12,8.732-24.407,17.762-36.677,26.571,8.164,3.759,21.728,15.31,24.9,26.36,1.232,4.292.785,8.1-1.329,11.325a26.444,26.444,0,0,1-6.075,5.119l-.007,0c-.5.343-1.019.7-1.514,1.05l-1.385.989c-1.33.953-3.019,2.172-4.808,3.463-2.17,1.566-4.414,3.186-5.961,4.289l-.511.372-.631.454a477.785,477.785,0,0,0,69.376,80.315,3.839,3.839,0,0,1,1.118,2.052,4.933,4.933,0,0,1-.109,2.385,4.251,4.251,0,0,1-1.042,1.789,3.375,3.375,0,0,1-1.861.961l-3.812.56C112.245,284.472,102.166,285.818,92.227,285.818Zm312.463-.344h0c-11.816-.048-23.84-.554-35.469-1.043-8.668-.364-17.631-.741-26.443-.926a6.537,6.537,0,0,1-3.721-2.121,4.312,4.312,0,0,1-.822-3.284,9.531,9.531,0,0,1,1.748-4.133,18.438,18.438,0,0,1,3.818-3.948,21.006,21.006,0,0,1,5.2-2.959,16.263,16.263,0,0,1,5.885-1.165,12.376,12.376,0,0,1,6.178,1.6,14.258,14.258,0,0,1,4.9,3.707,13.985,13.985,0,0,0,4.779,3.625,2.851,2.851,0,0,0,.588.073c.755,0,.956-.505,1.32-1.422.045-.114.092-.231.144-.358l.08-.193c.668-1.588,1.334-3.208,1.978-4.775l0-.007c.306-.746.654-1.591,1-2.424,7.753-19.094,16.048-38.339,24.07-56.951l.573-1.329,1.472-3.416a7.12,7.12,0,0,0-.1-6.059,13.484,13.484,0,0,0-4.1-4.708A35.36,35.36,0,0,0,394.3,191c-2.191-1.322-4.455-2.689-4.306-3.224.043-.156.3-.235.752-.235a20.4,20.4,0,0,1,3.735.58,18.5,18.5,0,0,1-1.516-7.143,22.7,22.7,0,0,1,1.092-6.992,43.879,43.879,0,0,1,6.869-12.711,42.125,42.125,0,0,1,4.11-5.3,24.873,24.873,0,0,1,4.062-3.583,15.869,15.869,0,0,1,3.993-2.031,12.4,12.4,0,0,1,3.9-.641,13.248,13.248,0,0,1,4.685.892,19.4,19.4,0,0,1,4.474,2.469,39.428,39.428,0,0,1,8.154,8.423,85.4,85.4,0,0,1,6.832,10.992c1.83,3.453,3.576,7.178,5.191,11.07a42.355,42.355,0,0,1,2.187,9.55,52.115,52.115,0,0,1,.119,9.9,70.079,70.079,0,0,1-1.594,10.1,97.841,97.841,0,0,1-2.953,10.136,163.878,163.878,0,0,1-8.567,19.771c-3.209,6.372-6.682,12.581-9.747,18.058l0,.007,0,0c-.744,1.329-1.446,2.585-2.141,3.834-1.068,1.449-2.222,3.28-3.443,5.218a78.506,78.506,0,0,1-6.929,9.839C410.3,283.348,407.494,285.144,404.689,285.474Zm-82.768-84.7a45.883,45.883,0,0,1-9.656-1.054,51.187,51.187,0,0,1-9.337-2.989A50.449,50.449,0,0,1,287,186c-5.658-7.75-3.537-16.966-1.487-25.879a87.965,87.965,0,0,0,1.85-9.646,41.141,41.141,0,0,1-1.837-7.223c-.183-.956-.356-1.859-.553-2.753l-.087-.386-2.757-12.038a5.429,5.429,0,0,1,1.07-4.417,4.219,4.219,0,0,1,1.3-1.107,3.551,3.551,0,0,1,1.693-.425,3.873,3.873,0,0,1,.44.025,281.369,281.369,0,0,0,31.937,1.825c5.785,0,11.646-.182,17.419-.542s11.621-.906,17.364-1.625a2.583,2.583,0,0,1,.319-.019,4.368,4.368,0,0,1,2.66,1.088,4.076,4.076,0,0,1,1.519,2.362c2.388,15.149-.376,30.189-3.412,44.3l-.579,2.674c-.559,2.566-1.175,5.295-2.024,7.96a33.112,33.112,0,0,1-3.323,7.467,25.726,25.726,0,0,1-5.455,6.238,28.606,28.606,0,0,1-7.085,4.3A37.8,37.8,0,0,1,321.921,200.773Z" transform="translate(2407.088 391.523)" fill="#fff"/>
      <path id="_Ink-8" data-name="ðŸ– Ink" d="M416.788,278.136a3.977,3.977,0,0,1-1.765-.423,3.8,3.8,0,0,1-1.375-1.146,3.174,3.174,0,0,1-.439-2.913c.084-.26.167-.528.241-.764a19.845,19.845,0,0,1,1.39-3.6c.38-.711.8-1.42,1.2-2.1.208-.352.423-.715.63-1.076.622-1.081,1.262-2.2,1.827-3.187l0-.006c.6-1.041,1.211-2.118,1.82-3.175,1.177-2.047,2.4-4.111,3.589-6.107,1.4-2.349,2.839-4.777,4.211-7.194,4.9-8.618,8.9-16.4,12.24-23.781l.433-.959c1.5-3.339,3.239-7.318,4.749-11.5a74.633,74.633,0,0,0,3.326-11.964,39.858,39.858,0,0,0,.638-6.349,41.787,41.787,0,0,0-.35-6.208,54.015,54.015,0,0,0-3.171-12.17c-1.739-4.6-3.688-8.994-5.191-12.307l-.354-.776q-.246-.537-.505-1.1a53.5,53.5,0,0,1-4.077-10.823.313.313,0,0,1,.061-.269.32.32,0,0,1,.246-.122.3.3,0,0,1,.212.09,57.382,57.382,0,0,1,7.754,10.113c.626.955,1.273,1.943,1.924,2.9.6.883,1.219,1.771,1.818,2.631a68.375,68.375,0,0,1,6.342,10.365,39.7,39.7,0,0,1,3.666,13.543,54.629,54.629,0,0,1-.951,14.177,83.585,83.585,0,0,1-3.684,13.476c-1.372,3.837-3.021,7.822-5.348,12.922-3.389,7.426-7.474,15.3-12.488,24.086l-1.607,2.8c-1.874,3.263-3.886,6.734-6.064,10.128-.436.679-.873,1.374-1.3,2.045l0,.007a52.852,52.852,0,0,1-7.233,9.746A3.379,3.379,0,0,1,416.788,278.136ZM378.1,273.706a2.753,2.753,0,0,1-2.091-1.04,2.449,2.449,0,0,1-.486-2.109,58.66,58.66,0,0,1,2.268-7.071c.389-1.057.791-2.149,1.151-3.217.4-1.17.794-2.36,1.181-3.511l.018-.054c.739-2.2,1.5-4.479,2.271-6.712,1.993-5.782,4.166-11.416,6.6-17.655l2.259-5.8c2-5.142,4.352-11.118,6.855-16.981l.262-.615c.178-.419.36-.851.536-1.269l.023-.055c1.167-2.77,2.372-5.633,3.814-8.34a30.835,30.835,0,0,1,5.21-7.358.348.348,0,0,1,.223-.1,14.582,14.582,0,0,1-3.067-2.2l-.045-.045a17.32,17.32,0,0,1-2.338-3.4c-.573.2-1.188.417-1.878.649a3.052,3.052,0,0,1-.973.169,2.423,2.423,0,0,1-1.66-.65l-1.215.752a8.8,8.8,0,0,1-4.129,1.584l-.123,0a4.344,4.344,0,0,1-2.337-.672,5.751,5.751,0,0,1-1.734-1.75c-.316-.479-.59-.978-.854-1.461a11.611,11.611,0,0,0-1.63-2.451,25.033,25.033,0,0,0-3.61-3.067l-1.507-1.1a41.367,41.367,0,0,1-7.667-6.72c-.183-.22-.372-.443-.573-.678l-.011-.013a16.442,16.442,0,0,1-2.713-3.866A2.658,2.658,0,0,1,369.9,166c-.168,1.138-.339,2.275-.454,3.032-1.189,7.911-2.105,14.9-2.8,21.375-.824,7.678-1.352,14.709-1.612,21.5-.326,8.559-.349,15.117-.074,21.265.154,3.5.414,7.067.771,10.606.156,1.567.346,3.422.575,5.293l.05.408a7.545,7.545,0,0,1,.056,1.556,5.4,5.4,0,0,1,2.087,2.024,16.51,16.51,0,0,1,1.313,2.643,2.939,2.939,0,0,1,.149,1.848,3.519,3.519,0,0,1-.877,1.563,14.823,14.823,0,0,1,2.664,3.235.214.214,0,0,1,.014.223.258.258,0,0,1-.225.123.255.255,0,0,1-.161-.056,18.51,18.51,0,0,0-3.967-2.417,3.92,3.92,0,0,1-1.393.264,3.271,3.271,0,0,1-.872-.116,3.745,3.745,0,0,1-1.983-1.428,16.332,16.332,0,0,0-2.637-.217,15.605,15.605,0,0,0-4.62.7,15.869,15.869,0,0,0-4.369,2.142,15.442,15.442,0,0,0-2.046,1.733c-.1.1-.2.219-.3.338l-.041.05.777.3a6.51,6.51,0,0,0,.686.238,18.154,18.154,0,0,0,2.055.271l1.032.084c.492.041,1,.08,1.451.114,1.7.13,3.465.264,5.163.545a19.941,19.941,0,0,1,4.984,1.438.8.8,0,0,1,.463.831,1.01,1.01,0,0,1-.69.91,18.842,18.842,0,0,1-5.043.605c-.883,0-1.826-.039-3.058-.127l-.588-.044c-.584-.045-1.191-.08-1.777-.113h0a27.936,27.936,0,0,1-5.983-.775,3.047,3.047,0,0,1-.237,2.6,2.908,2.908,0,0,1-.948.96,3.742,3.742,0,0,1-1.514.524,69.9,69.9,0,0,1-9.294.573c-4.507,0-8.979-.339-13.14-.705-6.828-.6-14.771-1.279-22.642-1.69-12.587-.662-25.941-.971-42.025-.971-10.878,0-21.919.145-31.414.28l-13.835.2c-8.095.114-16.8.22-25.57.22-2.587,0-5.121-.009-7.53-.028l-5.164-.048c-1.974-.019-4.271-.045-6.546-.112l-1.308-.043c-.431-.016-.89-.018-1.323-.018h-.673c-2.373,0-4.64-.094-6.3-1.223a3.984,3.984,0,0,1-1.7-2.5,4.161,4.161,0,0,1,.542-2.959,8.212,8.212,0,0,1,1.236-1.491c.927-7.925,1.468-16.019,1.992-23.847v0l.046-.694c.475-7.158.763-14.382.857-21.472.095-7.14-.005-14.346-.3-21.417-.294-7.121-.79-14.308-1.476-21.363-.69-7.1-1.592-14.272-2.679-21.309-5.62,1.717-11.345,3.682-17.5,6.006-5.392,2.036-11,4.306-17.143,6.939-6.561,2.812-12.509,5.487-18.186,8.18-1.471.7-2.971,1.457-4.422,2.191a73.121,73.121,0,0,1-12.418,5.351,2.184,2.184,0,0,1-1.42.566,1.706,1.706,0,0,1-.517-.079l-.086-.03h0a2.407,2.407,0,0,1-.548.063,2.66,2.66,0,0,1-1.381-.4c-.117-.071-.256-.155-.4-.245l-.2-.127a20.345,20.345,0,0,1-5.594-4.855c-1.5,1.392-3.121,2.7-4.688,3.975l-.025.02-.838.68c-2.276,1.856-4.262,3.494-6.071,5.007-.211.177-.429.353-.64.523a15.571,15.571,0,0,0-1.742,1.554l-.1.113c-.015.017-.032.036-.046.055a42.643,42.643,0,0,1,7.687,7.11l.043.046.376.41c2.6,2.832,5.144,5.79,7.5,8.565l2.379,2.805,2.1,2.482.045.053c16.027,18.946,32.6,38.537,53.454,52.518a3.215,3.215,0,0,1,1.324,1.732,3.4,3.4,0,0,1-.022,1.984,3.736,3.736,0,0,1-1.086,1.708,2.713,2.713,0,0,1-1.8.713,2.937,2.937,0,0,1-1.677-.567,192.7,192.7,0,0,1-18.472-14.611c-4.941-4.373-9.761-9.091-14.736-14.426C96.427,232.7,92,227.6,87.312,221.842c-3.938-4.836-8.136-10.229-12.835-16.485l-1.418-1.887c-1.8-2.4-3.72-4.97-5.569-7.623l-.377-.541a37.544,37.544,0,0,1-4.274-7.459,4.066,4.066,0,0,1-1.479.978,1.626,1.626,0,0,1-.593.11,2.345,2.345,0,0,1-2.133-1.659c-.629-2.5,1.413-4.02,3.214-5.365l.244-.183c2.287-1.708,4.621-3.356,6.815-4.9l.818-.578.53-.376a69.956,69.956,0,0,1,8.327-5.34,1.853,1.853,0,0,1,.336-.344c.163-.129.3-.238.442-.344-1.9-3.081-3.875-6.066-5.87-8.873-2.092-2.942-4.277-5.787-6.5-8.457a149.811,149.811,0,0,0-10.914-11.8l-1.729-1.674a91.8,91.8,0,0,0-8.238-7.284l-.909,1.031c-1.1,1.239-2.377,2.673-3.734,4.024-2.621,2.6-5.177,5.235-7.57,7.706-4.088,4.23-8.094,8.647-12.179,13.177l-2,2.22c-1.1,1.223-2.244,2.461-3.348,3.657-3.093,3.352-6.291,6.818-9.08,10.457l-.189.25a12.443,12.443,0,0,0-1.941,3.523,6.737,6.737,0,0,0-.123,3.973,23.372,23.372,0,0,0,3.369,6.473l0,.005c.216.328.44.667.654,1l.151.234c6.407,9.979,13.13,19.437,19.982,28.111a271.432,271.432,0,0,0,23.047,25.932c4.264,4.176,8.611,8.074,12.919,11.588a158.18,158.18,0,0,0,13.992,10.217,2.43,2.43,0,0,1,1.038,1.309,2.561,2.561,0,0,1,0,1.513,2.87,2.87,0,0,1-.847,1.337,2.152,2.152,0,0,1-1.424.561,2.341,2.341,0,0,1-1.287-.413,177.068,177.068,0,0,1-16.33-12.133c-4.964-4.134-10.015-8.758-15.012-13.744-4.206-4.195-8.334-8.692-12.618-13.748-3.76-4.437-7.562-9.215-11.624-14.605-3.615-4.8-7.139-9.792-10.476-14.83-.648-.98-1.331-1.986-1.991-2.959l-.007-.01a78.744,78.744,0,0,1-7.348-12.382,14.556,14.556,0,0,1-1.179-4.4,10.869,10.869,0,0,1,.5-4.517,21.615,21.615,0,0,1,4.66-7.192l.179-.2c4.072-4.575,8.432-9.346,13.328-14.587,4.2-4.495,8.794-9.074,14.044-14a100.034,100.034,0,0,1,11.943-9.592c-.385-.274-.76-.528-1.146-.778a2.329,2.329,0,0,1-1.06-1.7,2.116,2.116,0,0,1,.618-1.741,87.077,87.077,0,0,1,6.581-5.8c.84-.692,1.709-1.406,2.55-2.119,2.946-2.5,6-5.088,8.626-7.32,5.9-5,11.982-10.16,17.346-14.71l.211-.179c7.587-6.435,15.269-13.01,22.7-19.369l.02-.017c2.7-2.31,5.758-4.928,8.721-7.461,3.506-3,7.1-6.011,10.569-8.926l.008-.007,2.6-2.183,7.813-6.575,3.822-3.208a41.723,41.723,0,0,1,6.184-4.512c4.305-2.418,9.326-3.709,14.182-4.958l.009,0c1.029-.265,2.092-.538,3.118-.815l.384-.1c7.086-1.939,13.474-3.55,19.528-4.925,6.492-1.473,13.134-2.84,19.74-4.065A115.084,115.084,0,0,1,215.9,27.072a8.137,8.137,0,0,1,2.817-.533,5.357,5.357,0,0,1,2.05.373,7.27,7.27,0,0,1,1.815,1.1c.855-.3,1.718-.559,2.552-.809a23.077,23.077,0,0,0,6.1-2.489A30.45,30.45,0,0,0,238.5,18.1a34.961,34.961,0,0,0,5.021-8.53A57.306,57.306,0,0,0,246.468.119.166.166,0,0,1,246.635,0a.141.141,0,0,1,.15.119,24.8,24.8,0,0,1,.19,5.51,29.485,29.485,0,0,1-.947,5.474,35.465,35.465,0,0,1-4.556,10.066,34.908,34.908,0,0,1-7.988,8.7l-.245.185a23.2,23.2,0,0,1-4.157,2.535,11.29,11.29,0,0,1-4.657,1.139,7.5,7.5,0,0,1-2.743-.506,2.574,2.574,0,0,1-.352-.164c.395.611.77,1.261,1.133,1.891l.044.076.111.193c.714,1.24,1.4,2.526,2.06,3.77.5.943,1.019,1.917,1.547,2.865a42.269,42.269,0,0,0,8.1,10.527c10.885,10.159,26.561,15.1,47.925,15.1.382,0,.775,0,1.167,0l1.228-.012c.547,0,1.107-.005,1.649-.007,7.3-.021,16.395-.047,21.876-5.185a19.8,19.8,0,0,0,3.842-5.2,57.83,57.83,0,0,0,2.648-5.949c1.058-2.652,1.9-5.407,2.717-8.072l0-.01c.378-1.235.769-2.513,1.177-3.763a29.284,29.284,0,0,1-7.089-6.721,28.175,28.175,0,0,1-2.639-4.349,26.509,26.509,0,0,1-1.785-4.762l-.13-.492a26.082,26.082,0,0,1-.8-4.34,8.81,8.81,0,0,1,.531-4.232.371.371,0,0,1,.353-.207.412.412,0,0,1,.375.207,10.369,10.369,0,0,1,.753,2.473c.093.434.19.883.315,1.317a31.327,31.327,0,0,0,1.53,4.339,31.29,31.29,0,0,0,4.753,7.534,31.114,31.114,0,0,0,5.289,5.019,4.277,4.277,0,0,1,3.929-1.938,7.9,7.9,0,0,1,2.186.322,88.463,88.463,0,0,1,8.927,3.218l.583.241c.709.294,1.423.576,2.18.874l0,0a44.5,44.5,0,0,1,6.657,3.052c.735.351,1.46.7,2.162,1.046l.007,0c.878.428,1.708.832,2.522,1.215,6.359,2.987,13.1,6.342,21.853,10.878l1.548.8a46.486,46.486,0,0,1,8.661,5.367,38.641,38.641,0,0,1,6.688,8.122l.029.042c2.475,3.629,4.911,7.378,7.267,11l0,0,0,.006c1.9,2.92,3.86,5.94,5.832,8.88l.011.017c8.766,13.06,17.83,26.566,26.82,39.853.733,1.084,1.511,2.179,2.264,3.237v0c1.481,2.084,3.013,4.237,4.3,6.454a11.984,11.984,0,0,1,1.562,4.89,25.535,25.535,0,0,1-.11,5.168l-.068.656c-.657,6.169-1.787,12.675-5.573,18.462a37.909,37.909,0,0,1-4.92,6.025,44.687,44.687,0,0,1-5.905,4.927,57.231,57.231,0,0,1-6.629,3.981,76.866,76.866,0,0,1-7.089,3.186c.211.157.421.318.625.473a14.628,14.628,0,0,0,3.064,1.953,21.543,21.543,0,0,0,6.8,1.592c.51.041,1.023.046,1.458.046l.546,0,.541,0a12.479,12.479,0,0,1,2.528.19,4.937,4.937,0,0,1,2.246,1.039,1.958,1.958,0,0,1,.616,1.519,1.9,1.9,0,0,1-.616,1.462,5.5,5.5,0,0,1-3.668,1.135,22.288,22.288,0,0,1-2.574-.2h-.012l-.56-.065-.141-.015a24.83,24.83,0,0,1-6.42-1.456c-.526-.206-1.031-.432-1.5-.669a.313.313,0,0,1,.016.149,46.346,46.346,0,0,1-1.922,7.819l-.512,1.632c-.852,2.728-1.982,6.328-3.169,9.983-1.993,6.141-4.141,12.176-6.539,18.862l-1.939,5.4c-1.912,5.323-3.968,10.983-6.236,16.531-1.1,2.687-2.223,5.419-3.309,8.06l0,.008-.342.831-.489,1.19c-.425,1.035-.835,2.113-1.231,3.156a58.263,58.263,0,0,1-2.915,6.8A2.165,2.165,0,0,1,378.1,273.706Zm-64.087-95.3a13.727,13.727,0,0,0-6.033,1.857c1.1.475,2.288.989,3.544,1.526l7.863,3.356c.744.317,1.511.627,2.254.926a50.764,50.764,0,0,1,5.562,2.508,1.355,1.355,0,0,1,.423.352c1.594-1.02,3.27-1.987,4.891-2.922.986-.569,2.005-1.157,2.991-1.748.628-.376,1.273-.76,1.792-1.068a18.558,18.558,0,0,1-5.967,1.1,13.018,13.018,0,0,1-3.672-.517,27.813,27.813,0,0,1-5.4-2.462,40.709,40.709,0,0,0-3.751-1.877,12.625,12.625,0,0,0-3.969-1.012C314.366,178.407,314.19,178.4,314.016,178.4Zm-.036-3.7a10.7,10.7,0,0,1,1.361.087,22.338,22.338,0,0,1,7.683,3,27.658,27.658,0,0,0,6.118,2.7,10.235,10.235,0,0,0,2.572.324c2.9,0,5.717-1.167,8.445-2.3a32.25,32.25,0,0,1,5.969-2.03,16.193,16.193,0,0,1,2.84-.307l.317,0,.141-.082c.306-.179.646-.355,1.006-.541A7.893,7.893,0,0,0,353.3,173.5a9.07,9.07,0,0,0,1.1-3.773v0c.064-.436.124-.847.2-1.223.028-.138.061-.3.09-.462h-.01a8.676,8.676,0,0,0-1.61.129,23.9,23.9,0,0,0-4.944,1.608c-.693.294-1.393.6-2.069.9a50.223,50.223,0,0,1-7.12,2.71,26.377,26.377,0,0,1-6.806.972,19.669,19.669,0,0,1-2.805-.2,15.808,15.808,0,0,1-4.379-1.323,28.425,28.425,0,0,1-3.974-2.291l-.421-.287-.274-.188c-1.67-1.149-3.562-2.452-5.527-2.452a4.292,4.292,0,0,0-1.957.474,13.77,13.77,0,0,0-1.938,1.279,15.662,15.662,0,0,1-1.716,1.162,16.065,16.065,0,0,1-4.151,1.6,18.307,18.307,0,0,1-4.112.46,17.725,17.725,0,0,1-3.587-.359l.039,3.474c2.069.853,4.1,1.719,5.809,2.453,1.218-.416,2.373-.9,3.732-1.509l.857-.384A14.973,14.973,0,0,1,313.979,174.7Zm.827-11.112a7.564,7.564,0,0,1,1.344.124c2.454.447,4.55,1.9,6.577,3.3.21.146.472.327.719.5l.368.248a14.831,14.831,0,0,0,8.355,2.828h.141a22.107,22.107,0,0,0,5-.614,40.226,40.226,0,0,0,4.829-1.479c.662-.243,1.321-.5,1.958-.743a32.464,32.464,0,0,1,7.575-2.23,13.689,13.689,0,0,1,1.692-.107,10.6,10.6,0,0,1,1.785.142c.16-.894.307-1.749.446-2.613.295-1.809.562-3.7.794-5.618a8.989,8.989,0,0,0-2.335-.305c-3.113,0-6.147,1.547-9.08,3.043a33.6,33.6,0,0,1-5.668,2.473,18.02,18.02,0,0,1-5,.7,18.51,18.51,0,0,1-4.972-.677,24.173,24.173,0,0,1-6.848-3.539c-.319-.211-.681-.45-1.034-.679l-.471-.3a6.883,6.883,0,0,0-3.553-1.383,3.407,3.407,0,0,0-.639.06,7.431,7.431,0,0,0-2.615,1.312c-.378.255-.734.5-1.1.7a19.082,19.082,0,0,1-4.108,1.71,21.186,21.186,0,0,1-4.389.762c-.444.03-.9.045-1.347.045a20.887,20.887,0,0,1-6.081-.914l.082,7.691a11.8,11.8,0,0,0,2.727.547c.341.025.686.038,1.024.038a13.075,13.075,0,0,0,3.7-.528,12.749,12.749,0,0,0,3.4-1.58l1.225-.813A9.886,9.886,0,0,1,314.806,163.591Zm2.582-10.7a8.464,8.464,0,0,1,3.33.741,17.707,17.707,0,0,1,3.029,1.706l.7.479c2.6,1.766,5.216,3.376,8.581,3.685.411.038.828.057,1.24.057a20.164,20.164,0,0,0,8.5-2.3l.733-.339c3.055-1.4,6.3-2.7,9.347-2.7a8.1,8.1,0,0,1,3.8.87c.3-2.875.537-5.862.692-8.876a5.008,5.008,0,0,0-1.768-.356h-.035a14.439,14.439,0,0,0-4.62,1c-1.713.6-3.389,1.382-5.011,2.133h0c-1.389.644-2.826,1.31-4.278,1.864a19.924,19.924,0,0,1-7.1,1.41,14.99,14.99,0,0,1-2.373-.185,10.845,10.845,0,0,1-3.943-1.449,16.13,16.13,0,0,1-3.259-2.678l-.3-.312-.063-.067a6.153,6.153,0,0,0-3.111-2.187,3.24,3.24,0,0,0-.611-.057,6.5,6.5,0,0,0-3.019,1.008c-.884.49-1.742,1.049-2.571,1.59a19.686,19.686,0,0,1-5.738,2.9,14.616,14.616,0,0,1-3.642.444,22.827,22.827,0,0,1-8.834-2c.016,2.392.036,4.831.055,7.123a18.184,18.184,0,0,0,2.32.7,17.074,17.074,0,0,0,8.552-.254,16.459,16.459,0,0,0,3.768-1.844,15.018,15.018,0,0,1,4.043-1.908A6.636,6.636,0,0,1,317.389,152.89Zm3.447-11.4a6.907,6.907,0,0,1,3.521.982,13.327,13.327,0,0,1,2.881,2.351l.218.227c2.289,2.414,4.455,3.444,7.243,3.445.315,0,.645-.014.979-.041a28.359,28.359,0,0,0,8.547-2.593c.368-.155.748-.316,1.122-.471l.282-.117a21.478,21.478,0,0,1,7.855-2.016,9.767,9.767,0,0,1,1.377.1,9.437,9.437,0,0,1,2.574.739c.119-2.765.183-5.633.2-8.767a6.713,6.713,0,0,0-4.421-1.482,8.636,8.636,0,0,0-2.327.32,23.426,23.426,0,0,0-5.552,2.713,31.62,31.62,0,0,1-4.083,2.2,13.176,13.176,0,0,1-5.059,1.078,10.928,10.928,0,0,1-3.951-.738,25.389,25.389,0,0,1-5.021-2.875,36.544,36.544,0,0,0-3.409-2.136,9.387,9.387,0,0,0-4.323-1.318,4.961,4.961,0,0,0-.653.042,6.022,6.022,0,0,0-3.714,2.5l-.543.646a21.688,21.688,0,0,1-2.8,2.857,10.558,10.558,0,0,1-3.525,1.92,10.9,10.9,0,0,1-3.269.5,12.022,12.022,0,0,1-5.294-1.27,25.451,25.451,0,0,1-2.542-1.517l-.169-.11.047,6.239a26.687,26.687,0,0,0,5.543,2.156,13.04,13.04,0,0,0,3.075.387,11.058,11.058,0,0,0,3.462-.55,14.17,14.17,0,0,0,3.326-1.617l.327-.213c.273-.18.553-.366.8-.531,2.107-1.409,4.285-2.866,6.858-3.018C320.558,141.495,320.7,141.491,320.835,141.491Zm-23.9-11.888c.019,1.119.019,2.248.019,3.34v.007c0,.433,0,.88,0,1.32.652.373,1.282.783,1.892,1.18l.471.306.27.171a10.566,10.566,0,0,0,5.471,1.907,7.178,7.178,0,0,0,2.212-.357c2.034-.661,3.252-2.121,4.54-3.668l0,0c.439-.526.892-1.071,1.381-1.58a9.458,9.458,0,0,1,2.819-2.052,7.933,7.933,0,0,1,3.376-.756c.11,0,.222,0,.334.007a15.062,15.062,0,0,1,7.558,2.778c.552.36,1.111.753,1.651,1.133l0,0a18.306,18.306,0,0,0,5.415,2.965,7.509,7.509,0,0,0,2.01.273,10.447,10.447,0,0,0,4.074-.939,37.86,37.86,0,0,0,3.947-2.062,21.311,21.311,0,0,1,6.545-2.859,9.222,9.222,0,0,1,1.584-.136,9.071,9.071,0,0,1,2.747.417,7.344,7.344,0,0,1,2.379,1.244c-.018-3.023-.081-6.337-.2-10.132-3.188.11-6.363,1.439-9.433,2.723a44.585,44.585,0,0,1-5.792,2.119,14.942,14.942,0,0,1-3.8.492,18.134,18.134,0,0,1-5.65-.973,57.579,57.579,0,0,1-5.534-2.214h0l-.637-.281a16.912,16.912,0,0,0-6.636-1.767,8.908,8.908,0,0,0-1.419.112,20.749,20.749,0,0,0-6.952,3.007l-.036.021-.515.3-.451.259c-4.561,2.6-8.3,3.755-12.118,3.755C297.957,129.666,297.443,129.645,296.935,129.6Zm-.513-8.308a2.97,2.97,0,0,1-.192.544,34.258,34.258,0,0,1,.555,4.264,17.3,17.3,0,0,0,1.855.1,15.958,15.958,0,0,0,3.243-.328,26.242,26.242,0,0,0,7.7-3.423c1.028-.6,2.091-1.214,3.167-1.757-.741.028-1.476.059-2.186.089h-.008c-2.859.124-5.516.256-8.121.4-.525.028-1.073.093-1.654.161a21.517,21.517,0,0,1-2.468.194A6.357,6.357,0,0,1,296.423,121.294ZM337.4,120.08c-3.208.022-6.525.044-9.785.114l-1.188.028-.07,0-.071,0c1.078.418,2.133.885,3.385,1.457l1.122.514a18.064,18.064,0,0,0,7.507,2.032c.272,0,.546-.01.814-.029a28.3,28.3,0,0,0,7.585-2.011c.511-.187,1.039-.381,1.565-.567a21.764,21.764,0,0,1,7.166-1.372,13.724,13.724,0,0,1,1.961.136l0-.059c-.007-.258-.015-.525-.026-.794-6.633.457-13.408.5-19.96.546Z" transform="translate(2402.004 400.521)"/>
      <path id="_Background-6" data-name="ðŸŽ¨ Background" d="M133.211,60.636c-.842-7.4.248-22.865.321-23.805.462-5.94-2.322-29.4-7.583-27.236-8.826-6.987-20.582-8.53-31.574-9.267C71.542-1.2,47.252,2.311,29.621,17.677,20.9,25.657,12.413,37.264,13.1,49.348,5.174,60.8-5.994,76.516,3.876,89.908c3.355,4.278,8.688,5.872,12.9,9.112,8.478,6.838,13.8,16.651,22.355,23.449,22.673,20.374,61.173,24.631,83.45,1.456,17.226-16.784,14.441-41.893,11.411-63.289C131.957,46.251,134.854,75.071,133.211,60.636Z" transform="translate(2612.463 278.86)" fill="#fff"/>
      <path id="_Ink-9" data-name="ðŸ– Ink" d="M97.921,173.4a52.437,52.437,0,0,1-7.445-.546,41.249,41.249,0,0,1-8.407-2.034,15.942,15.942,0,0,1-3.94-2.081,17.693,17.693,0,0,1-3.207-3.079,2.462,2.462,0,0,1-.264-2.471,1.512,1.512,0,0,1,1.421-.924,2.024,2.024,0,0,1,.244.015,46.228,46.228,0,0,1,8.224,1.613l.393.124a40.735,40.735,0,0,0,8.426,1.807c1.445.14,2.911.211,4.356.211a43.2,43.2,0,0,0,13.056-1.991A41.2,41.2,0,0,0,132.822,146.6c6.218-9.981,6.654-21.525,6.576-31.561-.089-11.694-.47-23.928-1.131-36.362l-.109-2.018c-.28-5.12-.641-11.873-.958-18.7-.105-2.288-.256-4.156-.474-5.88a15.482,15.482,0,0,1-5.6-5.394,55.171,55.171,0,0,1-8,2.515,47.876,47.876,0,0,1-11.419,1.4,45.063,45.063,0,0,1-6.721-.5c-1.619.669-3.295,1.266-4.98,1.774-.468.207-.928.408-1.368.6a83.1,83.1,0,0,1-12.491,4.3l-1.055.263A43.17,43.17,0,0,1,77.978,58.3a10.38,10.38,0,0,1-1.288.4,20.929,20.929,0,0,1-4.934.587c-.589,0-1.186-.025-1.774-.074a3.313,3.313,0,0,1-2.664-1.718,2.762,2.762,0,0,1,.1-2.745c.87-1.492,1.766-3.012,2.664-4.518A83.936,83.936,0,0,1,60.5,53.52c-2.892.814-6.048,1.583-9.933,2.418-.882.188-1.78.368-2.648.543h-.006c-.882.177-1.794.36-2.689.551-.283.06-.6.114-.933.17a7.58,7.58,0,0,0-3.327,1.077c-.889.713-1.276,2.138-1.619,3.395-.1.357-.189.694-.286.991-.608,1.829-1.13,3.526-1.6,5.187a107.734,107.734,0,0,0-2.39,10.582,101.53,101.53,0,0,0-1.264,10.8c-.095,1.49-.134,3.009-.172,4.478-.054,2.093-.11,4.258-.328,6.373a2.512,2.512,0,0,1-.754,1.574,2.151,2.151,0,0,1-1.477.6,2.308,2.308,0,0,1-1.532-.615c-.171-.15-.354-.312-.534-.475l-.264-.241a26.989,26.989,0,0,1-3.587-3.818c-.184-.253-.364-.522-.536-.8a.128.128,0,0,1-.078-.027l-.287-.216c-3.017-2.246-5.614-3.385-7.718-3.385a4.66,4.66,0,0,0-3.816,1.872,12.149,12.149,0,0,0-1.9,4.364l-.733,2.74A47.586,47.586,0,0,0,8.9,107.071c-.516,3.581-.5,8.589,2.528,12.111a7.193,7.193,0,0,0,4.412,2.5,5.533,5.533,0,0,0,.761.049,13.464,13.464,0,0,0,1.75-.154h.011l.357-.046a5.868,5.868,0,0,1,.732-.041c.258,0,.52.012.773.024h0c.255.012.518.024.779.024.22,0,.416-.009.6-.026.06-.006.119-.009.177-.009a1.551,1.551,0,0,1,1.349.776,2.238,2.238,0,0,1,.121,2.1,7.107,7.107,0,0,1-1.1,1.623,12.68,12.68,0,0,1,.966.931,4.823,4.823,0,0,1,2.351,1.756,3.985,3.985,0,0,1,.8,2.175c.05.175.1.361.145.587l.839,1.362c.206.333.387.622.553.883a42.525,42.525,0,0,0,7.453,8.9c1.05.956,2.15,1.889,3.215,2.793a71.923,71.923,0,0,1,5.364,4.871l.314.329a20.538,20.538,0,0,1,3.361,4.35,7.087,7.087,0,0,1,.769,5.242,1.834,1.834,0,0,1-1.708,1.279,1.33,1.33,0,0,1-.8-.258,19.612,19.612,0,0,1-4.133-4.718,29.778,29.778,0,0,0-2.611-3.365c-1.269-1.348-2.63-2.648-3.946-3.906h0c-1.28-1.223-2.6-2.487-3.842-3.8a30.53,30.53,0,0,1-5.66-8.461,4.557,4.557,0,0,1-3.136,1.282,4.3,4.3,0,0,1-2.367-.728,4.844,4.844,0,0,1-1.652-1.865,14.824,14.824,0,0,1-1.671.634,3.371,3.371,0,0,1-.984.154,2.908,2.908,0,0,1-2.464-1.4,3.8,3.8,0,0,1-.578-1.723,3.694,3.694,0,0,1,.314-1.853,11.843,11.843,0,0,1,2.273-3.4,14.406,14.406,0,0,1-7.754-3.767,15.909,15.909,0,0,1-4.377-8.426,23.478,23.478,0,0,1-.429-4.805,30.238,30.238,0,0,1,.445-4.806,47.59,47.59,0,0,1,2.836-9.823c.245-.6.482-1.133.723-1.631a.508.508,0,0,1-.387-.188c-.3-.4-.616-.787-.927-1.157a11.323,11.323,0,0,1-1.631-2.312c-.13-.267-.265-.539-.4-.8a29.747,29.747,0,0,1-1.317-2.9A36.066,36.066,0,0,1,.366,79.19,62.035,62.035,0,0,1,.827,62.467,66.812,66.812,0,0,1,4.515,48.649,67.921,67.921,0,0,1,11,35.969a4.54,4.54,0,0,1-.806-.54l-.125-.109-.2-.183A3.346,3.346,0,0,1,8.806,32.7a3.848,3.848,0,0,1,1.062-2.778L10.3,29.5a11.34,11.34,0,0,1,1.883-1.549c.126-.085.259-.167.394-.244a3.742,3.742,0,0,1-.3-2.926,3.883,3.883,0,0,1,1.955-2.4,6.88,6.88,0,0,1,3.249-.717,11.621,11.621,0,0,1,4.843,1.1,62.607,62.607,0,0,1,12.7-8.8A121.483,121.483,0,0,1,52.343,6.658,149.579,149.579,0,0,1,70.526,1.809,82.594,82.594,0,0,1,86.9,0c.751,0,1.5.014,2.236.041l.481.019a55.048,55.048,0,0,1,7.588.713,18.713,18.713,0,0,1,7.139,2.618.894.894,0,0,1,.625-.269.764.764,0,0,1,.332.075,116.955,116.955,0,0,0,14.2,5.3l1.134.369a69.38,69.38,0,0,0,15.73,3.2,3.263,3.263,0,0,1,1.562.562A3.161,3.161,0,0,1,139,13.837a2.46,2.46,0,0,1-.173,2.509c-.313.48-.614.958-.891,1.4l.444-.047h0c.337-.036.685-.072,1.028-.107.07-.007.142-.011.214-.011a2.883,2.883,0,0,1,2.043.976,3.024,3.024,0,0,1,.879,2.171,29.169,29.169,0,0,1-.325,2.935h.113a4.361,4.361,0,0,1,1.707.33,4.15,4.15,0,0,1,2.488,3.23,15.354,15.354,0,0,1,.074,4.317,17.892,17.892,0,0,1-4.335,10.574,16.8,16.8,0,0,1,2.5,3.345,18.216,18.216,0,0,1,1.657,3.982,18.8,18.8,0,0,1,.767,6.525l-.052.655c-.214,2.5-.642,5.035-2.315,6.708a3.637,3.637,0,0,1-2.618,1.117c-.121,0-.245-.006-.367-.018.626,5.507,1.033,11.146,1.4,16.449l.176,2.619c.743,11.233,1.478,24.545,1.3,38.1a68.869,68.869,0,0,1-2.214,17.333,48.755,48.755,0,0,1-2.981,8.111,43.615,43.615,0,0,1-4.573,7.549,49.138,49.138,0,0,1-5.483,6.116,48.3,48.3,0,0,1-6.412,5.093,44.782,44.782,0,0,1-25.135,7.6ZM24.648,113.757h-.065a4.212,4.212,0,0,1-2.7-1.086,13.581,13.581,0,0,1-1.958-2.285c-.2-.268-.4-.545-.608-.81a2.686,2.686,0,0,1-.653.8l-.18.141a3.289,3.289,0,0,1-1.967.8l-.107,0a3.853,3.853,0,0,1-1.612-.434,2.92,2.92,0,0,1-1.328-1.553,3.344,3.344,0,0,1,1.2-3.974l-.236-.162a4.729,4.729,0,0,1-1.326-1.27l-.081-.13h.031a1.268,1.268,0,0,1,.728-1.87,3.8,3.8,0,0,1,1.18-.175,12.917,12.917,0,0,1,4.985,1.547l.451.209a26.762,26.762,0,0,1,6.247,4.331,3.473,3.473,0,0,1,.892,3.376l-.014.07c-.019.095-.038.192-.061.29a2.675,2.675,0,0,1-1.045,1.557A3.014,3.014,0,0,1,24.648,113.757Z" transform="translate(2605.811 246)"/>
      <path id="_Ink-10" data-name="ðŸ– Ink" d="M37.128,80.585c-.763,0-1.593-.005-2.536-.016l-1.081-.014c-.572-.008-1.192-.012-1.951-.012-.58,0-1.156,0-1.766,0h-.041c-.6,0-1.221,0-1.857,0-4.706,0-10.114-.12-14.742-1.551C7.966,77.4,4.562,74.408,2.746,69.86a16.545,16.545,0,0,1-.957-3.454,17.107,17.107,0,0,1,1.6-10.458,14.306,14.306,0,0,1,5.7-5.878,20.686,20.686,0,0,1,7.863-2.55,26.565,26.565,0,0,1,3.185-.186,59.211,59.211,0,0,1,11.441,1.509c1.682.335,3.421.68,5.135.951A92.488,92.488,0,0,0,47.148,50.9c.74.033,1.484.05,2.115.063a1.843,1.843,0,0,1,1.165-1.532,9.066,9.066,0,0,1,4.035-.956c.142,0,.289,0,.437.009a33.079,33.079,0,0,1,4.633.5,14.554,14.554,0,0,1,7.585,3.665,10.823,10.823,0,0,1,2.545,3.923,12.211,12.211,0,0,1,.751,4.489,14.861,14.861,0,0,1-.809,4.567,15.887,15.887,0,0,1-2.135,4.156,22.119,22.119,0,0,1-2.846,3.246,22.4,22.4,0,0,1-3.269,2.529,25.37,25.37,0,0,1-3.616,1.9,31.187,31.187,0,0,1-3.887,1.358,46.023,46.023,0,0,1-8.279,1.442C43.124,80.482,40.441,80.585,37.128,80.585ZM50.266,64.9l-.1,0c-4.744.183-9.707.321-14.751.41.142,1.218.3,2.521.469,3.788.125.924.266,1.9.429,2.973.02.134.058.291.1.458a3.022,3.022,0,0,1,.133,1.027l-.024.164a1.493,1.493,0,0,1,.652.565,2.233,2.233,0,0,1,.143.273l0,.005c.46,0,.888.006,1.307.006a61.124,61.124,0,0,0,10.515-.744l.008-.085a1.632,1.632,0,0,1,.552-1.062,26.233,26.233,0,0,0,.281-3.361c.02-.492.041-1,.074-1.488.045-.675.094-1.361.142-2.025v-.01Q50.234,65.345,50.266,64.9ZM17.62,73.967h0l.092.015c.13.021.264.044.4.062a65.084,65.084,0,0,0,8.974.492c.859,0,1.73-.006,2.573-.012h.008c.767-.005,1.561-.011,2.337-.012a19.121,19.121,0,0,1-.176-3.182c0-.4,0-.772-.01-1.114l-.007-.188c-.07-1.536-.12-3.1-.149-4.651-2.458.042-5.1.08-7.739.08-1.015,0-1.961-.005-2.893-.017l-1.609-.025c.109.583.222,1.174.332,1.747v0h0c.234,1.217.475,2.476.684,3.723a2.466,2.466,0,0,1-.547,2.066A2.938,2.938,0,0,1,17.7,73.968ZM7.591,65.043h0a10.773,10.773,0,0,0,.72,2.738c1.31,3.16,4.221,5.2,8.65,6.067a1.92,1.92,0,0,1-1.27-1.653,49.965,49.965,0,0,1-.441-6.82c-2.323-.022-5.022-.068-7.659-.332Zm51.62-.488c-.428,0-.885,0-1.332.023-1.458.066-2.941.126-4.375.184l-.647.026.05.731v.015c.06.879.123,1.787.188,2.68.029.4.051.809.073,1.207a24.751,24.751,0,0,0,.327,3.3,17.665,17.665,0,0,0,8.65-5.94A11.454,11.454,0,0,0,63.6,64.264a16.055,16.055,0,0,1-3.61.292h-.781ZM16.188,53.505h0c-2.447.579-5.724,1.918-7.441,5.007a10.615,10.615,0,0,0-1.24,5.518c2.581-.3,5.249-.414,7.76-.5.01-.514.021-.972.034-1.4l.04-1.193q.007-.231.014-.47a26.375,26.375,0,0,1,.833-6.959Zm5.5-.559h0c-.78,0-1.541.025-2.262.075-.538.037-1.085.1-1.627.175a25.8,25.8,0,0,1,.674,5.077c.056.843.11,1.639.2,2.4.1.818.223,1.7.387,2.7l.643-.03c3.055-.166,6.162-.284,9.166-.4l2.77-.107c0-.827,0-1.56.016-2.243l.014-.748c.013-.559.012-1.127.011-1.729a30.785,30.785,0,0,1,.195-4.334l-1.334-.15-.323-.037a75.841,75.841,0,0,0-8.529-.649Zm12.525,1.071h0c.065.535.111,1.081.155,1.61v0c.022.268.045.544.07.814.142,1.524.308,3.106.508,4.835l.166,1.409c4.383-.2,9.046-.424,14.673-.71l.69-.037.193-2.707c.125-1.71.269-3.548.481-5.407L51,53.773a2.491,2.491,0,0,1-.513-.293,75.4,75.4,0,0,1-11.7.764h-.051c-1.338,0-2.773-.072-4.516-.226Zm17.956.134c.152,1.816.258,3.668.36,5.459.041.726.084,1.476.129,2.214l3.224-.172,1.612-.09c.581-.033,1.2-.106,1.854-.182a25.7,25.7,0,0,1,2.929-.229,7.467,7.467,0,0,1,2.056.248,5.359,5.359,0,0,0-2.073-4.968c-1.923-1.432-4.222-1.612-6.445-1.785a21.534,21.534,0,0,1-3.645-.494Zm-6.677-9.346A6.273,6.273,0,0,1,40.8,43.154a2.925,2.925,0,0,1-.555-3.271,3.488,3.488,0,0,1,1.075-1.4,2.653,2.653,0,0,1,1.609-.57,2.7,2.7,0,0,1,1.528.5,3.8,3.8,0,0,0,2.131.5,15.533,15.533,0,0,0,4.154-.718l.1-.03a5.6,5.6,0,0,0,3.277-2.41,2.489,2.489,0,0,0,.165-2.011,3.179,3.179,0,0,0-2.188-1.9,10.656,10.656,0,0,0-3.007-.478c-.181-.006-.367-.01-.554-.01a32.416,32.416,0,0,0-4.33.389c-.932.126-1.9.257-2.851.33h-.031a.358.358,0,0,1-.347-.285.408.408,0,0,1,.174-.467,21.475,21.475,0,0,1,4.6-1.875,20.714,20.714,0,0,1,5.581-.856,8.772,8.772,0,0,1,4.978,1.266,5.791,5.791,0,0,1,2.445,4.545,7.656,7.656,0,0,1-1.6,5.31,11,11,0,0,1-4.454,3.43l-.13.054A19.981,19.981,0,0,1,45.491,44.806ZM67.812,31.967a1.664,1.664,0,0,1-.172-.009l-.274-.025a2.474,2.474,0,0,1-.407-.066,2.7,2.7,0,0,1-1.355-.925,2.269,2.269,0,0,1-.526-1.545l.02-.324a10.382,10.382,0,0,0-.425-4.079,3.792,3.792,0,0,0-2.994-2.514,3.686,3.686,0,0,0-.733-.077c-2.314,0-3.595,2.391-3.625,4.642a.606.606,0,0,1-.6.588.545.545,0,0,1-.287-.081,3.985,3.985,0,0,1-1.833-2.544,5.65,5.65,0,0,1,.246-3.2,6.5,6.5,0,0,1,2.414-3.13,7.209,7.209,0,0,1,3.774-1.24c.134-.006.27-.009.4-.009a8.385,8.385,0,0,1,6.7,3.417,10.946,10.946,0,0,1,1.969,9.231,2.646,2.646,0,0,1-.855,1.3A2.274,2.274,0,0,1,67.812,31.967ZM8.4,30.8a.818.818,0,0,1-.356-.087,3.188,3.188,0,0,1-1.668-2.825A7.8,7.8,0,0,1,7,24.477a9.827,9.827,0,0,1,5.685-5.511,9.258,9.258,0,0,1,2.936-.476,10.216,10.216,0,0,1,5.344,1.557A10.97,10.97,0,0,1,24.84,24.1a1.8,1.8,0,0,1,1.5,1.8,5.019,5.019,0,0,1-1.353,3.267,2.645,2.645,0,0,1-1.979.859,3.158,3.158,0,0,1-1.771-.557,2.841,2.841,0,0,1-1.128-1.506l-.026-.09A4.949,4.949,0,0,0,15.4,24.254a4.373,4.373,0,0,0-1.444.245c-1.792.626-2.478,1.977-3.205,3.407a8.518,8.518,0,0,1-1.852,2.7A.732.732,0,0,1,8.4,30.8ZM.345,22.171A.248.248,0,0,1,.1,21.938a19.034,19.034,0,0,1,.085-4.646A23.389,23.389,0,0,1,1.34,12.608,23.968,23.968,0,0,1,3.4,8.247,20.187,20.187,0,0,1,6.23,4.567a16.25,16.25,0,0,1,4.646-3.148A14.132,14.132,0,0,1,16.657,0a6.766,6.766,0,0,1,3.616.928A5.986,5.986,0,0,1,22.72,4.092a2.654,2.654,0,0,1-.266,2.158,2.694,2.694,0,0,1-1.735,1.366,6.664,6.664,0,0,1-1.313.124,15.357,15.357,0,0,1-2.425-.257h-.006a15.416,15.416,0,0,0-2.445-.258c-.2,0-.4.008-.584.022A10.138,10.138,0,0,0,8.572,9.2c-2.6,2.015-3.964,4.945-5.283,7.778A32.493,32.493,0,0,1,.548,22.058.247.247,0,0,1,.345,22.171Zm72.033-4.625a3.607,3.607,0,0,1-1-.141c-2.473-.716-3.122-2.452-3.874-4.462-.145-.387-.294-.785-.46-1.186A10.153,10.153,0,0,0,63.8,7.623a15.042,15.042,0,0,0-8.791-2.657,13.944,13.944,0,0,0-3.949.535A.228.228,0,0,1,51,5.511a.312.312,0,0,1-.266-.174.22.22,0,0,1,.02-.239c.187-.243.355-.474.517-.7a8.236,8.236,0,0,1,1.688-1.875A11.936,11.936,0,0,1,60.272.058,13.661,13.661,0,0,1,64.34.683,15.207,15.207,0,0,1,68.012,2.4a15.631,15.631,0,0,1,3.106,2.613,17.2,17.2,0,0,1,2.21,2.973,9.413,9.413,0,0,1,.51,1.18,11.965,11.965,0,0,0,.531,1.245,4.039,4.039,0,0,1,2.017,2.863,3.233,3.233,0,0,1-.117,1.449,3.526,3.526,0,0,1-.831,1.37l-.081.082-.24.239A3.925,3.925,0,0,1,72.378,17.546Z" transform="translate(2660.579 314.067)"/>
    </g>
    <path id="arrow" d="M90.9,95.324c-9.7,0-20.172-4.381-25.474-10.651a21.593,21.593,0,0,1-4.721-8.865,16.966,16.966,0,0,1,.171-8.5c1.263-4.62,4.427-9.208,9.15-13.27a46.419,46.419,0,0,1,14.726-8.455c.266-.091.539-.176.8-.257.214-.066.432-.134.644-.2A91.167,91.167,0,0,0,73.226,34.906C55.7,23.476,36.812,19.256,16.811,14.788l-.018,0q-2.094-.468-4.2-.941a2.881,2.881,0,0,1-1.546-.886c1.14,1.772,2.064,3.111,3,4.341s2.03,2.424,3.086,3.572a29.906,29.906,0,0,1,4.758,6.165,3.366,3.366,0,0,1-2.922,4.98,3.487,3.487,0,0,1-1.629-.416c-3.367-1.762-5.815-5.02-8.182-8.17-.293-.39-.6-.794-.895-1.185A71.442,71.442,0,0,1,.446,9.807,3.819,3.819,0,0,1,1.775,4.724,33.231,33.231,0,0,1,16.094.1c1-.07,1.894-.1,2.726-.1a11.956,11.956,0,0,1,5,.775,4.468,4.468,0,0,1,1.4,1.209A4.774,4.774,0,0,0,26.541,3.16a.394.394,0,0,1,.22.435.535.535,0,0,1-.452.418,2.312,2.312,0,0,0-1.381.666,2.6,2.6,0,0,1-1.113.639,17.486,17.486,0,0,1-3.408.413,22.6,22.6,0,0,0-2.723.262,29.3,29.3,0,0,0-9,3.163c.62,1.036,1.266,2.087,1.92,3.122A3.746,3.746,0,0,1,10.835,8.8a2.833,2.833,0,0,1,2.471-1.381c.051,0,.1,0,.154,0A122.923,122.923,0,0,1,50.3,15.283,129.064,129.064,0,0,1,83.347,33.394a108.583,108.583,0,0,1,10.724,9.471,120.557,120.557,0,0,1,28.2-3.21,147.33,147.33,0,0,1,40.808,5.918.408.408,0,0,1,.325.462.5.5,0,0,1-.492.425.566.566,0,0,1-.076-.005,208.511,208.511,0,0,0-28.133-2.024c-5.107,0-10.136.226-14.949.67A191.309,191.309,0,0,0,98.728,47.92c7.687,8.97,15.963,22.339,11.736,35.077a16.6,16.6,0,0,1-7.628,9.467,23.971,23.971,0,0,1-11.929,2.859h0Zm-.064-45.415a63.266,63.266,0,0,0-8.24,3.1c-2.861,1.323-12.4,6.263-14.985,14.313a12.746,12.746,0,0,0,1.255,10.512c4.115,7.289,13.388,10.552,20.753,10.552a22.61,22.61,0,0,0,6.992-1.044c3.8-1.236,6.258-3.438,7.3-6.546,2.754-8.238-5.08-20.406-7.546-23.939A73.814,73.814,0,0,0,90.841,49.909Z" transform="translate(1017.085 546.112) rotate(26)"/>
    <path id="arrow-2" data-name="arrow" d="M49.739,52.324c-5.306,0-11.037-2.4-13.938-5.846a11.865,11.865,0,0,1-2.583-4.866,9.342,9.342,0,0,1,.093-4.665,15.273,15.273,0,0,1,5.006-7.284,25.378,25.378,0,0,1,8.057-4.641c.146-.05.3-.1.44-.141.117-.036.237-.073.353-.112a49.906,49.906,0,0,0-7.1-5.608C30.479,12.886,20.143,10.57,9.2,8.117l-.01,0L6.891,7.6a1.575,1.575,0,0,1-.846-.487c.624.973,1.129,1.708,1.639,2.383s1.11,1.33,1.688,1.96a16.41,16.41,0,0,1,2.6,3.384,1.848,1.848,0,0,1-1.6,2.734,1.9,1.9,0,0,1-.891-.228c-1.842-.967-3.182-2.755-4.477-4.485-.16-.214-.326-.436-.489-.65A39.235,39.235,0,0,1,.245,5.383a2.1,2.1,0,0,1,.727-2.79A18.141,18.141,0,0,1,8.807.057C9.355.019,9.843,0,10.3,0a6.523,6.523,0,0,1,2.733.425,2.447,2.447,0,0,1,.768.664,2.615,2.615,0,0,0,.724.646.217.217,0,0,1,.12.239A.293.293,0,0,1,14.4,2.2a1.263,1.263,0,0,0-.756.366,1.423,1.423,0,0,1-.609.351,9.538,9.538,0,0,1-1.865.227,12.325,12.325,0,0,0-1.49.144A16,16,0,0,0,4.754,5.027C5.093,5.6,5.447,6.172,5.8,6.74A2.062,2.062,0,0,1,5.93,4.828,1.549,1.549,0,0,1,7.281,4.07l.084,0A67.071,67.071,0,0,1,27.521,8.389,70.549,70.549,0,0,1,45.6,18.33a59.471,59.471,0,0,1,5.867,5.2A65.76,65.76,0,0,1,66.9,21.767,80.371,80.371,0,0,1,89.23,25.016a.224.224,0,0,1,.178.254.273.273,0,0,1-.269.234l-.042,0A113.726,113.726,0,0,0,73.7,24.389c-2.794,0-5.546.124-8.179.368A104.356,104.356,0,0,0,54.02,26.3c4.206,4.924,8.734,12.262,6.421,19.254a9.109,9.109,0,0,1-4.173,5.2,13.082,13.082,0,0,1-6.527,1.569h0ZM49.7,27.4A34.546,34.546,0,0,0,45.2,29.1c-1.565.726-6.782,3.438-8.2,7.856a7.016,7.016,0,0,0,.687,5.77c2.251,4,7.325,5.792,11.355,5.792a12.335,12.335,0,0,0,3.826-.573,5.732,5.732,0,0,0,3.992-3.593c1.507-4.522-2.779-11.2-4.129-13.14A40.5,40.5,0,0,0,49.7,27.4Z" transform="translate(746.791 487.856) rotate(11)" fill="#00bab6"/>
    <path id="arrow-3" data-name="arrow" d="M65.85,48.25h0a12.574,12.574,0,0,1-9.916-4.51,14.156,14.156,0,0,1-3.07-8.806,20.135,20.135,0,0,1,2.092-9.215c3.381-6.824,10.156-9.79,15.243-11.077A35.251,35.251,0,0,0,52.715,5.217a44.563,44.563,0,0,0-10.1-1.123,61.326,61.326,0,0,0-15.49,2.149,103.145,103.145,0,0,0-11.757,3.934c-.193.077-.528.2-.951.362-3.471,1.308-12.69,4.781-13.3,6.692a.521.521,0,0,0,.056.469.246.246,0,0,1,.008.26.307.307,0,0,1-.259.166.235.235,0,0,1-.135-.043,1.488,1.488,0,0,1-.779-1.4c.142-1.394,2.383-3.259,6.661-5.542,3.416-1.824,7.116-3.373,8.7-4.035l.006,0c.236-.1.418-.175.537-.226A97.137,97.137,0,0,1,29.683,2.012,56.422,56.422,0,0,1,44.13,0c1,0,2,.033,2.975.1A44.979,44.979,0,0,1,62.778,4.089,36.48,36.48,0,0,1,75.629,13.7a75.581,75.581,0,0,1,8.706-.476,139.875,139.875,0,0,1,18.418,1.414,78.354,78.354,0,0,1,19.531,4.927c-1.736-2.094-3.127-3.87-4.379-5.586a1.172,1.172,0,0,1-.147-1.266,1.686,1.686,0,0,1,1.472-.848,1.428,1.428,0,0,1,.958.353c3.976,3.495,7.685,7.416,11.271,11.209,1.106,1.17,2.249,2.379,3.383,3.557a2.339,2.339,0,0,1,.646,1.915,2.387,2.387,0,0,1-1.117,1.735c-.806.5-1.63,1.062-2.427,1.6-2.465,1.667-5.013,3.39-7.81,4.15a2.205,2.205,0,0,1-.58.08,2.187,2.187,0,0,1-1.517-3.683,23.106,23.106,0,0,1,5.981-4.081c-.033-.016-.066-.03-.1-.043a1.419,1.419,0,0,1-.192-.094c-10.4-6.248-24.815-9.689-40.585-9.689-2.646,0-5.32.1-7.949.293a26.822,26.822,0,0,1,2.439,7.5,21.361,21.361,0,0,1-.948,10.972,16.14,16.14,0,0,1-6.9,8.408A15.626,15.626,0,0,1,65.85,48.25ZM74.028,19.74h0c-6.019,1.044-13.569,3.975-15.354,12.007a9.833,9.833,0,0,0,1.649,8.35,7.56,7.56,0,0,0,6,2.888,10.033,10.033,0,0,0,5.643-1.918c6.953-4.8,6.046-14.167,2.064-21.327Z" transform="translate(138 727.804) rotate(-56)" fill="#00bab6"/>
    <path id="arrow-4" data-name="arrow" d="M85.289,0h0A16.313,16.313,0,0,0,72.446,5.819,18.219,18.219,0,0,0,68.469,17.18a25.894,25.894,0,0,0,2.71,11.889c4.379,8.8,13.153,12.631,19.743,14.291-5.665,5.827-13.5,10.032-22.646,12.158a57.934,57.934,0,0,1-13.082,1.449A79.72,79.72,0,0,1,35.131,54.2,133.96,133.96,0,0,1,19.9,49.12c-.251-.1-.684-.261-1.232-.467-4.5-1.687-16.435-6.168-17.228-8.633a.669.669,0,0,1,.072-.606.317.317,0,0,0,.011-.336.4.4,0,0,0-.335-.215.306.306,0,0,0-.175.055,1.919,1.919,0,0,0-1.009,1.8c.184,1.8,3.087,4.2,8.627,7.151,4.425,2.353,9.216,4.352,11.263,5.206l.008,0c.306.128.542.226.7.292a126.139,126.139,0,0,0,17.843,6.282,73.344,73.344,0,0,0,18.711,2.6c1.294,0,2.59-.043,3.853-.127a58.439,58.439,0,0,0,20.3-5.149,47.233,47.233,0,0,0,16.645-12.4,98.27,98.27,0,0,0,11.276.614,181.86,181.86,0,0,0,23.854-1.825A101.8,101.8,0,0,0,158.38,37c-2.249,2.7-4.051,4.992-5.672,7.207a1.507,1.507,0,0,0-.191,1.634,2.185,2.185,0,0,0,1.907,1.094,1.854,1.854,0,0,0,1.24-.455c5.15-4.509,9.953-9.568,14.6-14.461,1.433-1.509,2.914-3.069,4.382-4.589a3.01,3.01,0,0,0,.837-2.471,3.079,3.079,0,0,0-1.446-2.238c-1.043-.65-2.111-1.37-3.144-2.065-3.192-2.15-6.493-4.374-10.116-5.354a2.867,2.867,0,0,0-.751-.1,2.766,2.766,0,0,0-2.515,1.739,2.722,2.722,0,0,0,.551,3.012,29.932,29.932,0,0,0,7.747,5.265c-.042.02-.085.038-.126.056a1.841,1.841,0,0,0-.249.122c-13.473,8.061-32.141,12.5-52.566,12.5-3.427,0-6.891-.127-10.3-.377a34.509,34.509,0,0,0,3.159-9.68A27.458,27.458,0,0,0,104.5,13.682,20.841,20.841,0,0,0,95.563,2.834,20.3,20.3,0,0,0,85.289,0ZM95.88,36.783h0c-7.8-1.347-17.574-5.129-19.886-15.491A12.647,12.647,0,0,1,78.13,10.519,9.805,9.805,0,0,1,85.9,6.793a13.028,13.028,0,0,1,7.309,2.475c9.005,6.187,7.831,18.278,2.673,27.515Z" transform="translate(355.796 524.848) rotate(-21)"/>
  </g>
</svg>
