<svg id="Illustrasi-6" xmlns="http://www.w3.org/2000/svg" width="351.495" height="517.83" viewBox="0 0 351.495 517.83">
  <path id="_Background" data-name="ðŸŽ¨ Background" d="M2.1,389.451c7.744-11,24.069-12.826,34.556-20.538,5.525-4.23,11.371-7.029,15.664-12.724-6.836-8.02,1.618-26.82,3.357-37.677,6.894-28.425,13.269-57.3,21.468-85.695-14.209,4.417-10.507-22.03-8.478-28.145.14-.841,1.183-1.008,1.822-1.273-.179-1.2-.671-1.464.822-1.8.5-7.2-1.54-15.253,2.145-21.609,4.153-6.938,14.08-12.744,22.283-12.84,5.762-22.849,6.818-33.627,34.116-23.941a8.88,8.88,0,0,1,.26-6.515c4.1-12.387,9.264-25.937,13.75-38.489,5.17-14.445,10.516-29.382,17.431-43.261,4.816-8.814,19.882-11.17,30.095-9.711,2.436-4.292,8.577-16.163,16.345-13.419q.088-5.371.16-10.742c.04-3.113-.288-6.3.911-9.259,1.27-3.131,3.855-4.783,6.891-5.981,9.19-3.031,19.748-7.9,29.446-4.888,8.473,3.862,7.486,18.382,11.586,26.275,5.746-8.508,15.546-2.8,17.619,6.321,23.605,9.4,43.895-1.278,45.405,35.605-1.3,6.724-2.408,13.03-1.791,19.82l.714.073c6.042,32.681,8.365,67.713,6.9,104.133.293,14.34,5.526,27.723,10.586,40.663,3.722,9.515,7.566,19.354,9.388,29.448,2.02,8.407,9.447,48.838-7.067,35.415-.633,46-41.679,51.885-78.641,41.726-39.239-8.146-83.412-5.8-107.9-45.212-8.308,14.2-11.174,22.962-13.26,37.808-2.289,10.875-5.612,23.227-11.721,30.42,5.26,9.455,7.836,20.972,7.582,28.478-.1,2.949,1.251,4.314-.69,6.147-9.311,8.792-30.084,8.891-45.88,12.805-10.831,1.377-49.994,6.643-55.98,3.21-4.174,1.166.68-9.682-3.494-9.913-1.428.011-1.619-1.806-3.086-1.739-9.362.426-29.545,3.174-24.665-4.363Z" transform="translate(1.22 100.314)" fill="#fff"/>
  <path id="_Ink" data-name="ðŸ– Ink" d="M306.074,0h0c-3.84,0-8.342.254-13.381.756-4.32.43-9.168,1.055-14.409,1.858-9.593,1.47-18.782,3.262-25.491,4.57-2.2.429-4.1.8-5.67,1.092-7.466,1.661-15.4,3.49-23.15,5.963a14.945,14.945,0,0,0-4.824,2.129,10.4,10.4,0,0,0-3.542,3.8,6.329,6.329,0,0,0-.692,2.577,6.41,6.41,0,0,0,.559,2.847,14.123,14.123,0,0,0-.954,2.444,13.426,13.426,0,0,0-.452,2.416,15.887,15.887,0,0,0,.315,4.766,45.92,45.92,0,0,0,3.492,9.362c.811,1.775,1.649,3.61,2.32,5.419a23.745,23.745,0,0,1,1.407,5.451,13.4,13.4,0,0,1-1.845,1.886,14.124,14.124,0,0,1-2.18,1.5l.008.016v0l.005.011a19.4,19.4,0,0,0-2.371,3.493,19.871,19.871,0,0,0-1.618,4.148c-1.027,3.6-2.269,11.141-3.365,17.792l0,.01c-.737,4.474-1.434,8.7-1.969,11.151a64.315,64.315,0,0,1-1.728,6.266c-.655,1.987-1.435,4.046-2.317,6.118a114.9,114.9,0,0,1-5.985,11.891,61.908,61.908,0,0,0-14.7-16.463,80.2,80.2,0,0,0-9.193-6.3,92.275,92.275,0,0,0-9.889-5.037,111.731,111.731,0,0,0-12.3-4.551c-3.923-1.207-8.06-2.28-12.645-3.279-8.517-1.856-17.326-3.167-25.845-4.435h0c-7.568-1.126-15.393-2.291-22.974-3.832-.505-.127-1.049-.259-1.712-.417-.744-.246-1.51-.486-2.275-.714a16.108,16.108,0,0,0-4.366-.759H82.16c-3.9-.755-7.729-1.334-11.372-1.72a103.975,103.975,0,0,0-10.885-.6c-13.814,0-24.953,3.175-33.107,9.438a36.734,36.734,0,0,0-5.925,5.714,39.2,39.2,0,0,0-4.725,7.249,47.847,47.847,0,0,0-3.4,8.882,64.369,64.369,0,0,0-1.938,10.612,1.039,1.039,0,0,0-.364-.066,1.137,1.137,0,0,0-.331.051c-.235.072-.479.155-.726.248-1.026.354-1.887.673-2.71,1.006-.068,0-.136,0-.2,0a5.056,5.056,0,0,0-3.808,1.681,9.882,9.882,0,0,0-2.177,4.331,16.463,16.463,0,0,0-.461,4.991c-.041,2.361.009,4.8.149,7.255.133,2.348.353,4.78.652,7.227A139.361,139.361,0,0,0,3.376,154.54c.443,2.451,1.006,4.926,1.72,7.567.636,2.353,1.379,4.784,2.27,7.433,1.656,4.921,3.587,9.858,5.454,14.632,2.509,6.415,5.1,13.049,7.052,19.7a92.828,92.828,0,0,1,2.4,10.09,67.652,67.652,0,0,1,1.047,10.388c-.357,8.93-.491,17.881-.4,26.6.1,8.935.434,17.88,1,26.586.584,8.913,1.427,17.822,2.505,26.478,1.1,8.858,2.486,17.7,4.107,26.283a121.746,121.746,0,0,1,6.39-19.128c1.443-3.526,2.994-7.075,4.494-10.508l.046-.1c.3-.694.617-1.413.925-2.118a.614.614,0,0,1,.575-.409.887.887,0,0,1,.711.41.807.807,0,0,1,.065.787c-.313.719-.644,1.475-.909,2.083-3.006,6.88-6.113,13.993-8.471,21.256a84.1,84.1,0,0,0-2.908,11.055c-.353,1.984-.626,4.015-.891,5.979v0c-.192,1.428-.391,2.9-.62,4.361-.2,1.264-.45,2.76-.8,4.273a50.337,50.337,0,0,0,.761,9.124,41.876,41.876,0,0,0,2.509,8.617,29.773,29.773,0,0,0,2.4,4.145,23.356,23.356,0,0,0,2.714,3.232,21.229,21.229,0,0,0,6.212,4.252,27.237,27.237,0,0,0,3.422,1.282c1.1.335,2.275.628,3.584.895,2.434.5,4.9.815,7.5,1.152,5.509.713,11.205,1.45,16.529,3.987a19.352,19.352,0,0,0,3.327,6.563,11.943,11.943,0,0,0,2.645,2.409,11.613,11.613,0,0,0,3.485,1.538,11.2,11.2,0,0,0,2.417.267,9.323,9.323,0,0,0,3.545-.66,6.98,6.98,0,0,0,2.871-2.12c.044.116.09.241.141.383.311.877.625,1.77.928,2.634l.005.015a132.492,132.492,0,0,0,6.375,15.922.309.309,0,0,0,.289.172.4.4,0,0,0,.288-.12.3.3,0,0,0,.084-.229,132.6,132.6,0,0,0-2.47-16.953c-.18-.948-.385-2.023-.578-3.062-.075-.4-.134-.821-.2-1.271a14.689,14.689,0,0,0-.622-2.973,3.646,3.646,0,0,0-1.763-2.167,2.805,2.805,0,0,0-1.19-.307c1.9-2.9,4.1-6.911,5.709-9.841l0,0c1.039-1.892,1.79-3.258,2.026-3.538,2.839-4.984,5.17-9.133,7.337-13.057.1-.169.2-.346.287-.489l.016-.027c.076-.129.155-.262.232-.393,2.321-3.189,3.029-6.845,3.778-10.717v-.007c.218-1.128.444-2.293.713-3.459.483-1.661.958-3.3,1.412-4.869,2.744-.812,5.039-1.475,7.5-1.993A52.488,52.488,0,0,1,133.9,335.5a50.5,50.5,0,0,1,8.523.72,47.6,47.6,0,0,1,8.27,2.194,3.114,3.114,0,0,0,1.133.247c-1.5,5.391-2.676,10.25-3.6,14.852A136.035,136.035,0,0,0,146,368.6a2.239,2.239,0,0,0-1.534,1.115,36.579,36.579,0,0,0-4.712,15.988,35.183,35.183,0,0,0,2.865,16.394.3.3,0,0,0,.288.171.416.416,0,0,0,.3-.13.275.275,0,0,0,.07-.221,54.064,54.064,0,0,1,.139-14.636,6.861,6.861,0,0,0,1.578.185,7.427,7.427,0,0,0,2.278-.371,10.172,10.172,0,0,0,2.173-1.019,18.559,18.559,0,0,0,3.954-3.41,38.147,38.147,0,0,0,3.3-4.29c1.04-1.548,1.92-3.042,2.492-4.03.138-.249.25-.456.352-.651a41.055,41.055,0,0,0,4.737.259,61.609,61.609,0,0,0,6.186-.334,34.415,34.415,0,0,0,5.678-.941,28.263,28.263,0,0,0,5.412-1.967,22.117,22.117,0,0,0,4.761-3.113,18.572,18.572,0,0,0,3.725-4.381c1.673-3.355,3.286-6.826,4.933-10.609,1.466-3.369,2.925-6.912,4.459-10.83,2.85-7.277,5.532-14.77,8.126-22.017,2.2-6.136,4.467-12.481,6.827-18.657,2.339-6.516,4.456-12.57,6.471-18.509.138-.444.3-.891.452-1.323h0a18.557,18.557,0,0,0,.742-2.426,6.1,6.1,0,0,0,.04-2.52,44.342,44.342,0,0,0,14.207,2.759,19.37,19.37,0,0,0,5.183-.632,10.03,10.03,0,0,0,4.008-2.077,14.177,14.177,0,0,0,2.425-2.516,19.224,19.224,0,0,0,1.832-2.986,36.123,36.123,0,0,0,2.415-6.591c.478-1.793.941-3.6,1.388-5.357v-.005c.611-2.392,1.243-4.866,1.912-7.286a23.827,23.827,0,0,0,6.325-1.272,32.909,32.909,0,0,0,6.33-2.928,27.905,27.905,0,0,0,9.743-9.23,16.321,16.321,0,0,0,1.544-3.65,21.545,21.545,0,0,0,.723-3.817,57.211,57.211,0,0,0,.078-7.891v0c-.071-1.961-.144-3.99-.059-5.942a1.4,1.4,0,0,0,.736-.521,1.806,1.806,0,0,0,.318-1.412,2.529,2.529,0,0,0,1.568-1.709c1.858-5.787,3.662-19.493-.35-26.468a9.1,9.1,0,0,0-2.167-2.6,7.344,7.344,0,0,0-3.031-1.444,5.158,5.158,0,0,0-.658-.041,6.825,6.825,0,0,0-1.591.2c.257-.83.473-1.6.631-2.155v-.005c.052-.183.1-.356.14-.492,2.76-10.122,5.627-21.231,8.765-33.96,2.8-11.355,5.549-22.919,8.209-34.1l.009-.036c1-4.224,2.043-8.591,3.07-12.884.368-2.259,1.168-5.249,2.094-8.712a131.073,131.073,0,0,0,3.48-15.51c.812-5.938.4-10.146-1.248-12.865-.052-.077-.108-.153-.162-.227l-.095-.131a14.475,14.475,0,0,0,3.953-2.345,46.355,46.355,0,0,0,3.451-3.186,36.332,36.332,0,0,1,4.409-3.909,19.583,19.583,0,0,1,3-2.4,41.866,41.866,0,0,1,3.835-2.237c2.779-1.452,5.89-2.816,9.183-4.261,5.416-2.375,11.015-4.83,15.252-7.787a26.312,26.312,0,0,0,2.9-2.319,16.356,16.356,0,0,0,2.244-2.547,11.161,11.161,0,0,0,1.446-2.815,9.6,9.6,0,0,0,.5-3.123,1.853,1.853,0,0,0,.976-1.336c.806-3.88.566-6.642-.712-8.211a3.868,3.868,0,0,0-1.506-1.122,5.893,5.893,0,0,0-2.3-.414l-.188,0a97.906,97.906,0,0,0-11.412-.864,34.1,34.1,0,0,0-10.628,1.488,14.5,14.5,0,0,0-2.78-3.834,1.1,1.1,0,0,0,.865-.4,2.988,2.988,0,0,0,.375-2.018,23.541,23.541,0,0,0-.389-2.706v0a11.054,11.054,0,0,1-.3-2.42,11.6,11.6,0,0,0-2.813-1.419A23.09,23.09,0,0,0,315.557.7,54.7,54.7,0,0,0,306.074,0ZM216.421,24.084a5.964,5.964,0,0,1,.487-1.976,6.5,6.5,0,0,1,1.07-1.656,9.129,9.129,0,0,1,1.536-1.374,14.138,14.138,0,0,1,1.885-1.13,42,42,0,0,1,8.714-2.827c.719-.175,1.4-.34,2.009-.5,5.415-1.438,10.956-2.777,16.467-3.981,5.475-1.2,11.07-2.29,16.629-3.251,5.525-.956,11.162-1.807,16.754-2.53,5.561-.719,11.229-1.33,16.846-1.816,2.762-.225,5.732-.433,8.734-.433a49.76,49.76,0,0,1,5.947.328,34.5,34.5,0,0,1,5.835,1.187c.1,1.482.228,3.235.368,5a18.691,18.691,0,0,0-4.761-2.229,17.832,17.832,0,0,0-5.222-.795,16.114,16.114,0,0,0-4.407.6c-1.931-.092-3.925-.139-5.926-.139-4.278,0-8.645.2-13.352.622-4.187.372-8.545.907-13.324,1.635-8.867,1.351-17.811,3.172-26.461,4.932h-.009c-3.306.673-6.724,1.368-10.069,2.023-1.071.241-2.148.457-3.289.686a54.828,54.828,0,0,0-9.053,2.355,19.634,19.634,0,0,0-4.05,2.1,14.409,14.409,0,0,0-3.36,3.173Zm84.368-12.212a22.413,22.413,0,0,0,4.888-.7h0c.968-.211,1.968-.43,3-.57.4-.033.807-.049,1.211-.049a14.144,14.144,0,0,1,5.494,1.081,11.3,11.3,0,0,1,2.414,1.391,9.77,9.77,0,0,1,1.969,1.992,11.538,11.538,0,0,1,1.909,4.566,7.774,7.774,0,0,1-.4,3.995,9.075,9.075,0,0,1-1.548,2.607,12.813,12.813,0,0,1-2.389,2.184,20.159,20.159,0,0,1-6.438,2.943c-2.523.969-5.119,1.841-7.867,2.763-5.533,1.858-11.254,3.779-16.308,6.544a35.821,35.821,0,0,0-6.991,4.884,27.764,27.764,0,0,0-2.938,3.106,26.09,26.09,0,0,0-2.465,3.648c-1.79-.854-3.218-1.683-4.478-2.415-3.061-1.777-5.272-3.061-9.765-3.061-.708,0-1.479.033-2.291.1a36.9,36.9,0,0,0-3.327-2.042,31.258,31.258,0,0,0-3.525-1.643,19.824,19.824,0,0,0-7.122-1.494,10.747,10.747,0,0,0-6.347,1.889,10.924,10.924,0,0,0-2.56,2.584,15.934,15.934,0,0,0-1.978,3.876,45.228,45.228,0,0,0-5,1.7,33.264,33.264,0,0,0-4.631,2.322,18.861,18.861,0,0,0-.356-6.381c-.442-2.164-1.124-4.352-1.784-6.468-1.593-5.108-3.1-9.933-.949-13.5,1.5-2.488,4.668-4.155,9.687-5.1,11.792-2.555,23.325-5.007,34.778-6.934,6.256-1.052,12-1.869,17.545-2.5,6.2-.7,11.979-1.146,17.674-1.362C300.2,11.861,300.493,11.872,300.789,11.872Zm46.328,9.352h0c-5.541-1.919-11.58-2.568-17.42-3.2-1.406-.151-2.859-.307-4.273-.478a14.516,14.516,0,0,0-.564-1.792c2.405.2,4.861.284,7.237.364,2.268.077,4.613.157,6.91.338a51.623,51.623,0,0,1,6.847.953c.075.014.207.028.359.045.493.053,1.237.134,1.4.34a.054.054,0,0,0-.038-.026c-.107,0-.117.719-.12.989v.011c0,.049,0,.085,0,.1a16.218,16.218,0,0,1-.333,2.352Zm-48.682,38.85a19.479,19.479,0,0,0-3.57-3.084,14.644,14.644,0,0,0-3.472-1.691,27.124,27.124,0,0,0-7-1.073,30.936,30.936,0,0,1-9.08-1.574c8.711-8.666,20.463-12.447,31.829-16.1,1.262-.406,2.566-.825,3.846-1.245a48.514,48.514,0,0,0,5.028-1.877,24.235,24.235,0,0,0,4.69-2.681,15.511,15.511,0,0,0,1.962-1.732,12.115,12.115,0,0,0,1.569-2.041,10.666,10.666,0,0,0,1.074-2.386,11.24,11.24,0,0,0,.477-2.767c5.053.388,10.047.952,14.842,1.679,3.627.053,5.652.789,6.018,2.185.395,1.5-1.229,3.468-2.661,4.851a29.41,29.41,0,0,1-2.931,2.447,33.209,33.209,0,0,1-2.938,1.94,67.6,67.6,0,0,1-6.66,3.637c-2.305,1.115-4.716,2.175-7.048,3.2h0a103.254,103.254,0,0,0-14.125,7.088,38.14,38.14,0,0,0-6.087,4.758,30.57,30.57,0,0,0-2.624,2.893,28.938,28.938,0,0,0-2.277,3.316,5.494,5.494,0,0,1-.855.259ZM234.751,49.58h0a13.314,13.314,0,0,1,3.912-2.521,11.115,11.115,0,0,1,4.206-.819,14.594,14.594,0,0,1,5.606,1.222l-.632.071a100.939,100.939,0,0,0-13.092,2.047Zm-65.06,150.786a.071.071,0,0,0,.073-.061,31.414,31.414,0,0,0,.268-6.855v-.022c-.018-.553-.037-1.125-.048-1.676-.021-1.1-.059-2.216-.1-3.3q-.012-.363-.025-.727a60.017,60.017,0,0,1,1.069-6.592c.46-2.1,1.047-4.25,1.744-6.4a88.744,88.744,0,0,1,5.132-12.323c1.806-3.61,3.992-7.5,6.685-11.89,2.4-3.915,4.977-7.864,7.468-11.684l0-.008c2.808-4.305,5.712-8.757,8.393-13.2,1.615-2.677,3.013-5.123,4.276-7.48,1.432-2.672,2.662-5.175,3.761-7.652,1.186-2.675,2.215-5.326,3.058-7.882a69.632,69.632,0,0,0,2.168-8.169c.29-1.514.657-3.748,1.081-6.336v0c1.225-7.469,2.9-17.7,4.565-21.838,2.607-5.584,7.923-9.3,16.252-11.368a71.135,71.135,0,0,1,11.249-1.714c3.824-.315,7.548-.434,11.149-.548,2.658-.085,5.169-.164,7.385-.319a28.738,28.738,0,0,1,5.549,3.373,10.052,10.052,0,0,1,.032,2.486,19.4,19.4,0,0,1-.4,2.4c-4.1,16.129-8.78,33.151-13.735,51.173v0c-6.876,25.009-13.987,50.87-19.711,75.138-.385,1.179-.708,2.4-1.021,3.579v0c-.159.6-.323,1.219-.492,1.82-.374,1.329-.764,2.662-1.14,3.951l0,.005c-.529,1.811-1.076,3.683-1.578,5.532-.263.97-.523,1.959-.775,2.916l-.006.022c-.179.68-.364,1.384-.55,2.083a8.54,8.54,0,0,1-.5,1.464,3.2,3.2,0,0,1-.852,1.123c-4.182.737-8.438,1.462-12.553,2.162l-.011,0h0c-6.977,1.188-14.191,2.416-21.265,3.742-1-2.652-1.9-5.136-2.756-7.594a2.49,2.49,0,0,0-2.122-1.76,1.7,1.7,0,0,0-.182.01c-.888.145-1.961.28-3.1.423h-.008a66.447,66.447,0,0,0-9.436,1.674,20.028,20.028,0,0,0-4.311,1.693,9.021,9.021,0,0,0-3.083,2.628c-11.211.3-22.606.749-33.626,1.184l-.053,0-4.61.182c-9.484.372-19.489,1.206-28.4,4.754a20.061,20.061,0,0,0-2.964-5.38c-1.273-1.926-2.657-3.863-4.111-5.758-1.387-1.806-2.884-3.633-4.45-5.43-2.891-3.316-6.07-6.608-9.72-10.061-6.779-6.414-14.188-12.421-21.352-18.23-3.825-3.1-7.779-6.307-11.587-9.534-9.013-8.3-16.5-18.153-23.734-27.677l-.65-.856c-3.618-4.762-7.359-9.686-11.188-14.413-.32-.395-.636-.806-.97-1.242-.435-.567-.884-1.152-1.357-1.715a87.853,87.853,0,0,1,2.811-11.319,60.008,60.008,0,0,1,3.824-9.212,43.861,43.861,0,0,1,4.749-7.289,36.189,36.189,0,0,1,5.586-5.55,35.069,35.069,0,0,1,6.335-4,39.81,39.81,0,0,1,7-2.626,50.944,50.944,0,0,1,7.57-1.44,70.253,70.253,0,0,1,8.055-.439,109.176,109.176,0,0,1,12.184.745c3.767.422,7.934,1.035,12.74,1.876,3.354,1.455,6.853,2.765,10.237,4.033a147.154,147.154,0,0,1,15.063,6.289,28.953,28.953,0,0,1,4.469,2.7,40.268,40.268,0,0,1,3.987,3.341c2.531,2.392,4.872,5.1,7.136,7.714,1.3,1.5,2.639,3.05,3.989,4.508,3.433,4.041,6.808,8.272,10.03,12.575,3.178,4.244,6.291,8.67,9.253,13.156.79,1.72,1.465,3.117,2.123,4.4,2.044,3.971,4.067,8.013,6.024,11.922l1.033,2.062c2.321,4.633,4.623,9.264,6.844,13.764,1.132,2.294,2.23,4.544,3.226,6.859.405.941.794,1.944,1.157,2.982l0,.016c-.023.094-.047.192-.07.288a26.864,26.864,0,0,0-.6,3.848c-.106,1.205-.152,2.479-.14,3.895a62.266,62.266,0,0,0,.7,8.1c.055.4.11.81.163,1.209l0,.037a34.49,34.49,0,0,0,1.6,7.666A.1.1,0,0,0,169.692,200.366Zm63.45,8.5h0a19.14,19.14,0,0,0,1.069-3.115c.094-.333.2-.711.307-1.066.524-1.735,1-3.452,1.446-5.048,8.864-24.815,16.645-54.266,24.171-82.747l.006-.023c2.483-9.4,5.05-19.113,7.568-28.308,2.818-10.292,5.308-18.949,7.611-26.465a25.634,25.634,0,0,0,.691-4.077,12.334,12.334,0,0,0,3.37,1.093c1.171.22,2.4.335,3.589.446a37.731,37.731,0,0,1,3.8.484,12.193,12.193,0,0,1,3.583,1.246,8.187,8.187,0,0,1,2.588,1.855,8.87,8.87,0,0,1,1.652,2.6,13.294,13.294,0,0,1,.865,3.171,22.127,22.127,0,0,1,.226,3.583c-.059,4.978-1.432,10.626-2.535,15.164v.006c-.419,1.726-.816,3.356-1.072,4.687-2.34,10.772-4.743,21.71-7.067,32.288l0,.021c-3.6,16.4-7.328,33.355-10.9,50.052-.2,1.306-.485,2.641-.762,3.932v0a51.507,51.507,0,0,0-.939,5.267,35.756,35.756,0,0,0-6.341,4.405c-2.22,1.841-4.556,3.993-6.815,6.075l0,0c-2.458,2.265-5,4.607-7.389,6.542a43.393,43.393,0,0,1-3.489,2.583,19.053,19.053,0,0,1-3.245,1.76,30.2,30.2,0,0,1-5.85,2.24c-2.084.58-4.179.992-6.133,1.35Zm-63.5-37.964h0c-1.2-3.564-2.632-7.115-4.014-10.549v0l-.03-.075a198.734,198.734,0,0,0-8.769-19.072,207.513,207.513,0,0,0-10.71-18.08A215.563,215.563,0,0,0,119.6,90.577a24.7,24.7,0,0,0-4.563-3.779,37.351,37.351,0,0,0-5.215-2.8c4.733.858,8.637,1.475,12.285,1.943a209.347,209.347,0,0,1,21.022,4.2c3.647.944,7.155,1.993,10.425,3.117,3.534,1.215,6.913,2.559,10.043,4a86.377,86.377,0,0,1,9.418,5.025,70.272,70.272,0,0,1,8.55,6.205,60.5,60.5,0,0,1,7.439,7.536,56.891,56.891,0,0,1,6.084,9.018c-2.1,3.439-4.336,6.9-6.5,10.256l0,0c-3.577,5.552-7.277,11.293-10.461,17.033-1.714,3.089-3.147,5.934-4.382,8.7a75.461,75.461,0,0,0-3.37,8.924,7.209,7.209,0,0,0-.742.943ZM10.578,116.266c-.058-.046-.118-.09-.177-.133l0,0-.085-.062.161-.093.009-.005.124-.071c0,.057-.009.113-.014.175l0,.022C10.587,116.152,10.582,116.209,10.578,116.266ZM207.162,242.749c-1.081-2.714-2.18-5.44-3.243-8.075l-.006-.016c-2.432-6.031-4.947-12.267-7.282-18.455,10.536-.268,21.778-1.866,32.65-3.411,1.77-.252,3.6-.512,5.37-.757a36.766,36.766,0,0,0,8.226-1.759,44.021,44.021,0,0,0,7.561-3.395,69.3,69.3,0,0,0,13.325-10.089,97.567,97.567,0,0,1,8.206-6.643c.211-.149.433-.315.668-.492l.005,0c1.049-.787,2.238-1.678,3.287-1.678a1.551,1.551,0,0,1,.993.347,2.92,2.92,0,0,1,.811,1.2c2,4.959,1.5,10.356,1.016,15.574l-.008.089q-.036.391-.072.78c-.144,1.026-.341,2.056-.532,3.051l0,.018c-.068.355-.138.722-.205,1.083a8.134,8.134,0,0,0-1.246,2.487c-.132.359-.267.729-.424,1.093a32.151,32.151,0,0,1-3.184,5.764,32.933,32.933,0,0,1-4.279,5.006,32.025,32.025,0,0,1-4.578,3.85,33.681,33.681,0,0,1-4.965,2.83,40.808,40.808,0,0,1-5.828,2.164,58.87,58.87,0,0,1-6.119,1.411c-4.157.746-8.518,1.164-12.736,1.568h0c-1.468.141-2.985.286-4.474.444a1.281,1.281,0,0,0-.534-.109,1.833,1.833,0,0,0-.364.039,3.676,3.676,0,0,0-.569.229,84.352,84.352,0,0,0-11.108,1.875A41.462,41.462,0,0,0,207.162,242.749Zm-30.451-28.414h0a29.372,29.372,0,0,1,6.33-2.027c2.465-.578,4.973-1.04,6.643-1.326.675,1.79,1.347,3.54,2,5.2l-.109.021-.089.018c.07,0,.143,0,.214,0,4.117,10.545,8.207,19.879,12.5,28.534-.285.2-.621.445-.946.68-2.8,2.031-7.5,5.429-10.729,5.429-.093,0-.185,0-.273-.008-1.279-3.405-2.819-6.779-4.308-10.042l0-.007c-1-2.193-2.036-4.461-2.982-6.717a100.908,100.908,0,0,1-4.5-12.98v0c-.342-1.156-.7-2.351-1.061-3.538-.052-.193-.11-.387-.166-.574-.094-.315-.192-.639-.262-.973a2.064,2.064,0,0,0-.811-1.283,2.317,2.317,0,0,0-1.357-.41Zm78.882,36.857a106.5,106.5,0,0,1,3.452-10.572,22.474,22.474,0,0,1,1.214-2.973,15.654,15.654,0,0,0,1.492-4.209,39,39,0,0,0,7.827-5.3,45.029,45.029,0,0,0,6.449-6.934c.041.734.093,1.479.143,2.2a35.859,35.859,0,0,1-.216,9.866,22.049,22.049,0,0,1-7.554,11.742,28.813,28.813,0,0,1-6.052,3.883A29.535,29.535,0,0,1,255.594,251.192Zm-20.657,25.066a36.74,36.74,0,0,1-9.268-1.411c-3.149-.831-6.22-1.891-9.19-2.916l-.014,0c-1.285-.443-2.5-.862-3.666-1.243l.3-.488c.184-.3.35-.561.514-.82,4.4-6.978,8.608-14.023,12.494-20.937.45-.814.912-1.64,1.359-2.439l.013-.022c1.038-1.855,2.112-3.772,3.109-5.687a2.988,2.988,0,0,0,.295-.8l1.96-.136.065,0c4.047-.279,8.232-.568,12.288-1.13,2.184-.3,4.158-.658,6.033-1.086a50.407,50.407,0,0,0,5.9-1.712l-.117.281a116.005,116.005,0,0,0-4.5,12.937,65.456,65.456,0,0,0-2.181,8.6h0a63.482,63.482,0,0,1-2.381,9.2,22.91,22.91,0,0,1-2,4.158,16.928,16.928,0,0,1-2.969,3.6,12.72,12.72,0,0,1-3.8,1.584A18.021,18.021,0,0,1,234.937,276.259ZM194,252.736h0a9.059,9.059,0,0,0,2.17-.254,23.063,23.063,0,0,0,4.236-1.61,42.638,42.638,0,0,0,3.952-2.227c.443-.306.868-.566,1.278-.817a6.373,6.373,0,0,0,2.04-1.616,1.872,1.872,0,0,0,.312-1.062,3.708,3.708,0,0,0-.371-1.468,51.739,51.739,0,0,1,9.151-2.575,93.927,93.927,0,0,1,9.43-1.252l-.074.147-.061.122c-.205.407-.418.828-.65,1.217-1.042,1.916-2.106,3.841-3.162,5.721-3.984,7.1-8.128,14.076-12.316,20.747-.144.23-.294.471-.425.684-1.577,2.549-3.208,5.185-6.348,5.849a69.875,69.875,0,0,1-7.4.39,75.144,75.144,0,0,1-8.419-.482,82.235,82.235,0,0,1-8.33-1.388,97.765,97.765,0,0,1-22.853-8.221c-2.266-1.239-4.553-2.592-6.8-4.022,3.7-.772,7.456-1.546,11.093-2.294l.043-.009c4.465-.919,9.083-1.869,13.638-2.827,1.815-.432,3.686-.789,5.5-1.134h0a74.09,74.09,0,0,0,9.216-2.171,2.246,2.246,0,0,0,1.331-1.386,2.125,2.125,0,0,0,1.394,1.529A6.526,6.526,0,0,0,194,252.736Zm-2.874-2.14h0a2.669,2.669,0,0,1-.8-.542.05.05,0,0,0-.012-.008c0-.084,0-.168-.006-.263.278.289.553.562.817.813Zm-74.29,84.614c3.074-10.744,6.1-21.695,9.035-32.285l.01-.036c2.14-7.735,4.354-15.734,6.567-23.59l1.426-5.114,1.51-5.415a22.428,22.428,0,0,0,.622-2.29h0a19.1,19.1,0,0,1,.821-2.839,73.279,73.279,0,0,1,7.938-2.058c.788-.167,1.6-.336,2.354-.494a68.273,68.273,0,0,0,8.121,5.554,74.041,74.041,0,0,0,10.146,5.389,75.814,75.814,0,0,0,10.127,3.517,18.381,18.381,0,0,0-1.237,2.787v0c-.183.483-.357.94-.54,1.358-3.224,7.448-7.419,17.278-11.272,27.261-3.888,10.073-7.013,19.2-9.553,27.892a11.648,11.648,0,0,0-3.207-1.324c-1.206-.339-2.459-.59-3.565-.811h0c-.762-.152-1.419-.284-1.93-.418a55.728,55.728,0,0,0-9.231-.782,48.4,48.4,0,0,0-9.309.877A38.907,38.907,0,0,0,116.838,335.21ZM95.859,294.646a.878.878,0,0,1-.75-.433.688.688,0,0,1,.037-.724,37.426,37.426,0,0,0,2.621-5.15c.765-1.8,1.458-3.676,2.128-5.494a66.165,66.165,0,0,1,4.07-9.5,24.6,24.6,0,0,1,2.886-4.155,19.178,19.178,0,0,1,3.907-3.444.73.73,0,0,1,.406-.132.816.816,0,0,1,.384,1.482,17.973,17.973,0,0,0-3.741,3.326,23.818,23.818,0,0,0-2.772,4.058,65.61,65.61,0,0,0-3.922,9.318c-.652,1.8-1.327,3.667-2.07,5.435a35.457,35.457,0,0,1-2.545,5.042A.736.736,0,0,1,95.859,294.646Zm88.427,36.023a.909.909,0,0,1-.685-.32.771.771,0,0,1-.16-.659c.542-2.821,1.07-5.695,1.58-8.473l0-.022v0c1.612-8.773,3.279-17.844,5.629-26.614a.709.709,0,0,1,.715-.554.87.87,0,0,1,.681.322.715.715,0,0,1,.114.647c-2.352,8.775-4.019,17.85-5.632,26.627-.511,2.782-1.039,5.658-1.583,8.485A.646.646,0,0,1,184.286,330.668ZM79.592,357.2a.844.844,0,0,1-.681-.324.669.669,0,0,1-.076-.631c.727-2.177,1.393-4.139,2.181-6.094a38.449,38.449,0,0,1,2.858-5.8.813.813,0,0,1,.689-.385.745.745,0,0,1,.382.1,43.289,43.289,0,0,1,4.929,3.616h0c1.25,1.011,2.542,2.057,3.906,2.968a12.668,12.668,0,0,0,2.007,1.12,7.159,7.159,0,0,0,2.214.586c.191.017.387.026.581.026a7.85,7.85,0,0,0,2.57-.46,14.526,14.526,0,0,0,2.39-1.1.783.783,0,0,1,.386-.107.827.827,0,0,1,.761.634.7.7,0,0,1-.357.823,14.327,14.327,0,0,1-2.868,1.244,10.128,10.128,0,0,1-2.912.447,8.873,8.873,0,0,1-2.262-.293,9.712,9.712,0,0,1-2.259-.923,36.567,36.567,0,0,1-5.167-3.745,46.355,46.355,0,0,0-4.051-3.072,39.59,39.59,0,0,0-2.505,5.295c-.7,1.785-1.306,3.561-1.964,5.531A.763.763,0,0,1,79.592,357.2Zm80.736-2.42a4.425,4.425,0,0,1-2.315-.622,5.441,5.441,0,0,1-1.639-1.593,13.116,13.116,0,0,1-1.789-4.458.736.736,0,0,1,.133-.652.886.886,0,0,1,.683-.322.683.683,0,0,1,.694.559,12.759,12.759,0,0,0,1.35,3.672,4.242,4.242,0,0,0,1.232,1.324,3.165,3.165,0,0,0,1.776.519,4.283,4.283,0,0,0,.689-.058,19.592,19.592,0,0,0,5.47-2.112c.759-.383,1.544-.779,2.31-1.11a1.038,1.038,0,0,1,.408-.087.738.738,0,0,1,.742.554c.523,1.808-.339,3.177-1.432,4.654a.8.8,0,0,1-.658.336.889.889,0,0,1-.779-.446.627.627,0,0,1,.085-.679l.174-.233a5.112,5.112,0,0,0,1.176-2.253c-.442.215-.9.447-1.339.671-2.189,1.113-4.452,2.264-6.81,2.335Z" transform="translate(351.495 517.83) rotate(180)"/>
  <g id="Head" transform="translate(167.599 0)">
    <path id="_Background-2" data-name="ðŸŽ¨ Background" d="M57.328.095C18.661-1.8,1.212,25.382.083,37.524c-.783,8.429,4.2,18.144,4.2,25.676,0,3.845-4.714,12.1-2.519,17.7,4.885,12.472,15.227,26.314,28.406,26.314S60.5,110.856,75.067,90.035c1.366-1.954,18.649-13.057,20.328-23.608C99.577,40.147,84.919,1.449,57.328.095Z" transform="translate(13.445 18.928)" fill="#fff"/>
    <path id="_Ink-2" data-name="ðŸ– Ink" d="M84.441,0c-1.213,0-2.508.072-4.073.227a61.888,61.888,0,0,0-9.8,1.666l-.515.137a14.39,14.39,0,0,0-3.873,1.478,4.6,4.6,0,0,0-1.5,1.5,6.068,6.068,0,0,0-.754,1.987,1.5,1.5,0,0,0,.285,1.229,1.226,1.226,0,0,0,.948.466h.164c.142,0,.293.005.474.017l.147.01h.007a.082.082,0,0,0,.025,0c.045.007.089.017.132.026s.081.018.123.025a4.675,4.675,0,0,0,.772.065,6.117,6.117,0,0,0,1.971-.368l.115-.039a45.581,45.581,0,0,1,4.661-1.386c1.581-.36,3.258-.665,4.982-.907l.166-.02.051-.008.025,0A.031.031,0,0,0,79,6.1l.492-.061c.389-.046.781-.087,1.161-.127h0c.709-.071,1.43-.127,2.143-.168.413-.023.832-.035,1.244-.035,11.016,0,21.347,8.687,24.566,20.657a36.422,36.422,0,0,1,.872,12.6,3.006,3.006,0,0,0-.168,1.016c0,.2.011.4.023.578-.22,2.15-.531,4.337-.832,6.452-.268,1.883-.545,3.83-.757,5.748A107.707,107.707,0,0,0,107.03,67.1a59.6,59.6,0,0,0,.638,7.054l.12.842a8.19,8.19,0,0,0-4,2.029A8.187,8.187,0,0,0,99.7,75.932a7.254,7.254,0,0,0-3.817,1.049,9.1,9.1,0,0,0-4.773-1.334,8.248,8.248,0,0,0-4.294,1.146,7.467,7.467,0,0,0-2-1.015,7.051,7.051,0,0,0-2.21-.358,6.848,6.848,0,0,0-1.461.158,6.544,6.544,0,0,0-2.566,1.215,7.469,7.469,0,0,0-1.291-.115c-.121,0-.244,0-.365.009l-.114-.064A8.429,8.429,0,0,0,72.9,75.557c-.073,0-.148,0-.221,0a9.815,9.815,0,0,0-3.206.648A9.114,9.114,0,0,0,65.9,74.937a8.279,8.279,0,0,0-1.031-.064,7.907,7.907,0,0,0-4.418,1.3A11.228,11.228,0,0,0,54.9,74.734a11.555,11.555,0,0,0-3.868.661,8.687,8.687,0,0,0-2.518-2.688A5.624,5.624,0,0,0,48.7,70.69a8.2,8.2,0,0,0-.832-2.976,5.318,5.318,0,0,0,.353-3.427,8.443,8.443,0,0,0-2.708-4.435,8.326,8.326,0,0,0-4.125-6.83,3.409,3.409,0,0,0-.375-.186,1.851,1.851,0,0,0-.391-.393,4.567,4.567,0,0,0-3.168-1.121,7.619,7.619,0,0,0-2.89.6l-.043,0h0l-.07,0h-.065a1.639,1.639,0,0,0-1.41.663,6.626,6.626,0,0,1-.862-.1,12,12,0,0,1-3.156-1.062C26.7,50.264,25.374,48.176,25,45.213a8.815,8.815,0,0,1,2.753-7.925,7.532,7.532,0,0,1,1.856-1.182,8.838,8.838,0,0,1,2.105-.647,6.058,6.058,0,0,1,1.052-.077c.165,0,.332,0,.493.007h.008c.16,0,.325.007.485.007a4.5,4.5,0,0,0,1.3-.15,2.344,2.344,0,0,0,1.126-.737,1.064,1.064,0,0,0,.268-1.012,2.328,2.328,0,0,0-2.079-1.73,57.72,57.72,0,0,1,4.686-5.029c.354-.332.716-.668,1.066-.992l.013-.012A56.841,56.841,0,0,0,44.4,21.489a35.071,35.071,0,0,0,2.441-3.105,21.613,21.613,0,0,0,1.955-3.424c.477-1.065.889-2.175,1.287-3.247v0c.122-.328.248-.667.374-1l.1-.248c.066-.167.136-.336.2-.5a8.95,8.95,0,0,0,.651-2,3.2,3.2,0,0,0,0-1.013,2.99,2.99,0,0,0-.382-1.038,2.541,2.541,0,0,0-.757-.783,1.9,1.9,0,0,0-1.038-.351,1.321,1.321,0,0,0-.17.011c-2.2.281-2.9,1.808-3.541,3.625-.216.617-.412,1.251-.6,1.865-.252.811-.512,1.65-.818,2.458-.093.243-.2.5-.326.781a4.137,4.137,0,0,0-1.109-.149,4.927,4.927,0,0,0-2.61.785,9.006,9.006,0,0,0-3.617-.765h-.149a8.682,8.682,0,0,0-4.583,1.35l-.062.016-.015,0h0c-.078.02-.159.041-.237.064a7.206,7.206,0,0,0-2.582-.479,6.438,6.438,0,0,0-3.66,1.1,6.719,6.719,0,0,0-1.505,1.407,6.58,6.58,0,0,0-.96,1.7,6.516,6.516,0,0,0-2.243.434,5.573,5.573,0,0,0-1.916,1.228,6.066,6.066,0,0,0-1.2,1.687,6.375,6.375,0,0,0-.575,1.942,6.623,6.623,0,0,0-1.9.683,6.247,6.247,0,0,0-1.637,1.293,6.034,6.034,0,0,0-1.473,3.231A6.326,6.326,0,0,0,7.876,32.03a5.613,5.613,0,0,0-.654,2.1,5.732,5.732,0,0,0,.17,2.087l-.093.135a6.159,6.159,0,0,0-2.1,1.722,4.74,4.74,0,0,0-.955,2.593,5,5,0,0,0,.183,1.7,5.1,5.1,0,0,0,.14,1.813,7.77,7.77,0,0,0-1.4,1.842,8.093,8.093,0,0,0-.808,2.155A7.827,7.827,0,0,0,2.2,50.471a7.213,7.213,0,0,0,.539,2.242,7.866,7.866,0,0,0-2,4.252,7.571,7.571,0,0,0,.038,2.356,6.824,6.824,0,0,0,.8,2.224,6.8,6.8,0,0,0-1.23,2.229A7.092,7.092,0,0,0,.01,66.362a9.229,9.229,0,0,0,.774,3.181A16.873,16.873,0,0,0,2.4,72.4a5.308,5.308,0,0,0-1.044,1.765A5.645,5.645,0,0,0,1.026,76.2a6.406,6.406,0,0,0,.736,2.76A10.436,10.436,0,0,0,3.449,81.29a8.379,8.379,0,0,0-.011,5.215,8.832,8.832,0,0,0,2.97,4.256,4.858,4.858,0,0,0-.6,3.284A5.279,5.279,0,0,0,7.08,96.689a10.67,10.67,0,0,0,2.277,1.931,4.827,4.827,0,0,0,.3,3.536,6.071,6.071,0,0,0,1.533,1.973,12.493,12.493,0,0,0,2.072,1.428,5.607,5.607,0,0,0,.605,1.972,6.287,6.287,0,0,0,1.239,1.654,5.867,5.867,0,0,0,1.68,1.138,4.737,4.737,0,0,0,1.927.424,4.261,4.261,0,0,0,2.075-.539,3.952,3.952,0,0,0,.565,3.377,5.313,5.313,0,0,0,1.565,1.545,4.847,4.847,0,0,0,2.069.752,7.775,7.775,0,0,0,1.24,2.318,8.6,8.6,0,0,0,1.9,1.8,8.752,8.752,0,0,0,4.939,1.581,7.73,7.73,0,0,0,1.819-.215,7.776,7.776,0,0,0,2.865,2.377,8.272,8.272,0,0,0,3.6.828,7.944,7.944,0,0,0,2.769-.492,12.33,12.33,0,0,0,3.656,1.934,12.7,12.7,0,0,0,3.965.622,14.913,14.913,0,0,0,4.7-.786,5.846,5.846,0,0,0,2.394,1.6,8.346,8.346,0,0,0,2.894.507c.168,0,.337,0,.5-.015a15.552,15.552,0,0,0,4.28-1.087,15.106,15.106,0,0,1,4.35-1.086c.193-.009.394-.013.6-.013a27.668,27.668,0,0,1,3.474.293h.007a27.616,27.616,0,0,0,3.458.292,11.227,11.227,0,0,0,1.791-.134,9.465,9.465,0,0,0,2.8-.908,7.159,7.159,0,0,0,2.281-1.805,10.547,10.547,0,0,0,2.9.405,10.858,10.858,0,0,0,2.493-.292,11.189,11.189,0,0,0,6.276-4.054,6.524,6.524,0,0,0,1,.076,7.635,7.635,0,0,0,4.333-1.414A7.13,7.13,0,0,0,105,114.6a8.876,8.876,0,0,0,3.112-.683,9.7,9.7,0,0,0,2.711-1.691,8.651,8.651,0,0,0,2.971-5.5,6.857,6.857,0,0,0,4.1-3.184,9.579,9.579,0,0,0,1.044-5.905,5.5,5.5,0,0,0,2.306-2.293,8.866,8.866,0,0,0,1-3.273,5.764,5.764,0,0,0,1.962-2.722,6.982,6.982,0,0,0,.3-3.438,3.955,3.955,0,0,0,1.595-1.821,5.878,5.878,0,0,0,.533-2.461c0-.453-.04-.894-.076-1.32a6.49,6.49,0,0,1,.234-3.059,7.749,7.749,0,0,0,.5-1.878,5.931,5.931,0,0,0-.09-1.925l-.029-.135c-.047-.213-.089-.427-.129-.655A4.005,4.005,0,0,0,128,71.426a6.131,6.131,0,0,0,.622-2.8,8.221,8.221,0,0,0-.544-2.814,5.6,5.6,0,0,0-.178-3.465,6.387,6.387,0,0,0,.912-1.932,6.135,6.135,0,0,0,.206-2.172,6.7,6.7,0,0,0-2.065-4.275,7.225,7.225,0,0,0-.4-3.432,7.746,7.746,0,0,0-1.9-2.925,6.016,6.016,0,0,0-.716-4.095,5.641,5.641,0,0,0-2.081-2.091,6.715,6.715,0,0,0-.33-2.324,7.441,7.441,0,0,0-1.736-2.887,6.374,6.374,0,0,0-.059-2.264,6.729,6.729,0,0,0-.824-2.124,6.019,6.019,0,0,0-3.605-2.772,3.235,3.235,0,0,0-.761-.108,32.661,32.661,0,0,0-2.062-8.42,34.7,34.7,0,0,0-2.427-4.969,34.294,34.294,0,0,0-3.189-4.514,32.023,32.023,0,0,0-8.392-7.141,29.232,29.232,0,0,0-5-2.321A28.383,28.383,0,0,0,88.116.255,25.148,25.148,0,0,0,84.441,0ZM34.875,41.568a1.378,1.378,0,0,0-1.289.832,9.828,9.828,0,0,1-1.232,2.048c-.081-.114-.154-.231-.238-.373l-.076-.129-.015-.025c-.051-.086-.1-.175-.149-.266a1.838,1.838,0,0,0-.065-.233l-.009-.029a1.955,1.955,0,0,0-1.288-1.261,1.234,1.234,0,0,0-.407-.07,1.368,1.368,0,0,0-.868.331,1.812,1.812,0,0,0-.546.771,1.627,1.627,0,0,0,.242,1.539,3.229,3.229,0,0,0,1.294,1.027,2.985,2.985,0,0,1-.476.039,2.953,2.953,0,0,1-2.162-.961.139.139,0,0,0-.1-.047.165.165,0,0,0-.161.157,2.329,2.329,0,0,0,.268,1.206,2.921,2.921,0,0,0,.791.928,4.259,4.259,0,0,0,2.326.867c.08,0,.161.007.24.007a4.512,4.512,0,0,0,1.7-.341,6.147,6.147,0,0,0,1.487-.887,12.368,12.368,0,0,0,2.348-2.6,1.37,1.37,0,0,0,.125-1.479A2.056,2.056,0,0,0,34.875,41.568Z" transform="translate(129.039 127.952) rotate(180)"/>
    <path id="_Ink-3" data-name="ðŸ– Ink" d="M26.861,0a9.731,9.731,0,0,0-5.386,1.591,10.259,10.259,0,0,0-2.228,1.921A6.924,6.924,0,0,0,17.4,8.138a.759.759,0,0,0,.18.484.847.847,0,0,0,.45.27.871.871,0,0,0,.2.023.8.8,0,0,0,.328-.069.7.7,0,0,0,.347-.341c.162-.212.375-.49.589-.759,1.612-1.987,3.162-3.416,5.487-3.927a6.523,6.523,0,0,1,1.4-.152,6.851,6.851,0,0,1,2.36.426,8.028,8.028,0,0,1,3.3,2.318,1.775,1.775,0,0,0,1.35.666h.012a2.077,2.077,0,0,0,1.436-.635,2.235,2.235,0,0,0,.671-1.46,1.951,1.951,0,0,0-.555-1.434,11.125,11.125,0,0,0-2.342-1.905A11.342,11.342,0,0,0,29.859.43,10.79,10.79,0,0,0,26.861,0ZM29.9,14.169h0a8.918,8.918,0,0,0-3.176.639,16.046,16.046,0,0,0-3.735,2.116,1.433,1.433,0,0,0-.521.828,1.712,1.712,0,0,0,.074.929,2.114,2.114,0,0,0,.629.908,1.532,1.532,0,0,0,.98.382,1.392,1.392,0,0,0,.758-.232l.247-.19.009-.007c1.3-1,3.259-2.516,5.14-2.516a3.071,3.071,0,0,1,2.287,1.013,3.373,3.373,0,0,1,.642,2.719C32.8,22.87,30.5,24.411,29.8,24.833a.639.639,0,0,0-.173.735.953.953,0,0,0,.928.659,1.3,1.3,0,0,0,.219-.019,6.935,6.935,0,0,0,2.436-.879A5.524,5.524,0,0,0,34.85,23.82a5.987,5.987,0,0,0,1.046-4,6.39,6.39,0,0,0-1.743-3.907A5.776,5.776,0,0,0,29.9,14.169Zm-24.42,9.79a1.222,1.222,0,0,0-.354.052.718.718,0,0,0-.484.417,6.122,6.122,0,0,0,.3,4.464A9.061,9.061,0,0,0,8.2,32.987a5.676,5.676,0,0,0,2.689.692,5.393,5.393,0,0,0,2.592-.668,6.743,6.743,0,0,0,1.791-1.47,18.537,18.537,0,0,0,1.389-1.847c.183-.266.372-.541.565-.808a1.625,1.625,0,0,0,.274-1.513,1.957,1.957,0,0,0-1.112-1.146,2.132,2.132,0,0,0-.819-.168,1.872,1.872,0,0,0-.731.145,1.963,1.963,0,0,0-1.054,1.112,5.836,5.836,0,0,1-2.009,2.663,2.149,2.149,0,0,1-2.155.164,7.036,7.036,0,0,1-2.507-2.5A4.888,4.888,0,0,1,6.3,24.73a.661.661,0,0,0-.214-.556.835.835,0,0,0-.465-.206A1.1,1.1,0,0,0,5.479,23.959Zm36.981,3.6a1.6,1.6,0,0,0-.46.074,1.74,1.74,0,0,0-.718.429,1.428,1.428,0,0,0-.4.722,2.954,2.954,0,0,1-1.039,1.727,2.112,2.112,0,0,1-1.307.465,2.133,2.133,0,0,1-.351-.029A3.185,3.185,0,0,1,36.4,29.874a3.911,3.911,0,0,1-.375-.545l-.011-.018a3.981,3.981,0,0,0-.741-.971.723.723,0,0,0-.459-.172.686.686,0,0,0-.2.032,2.11,2.11,0,0,0-.79,1.713A3.139,3.139,0,0,0,34.4,31.5,6.284,6.284,0,0,0,37.769,33.9a4.784,4.784,0,0,0,1,.106,5.119,5.119,0,0,0,2.941-.955A5.575,5.575,0,0,0,44,29.556a1.854,1.854,0,0,0-.093-1.031,1.446,1.446,0,0,0-.675-.75A1.607,1.607,0,0,0,42.46,27.556ZM.876,34.352a.426.426,0,0,0-.055,0,.518.518,0,0,0-.269.131A1.954,1.954,0,0,0,0,36.1,6.961,6.961,0,0,0,.71,38.8a14.668,14.668,0,0,0,3.118,4.279,15.164,15.164,0,0,0,4.9,2.982,10.556,10.556,0,0,0,3.495.769c.072,0,.145,0,.216,0a4.2,4.2,0,0,0,1.3-.247,3.421,3.421,0,0,0,1.158-.719,2.144,2.144,0,0,0,.642-1.567,2.236,2.236,0,0,0-.645-1.6,3.318,3.318,0,0,0-1.371-.8,7.982,7.982,0,0,0-1.5-.267,13.628,13.628,0,0,1-1.458-.215,13.715,13.715,0,0,1-3.522-1.284,13.034,13.034,0,0,1-3.3-2.336c-.215-.23-.42-.474-.618-.71l-.005-.006c-.184-.219-.358-.426-.544-.628-.206-.225-.4-.451-.622-.724a3.078,3.078,0,0,1-.176-.31c-.045-.094-.088-.18-.133-.264-.082-.155-.161-.29-.235-.4-.147-.246-.222-.3-.282-.332A.634.634,0,0,0,.876,34.352Zm43.668.559a.5.5,0,0,0-.082.007.493.493,0,0,0-.251.122.471.471,0,0,0-.141.243,7.422,7.422,0,0,1-3.991,5.492,17.089,17.089,0,0,1-3.718,1.249c-.358.085-.743.141-1.116.2l-.017,0a4.7,4.7,0,0,0-3.221,1.357,2.706,2.706,0,0,0-.5.978,2.491,2.491,0,0,0-.061,1.053,2.162,2.162,0,0,0,1.176,1.6,3.542,3.542,0,0,0,1.642.375,10.76,10.76,0,0,0,3.945-1.1l.087-.037,0,0,.288-.122A12.949,12.949,0,0,0,43.1,43.315a9.738,9.738,0,0,0,2.32-4.282,5.132,5.132,0,0,0-.468-3.9.463.463,0,0,0-.212-.186A.488.488,0,0,0,44.544,34.911Z" transform="translate(66.282 106.955) rotate(180)"/>
  </g>
</svg>
