<svg xmlns="http://www.w3.org/2000/svg" width="335.092" height="501.833" viewBox="0 0 335.092 501.833">
  <g id="Illustrasi-5" transform="translate(106.172)">
    <path id="_Background" data-name="ðŸŽ¨ Background" d="M89.373,375.849h-.085c-3.362,0-6.6-.084-9.619-.249a107.6,107.6,0,0,1-11.608-1.2,40.319,40.319,0,0,1-10.172-2.835,13.276,13.276,0,0,1-3.478-2.243,6.2,6.2,0,0,1-1.835-2.908,14.773,14.773,0,0,1-1.9-7.582,11.847,11.847,0,0,1,.712-3.871,8.734,8.734,0,0,1,2.068-3.232,28.059,28.059,0,0,1,.82-12.1,29.514,29.514,0,0,1,2.339-5.759,27.785,27.785,0,0,1,3.534-5.133l.013.019a64.472,64.472,0,0,0,4.7-7.946,19.7,19.7,0,0,0,1.97-6.609,19.334,19.334,0,0,0-.669-6.878,59.954,59.954,0,0,0-3.215-8.755c-1.186-.045-2.432-.089-3.532-.128-4.692-.165-9.543-.336-14.3-.739-2.564-.217-4.888-.482-7.1-.81-2.49-.368-4.778-.806-6.993-1.336l.388-2.322c-.369-.1-2.336-.615-2.766-.726.011.087.032.235.058.422l0,.014v0c.107.765.286,2.045.281,2.358a1.833,1.833,0,0,1-1.194.593.662.662,0,0,1-.679-.614c-3.846-16.465-7.517-33.022-11.067-49.035-2.476-11.167-5.036-22.714-7.64-34.164-.423-1.794-.864-3.616-1.33-5.544-1.684-6.965-3.594-14.86-4.99-22.841A116.109,116.109,0,0,1,.046,159.846c.068-1.967.212-3.885.429-5.7a54.89,54.89,0,0,1,.931-5.486,45.038,45.038,0,0,1,1.5-5.215,38.2,38.2,0,0,1,2.126-4.887,34.127,34.127,0,0,1,2.819-4.5,32.755,32.755,0,0,1,3.575-4.064,34.226,34.226,0,0,1,4.394-3.569,38.872,38.872,0,0,1,5.277-3.018l-.675-2.884c-1.805,0-2.53-1.97-3.358-4.753-1.662-4.488-1.26-9.321,1.2-14.364a33.591,33.591,0,0,1,4.053-6.274,48.087,48.087,0,0,1,4.94-5.242c9.13-9.156,17.557-19.318,25.706-29.146l.1-.117c5.74-6.991,11.4-13.822,17.521-20.547A196.935,196.935,0,0,1,90.821,20.465a120.4,120.4,0,0,1,11.154-8.207c1.944-1.255,3.907-2.428,5.837-3.486,2-1.1,4.021-2.1,6.01-2.992,2.056-.918,4.137-1.738,6.184-2.435a65.33,65.33,0,0,1,6.359-1.817A60.426,60.426,0,0,1,132.9.392a57.675,57.675,0,0,1,15.825.331L148.589,2.4c1.453.183,2.95.417,4.4.643h0A67.272,67.272,0,0,0,163.253,4.11a26.218,26.218,0,0,0,4.742-.4,61.025,61.025,0,0,1,10.4-.888,64.273,64.273,0,0,1,27.228,6.1,61.031,61.031,0,0,1,11.884,7.339,56.194,56.194,0,0,1,9.808,9.949l.5-3.3c.047-.311.157-.6.649-.6h.04c.613,0,.941.5,1.181.991a40.031,40.031,0,0,1,7.719,4.1,46.85,46.85,0,0,1,6.685,5.548,60.217,60.217,0,0,1,5.766,6.694,81.251,81.251,0,0,1,4.96,7.54A132.155,132.155,0,0,1,262.773,63.6c2.293,5.567,4.316,11.208,6.1,16.185l.014.04c.412,1.147.8,2.231,1.191,3.31a18.477,18.477,0,0,1,.687,3.584,2.787,2.787,0,0,1-.088,1.129l-1.352.807A142.734,142.734,0,0,1,286.3,118.944,341.72,341.72,0,0,1,297.7,151.21a28.2,28.2,0,0,1,1.243,3.959,12.345,12.345,0,0,1,.328,3.42,7.779,7.779,0,0,1-.767,3,9.256,9.256,0,0,1-2.042,2.694A105.385,105.385,0,0,1,313.181,176.6a67.374,67.374,0,0,1,12.482,14.893,46.465,46.465,0,0,1,3.938,8.267,38.474,38.474,0,0,1,2.022,8.737,36.123,36.123,0,0,1-.18,9.15,38.368,38.368,0,0,1-1.005,4.711,42.2,42.2,0,0,1-1.663,4.793,56.858,56.858,0,0,1-5.319,7.856,75.334,75.334,0,0,1-6.7,7.266c-2.345,2.244-4.98,4.51-7.831,6.735-2.65,2.068-5.583,4.175-8.716,6.263-5.414,3.606-11.661,7.317-19.1,11.344-6.571,3.558-13.229,6.916-19.668,10.162l0,0c-3.943,1.988-7.668,3.867-11.3,5.752a116.965,116.965,0,0,1-12.86,5.622h0c-4.289,1.683-8.725,3.423-12.9,5.537a56.731,56.731,0,0,0-6.035,3.493,38.491,38.491,0,0,0-5.38,4.3,7.671,7.671,0,0,1-1.106,1.313,1.829,1.829,0,0,1-1.063.591.525.525,0,0,1-.07,0,1.135,1.135,0,0,1-.166.012h0c-.728,0-1.547-.7-2.435-2.069a35.753,35.753,0,0,1-3.191-7.066c-.96-2.7-1.918-5.891-2.77-9.216-1.619-6.321-2.514-11.808-2.083-12.764a28.517,28.517,0,0,1-4.961,1.236c-1.69.281-3.435.467-5.124.647h-.007c-1.849.2-3.76.4-5.6.729a6.627,6.627,0,0,0,.483.817c.574.88,1.225,1.877.366,2.735a46.939,46.939,0,0,1-1.213,10.72,14.115,14.115,0,0,1,2.212-.194c1.444,0,2.243.314,2.4.626a.235.235,0,0,1-.012.241c-.151.241-.687.385-1.434.385a11.543,11.543,0,0,1-3.067-.516l-.063.592c-.186,1.742-.533,4.985-.675,6.3a11.147,11.147,0,0,1,4.087-.832,3.585,3.585,0,0,1,2.515.723c-.165.531-.745.778-1.827.778a19.1,19.1,0,0,1-1.967-.147h0l-.03,0a18.5,18.5,0,0,0-1.89-.144,3.368,3.368,0,0,0-.911.1c-.641,4.76-1.01,9.551-1.367,14.184-.2,2.567-.4,5.221-.651,7.846a21.89,21.89,0,0,0,4.147,3.033c1.49.868,3.084,1.64,4.626,2.387,1.736.841,3.532,1.71,5.166,2.713a22.123,22.123,0,0,1,2.341,1.635,15.754,15.754,0,0,1,2.057,1.973,9.688,9.688,0,0,1,2.628,7.635,9.921,9.921,0,0,1-.386,1.967,9.638,9.638,0,0,1-.782,1.853,9.2,9.2,0,0,1-2.733,3.068,5.306,5.306,0,0,1,1.223,2.719,6.334,6.334,0,0,1-.288,2.916,6.9,6.9,0,0,1-1.721,2.74,5.928,5.928,0,0,1-2.85,1.558,18.236,18.236,0,0,1-4.2.462c-4.065,0-8.179-1.142-12.157-2.247l-.1-.027-.939-.26c-9.4-3.1-19.251-7.938-30.1-14.783a21.249,21.249,0,0,1-9.011-11.857c-11.008-33.985-13.954-57.1-8.756-68.691a8.728,8.728,0,0,1,5.329-1.46,9.834,9.834,0,0,0,3.681-.625,5.377,5.377,0,0,0,1.849-1.252,7.953,7.953,0,0,0,1.582-2.9c-4.278-.421-9.082-.481-14.167-.544a173.622,173.622,0,0,1-17.6-.807,52.773,52.773,0,0,1-8.005-1.5,32.425,32.425,0,0,1-3.58-1.211,23.811,23.811,0,0,1-3.213-1.593l.4-.859a24.4,24.4,0,0,1-3.194-3.233c-.437-.492-.814-.917-1.071-1.181.837,10.083,1.548,19.853,2.114,29.038.623,10.1,1.092,19.857,1.394,28.988,2.081,3.506,3.877,7.187,5.842,11.29l.065.064c1.368,1.345,3.657,3.6,2.281,5.091l0,.006c.481,1.131,11.826,27.851,15.348,41.516,1.938.082,3.066,1.955,3.671,3.511a15.146,15.146,0,0,1,.812,3.156,17.392,17.392,0,0,1,.195,3.138c-.517,6.978-9.411,7.753-17.258,8.437l-.133.012a157.383,157.383,0,0,1-16.4.86h-.083ZM229.506,256.124a1.577,1.577,0,0,0-1.124.465,1.614,1.614,0,0,0-.469,1.154l1.593-.005ZM89,154.042l-1.738,2.431c4.252,4.461,8.2,8.993,11.739,13.471l2.686-1.236c-1.3-6.614-5.33-11.275-12.687-14.666Zm137.787-53.977-1.49,2.691c-2.806,5.069-6.191,10.057-9.465,14.88-7.227,10.647-14.7,21.657-17,34.824-.265,1.618-.383,7.343-.384,7.4l2.142-.873a215.14,215.14,0,0,1,22.082-7.184l.018-.005c2.828-.808,5.753-1.644,8.628-2.516,1.17-.313,2.334-.68,3.46-1.034h0a32.372,32.372,0,0,1,8.027-1.81l.826-.042.414-.717c3.748-6.5.931-12.674-2.277-18.442a105.936,105.936,0,0,0-6.808-11.988l0,0a97.166,97.166,0,0,1-6.94-12.358ZM83.569,93.031h0l-2.232,1.253A45.619,45.619,0,0,1,73.508,97.9l-3.447,1.154L73.3,100.7a31.78,31.78,0,0,1,6.4,4.356l1.625,1.4.784-2A23.377,23.377,0,0,0,83.6,95.591l-.033-2.56Z" transform="translate(-104.904 124.97)" fill="#fff"/>
    <path id="_Ink" data-name="ðŸ– Ink" d="M91.062,378.892a159.394,159.394,0,0,1-20.691-1.358,44.359,44.359,0,0,1-5.106-.718,26.069,26.069,0,0,1-4.922-1.493,16.513,16.513,0,0,1-4.289-2.605,13.286,13.286,0,0,1-3.206-4.054,15.631,15.631,0,0,1-1.57-3.869,16.33,16.33,0,0,1-.539-4.263,13.445,13.445,0,0,1,.669-4.173,10.291,10.291,0,0,1,2.053-3.6,28.089,28.089,0,0,1-.153-6.059,30.312,30.312,0,0,1,1.1-5.963,31.647,31.647,0,0,1,5.524-10.746l.152-.191-.013,0a.091.091,0,0,1-.06-.094c0-.037.047-.165.424-.241l.051-.01-.019.03c-.022.033-.038.054-.054.074l-.031.041a.934.934,0,0,1,.525-.185,3.025,3.025,0,0,0-.361.031l-.06.01.224-.348a76.323,76.323,0,0,0,4.31-7.283,18.146,18.146,0,0,0,1.9-5.881,16.832,16.832,0,0,0-.5-6.182,56.688,56.688,0,0,0-2.9-8.184l-4.959-.178c-9.391-.344-18.551-.84-27.366-3.105a2.831,2.831,0,0,1-1.783.648,2.225,2.225,0,0,1-1.343-.424,2.3,2.3,0,0,1-.844-1.355c-3.81-16.305-7.5-32.93-11.06-49.006l-.007-.03c-2.484-11.206-5.053-22.793-7.644-34.181C7.954,211.4,7.334,208.775,6.677,206c-1.66-7.015-3.541-14.966-4.858-22.836A108.247,108.247,0,0,1,.1,159.791c.1-1.92.278-3.795.528-5.572a52.517,52.517,0,0,1,1.036-5.368,44.139,44.139,0,0,1,1.606-5.118,38.542,38.542,0,0,1,2.238-4.82,35.1,35.1,0,0,1,6.621-8.557,37.769,37.769,0,0,1,4.508-3.642,43.5,43.5,0,0,1,5.389-3.155,3.713,3.713,0,0,1-3.275-1.951,15.755,15.755,0,0,1-1.541-3.889l0-.007c-.1-.347-.2-.674-.3-.984a17.9,17.9,0,0,1-.718-3.812,18.121,18.121,0,0,1,.1-3.715,22.5,22.5,0,0,1,2.217-7.042,42.328,42.328,0,0,1,9.312-11.867c4.082-4.1,8.38-8.755,13.139-14.238,4.244-4.889,8.455-9.968,12.528-14.881h0c3.6-4.337,7.314-8.822,11.044-13.163C68.717,43.142,72.468,38.981,76,35.287c4.241-4.433,8.267-8.305,12.309-11.837,2.189-1.913,4.41-3.746,6.6-5.448,2.3-1.785,4.643-3.488,6.97-5.061a84.183,84.183,0,0,1,9.145-5.289,78.793,78.793,0,0,1,9.82-4.085A64.954,64.954,0,0,1,141.591,0a53.906,53.906,0,0,1,9.192.779,50.073,50.073,0,0,1,9.024,2.448.187.187,0,0,1,.13.213.184.184,0,0,1-.182.157h0a.229.229,0,0,1-.05-.006,53.951,53.951,0,0,0-9.324-1.181c1.559.191,3.13.439,4.65.679a62.927,62.927,0,0,0,9.735,1.021,26.3,26.3,0,0,0,4.575-.378,66.158,66.158,0,0,1,24.162.494,64.721,64.721,0,0,1,12.8,4.068,61.579,61.579,0,0,1,11.65,6.685,58.588,58.588,0,0,1,9.962,9.225,2.207,2.207,0,0,1,.775-1.437,2.181,2.181,0,0,1,1.379-.457,2.623,2.623,0,0,1,2.26,1.265,32.679,32.679,0,0,1,6.746,3.327,41.581,41.581,0,0,1,6.029,4.751,56.741,56.741,0,0,1,5.365,5.869,79.037,79.037,0,0,1,4.757,6.681,127.794,127.794,0,0,1,7.906,14.568c2.327,4.946,4.382,9.889,6.126,14.134.2.725.653,1.95,1.23,3.5a87.948,87.948,0,0,1,2.837,8.507,15.874,15.874,0,0,1,.576,3.65,3.934,3.934,0,0,1-.176,1.284,1.4,1.4,0,0,1-.582.775c1.632,2.238,3.231,4.6,4.754,7.034,1.458,2.327,2.893,4.786,4.263,7.308,2.564,4.719,4.949,9.714,7.291,15.27,2.029,4.814,4,10,6.035,15.86,1.605,4.629,3.224,9.6,5.248,16.11l.191.523a22.39,22.39,0,0,1,1.5,6.53,9.733,9.733,0,0,1-.39,3.208,8.3,8.3,0,0,1-1.652,2.974,110.094,110.094,0,0,1,9.719,6.659,84.018,84.018,0,0,1,8.827,7.81,65.312,65.312,0,0,1,7.421,9.065,56.149,56.149,0,0,1,3.022,5.035,52.453,52.453,0,0,1,2.478,5.386,41.922,41.922,0,0,1,2.518,8.048,35.761,35.761,0,0,1,.71,7.7,34.266,34.266,0,0,1-.928,7.3,36.642,36.642,0,0,1-2.4,6.872,46.22,46.22,0,0,1-8.519,12.294,66.85,66.85,0,0,1-12.356,10.1c-4.47,3.24-9.17,6.444-13.97,9.524-4.635,2.974-9.5,5.919-14.46,8.754-4.773,2.728-9.776,5.436-14.871,8.047-4.884,2.5-10,4.993-15.2,7.4-6.2,2.868-12.828,5.745-20.845,9.053l-.7.285c-5.439,2.239-11.041,4.913-15.17,9.285a6.951,6.951,0,0,1-1.689,1.808,2.9,2.9,0,0,1-1.656.567c-1.523,0-3.1-1.409-4.673-4.189a49.477,49.477,0,0,1-3.844-9.533c-.979-3.173-1.909-6.837-2.619-10.319a46.8,46.8,0,0,1-1-6.547,41.31,41.31,0,0,1-7.735,1.272h0c-1.329.133-2.7.271-4.021.472a2.741,2.741,0,0,1,.375,1.4,2.635,2.635,0,0,1-.443,1.442,43.725,43.725,0,0,1-.852,8.568c.248-.022.491-.033.722-.033a4.706,4.706,0,0,1,2.636.677,2.032,2.032,0,0,1,.965,1.489,1.664,1.664,0,0,1-.459,1.269,3.464,3.464,0,0,1-2.586.9,8.034,8.034,0,0,1-1.737-.208l-.309,2.9a6.627,6.627,0,0,1,1.921-.256,8.062,8.062,0,0,1,2.7.442,2.647,2.647,0,0,1,1.657,1.3,1.458,1.458,0,0,1-.013,1.081,3.78,3.78,0,0,1-.959,1.33,4.4,4.4,0,0,1-2.016.426,14.472,14.472,0,0,1-1.676-.132h-.012a14.671,14.671,0,0,0-1.709-.134c-.113,0-.224,0-.329.008-.539,4.247-.871,8.57-1.191,12.751v0c-.18,2.354-.367,4.787-.589,7.186a23.277,23.277,0,0,0,3.838,2.651c1.364.773,2.816,1.476,4.22,2.155a58.235,58.235,0,0,1,5.292,2.787A22.338,22.338,0,0,1,200.3,329.3a16.444,16.444,0,0,1,2.142,2.089,11.718,11.718,0,0,1,2.386,3.943,11.549,11.549,0,0,1,.554,2.182,11.234,11.234,0,0,1,.115,2.229,10.631,10.631,0,0,1-3.549,7.455,6.6,6.6,0,0,1,.91,3.169,7.554,7.554,0,0,1-.613,3.154,8.5,8.5,0,0,1-2.183,3.024,7.864,7.864,0,0,1-3.329,1.763,19.361,19.361,0,0,1-4.53.506c-4.328,0-8.658-1.206-12.846-2.373l-.014,0-.8-.223c-2.572-.847-5.21-1.835-7.842-2.937-2.492-1.043-5.058-2.22-7.626-3.5-4.691-2.337-9.466-5.039-14.6-8.259l-.41-.258a22.221,22.221,0,0,1-5.976-5.473,23.169,23.169,0,0,1-3.678-7.225l-.343-1.064c-1.866-5.8-3.424-11.015-4.763-15.941-1.864-6.854-3.326-13.252-4.348-19.015-.6-3.387-1.061-6.625-1.368-9.623a86.185,86.185,0,0,1-.484-9.147,50.715,50.715,0,0,1,.66-8.257,27.814,27.814,0,0,1,2.065-6.951,5.013,5.013,0,0,1,2.283-1.471,8.243,8.243,0,0,1,2.52-.318c.418,0,.83.015,1.228.029h.016c.409.015.795.029,1.18.029a6.066,6.066,0,0,0,2.445-.4,3.528,3.528,0,0,0,1.781-1.9c-3.45-.27-7.432-.317-11.648-.367-3.065-.036-6.235-.074-9.412-.2-3.592-.142-6.661-.38-9.381-.728a50.868,50.868,0,0,1-8.618-1.776,30.324,30.324,0,0,1-3.794-1.444,21.776,21.776,0,0,1-3.328-1.9c.257,3.7.548,7.453.83,11.087v.008c.45,5.8.916,11.807,1.253,17.716.379,6.63.552,12.437.53,17.751a5.794,5.794,0,0,0,.33,2.51,4.914,4.914,0,0,1,.222,2.879c1.933,3.306,3.613,6.751,5.453,10.587l.108.1c1.286,1.219,2.771,3.278,2.727,5.07a2.712,2.712,0,0,1-1,2.061c8.058,11.809,12.382,25.767,15.854,39.091a4.332,4.332,0,0,1,2.395,1.647,10.4,10.4,0,0,1,1.581,3.032,18.543,18.543,0,0,1,.831,3.5,15.318,15.318,0,0,1,.146,3.046c-.424,3.614-2.42,6.106-6.1,7.616-3.181,1.305-7.086,1.673-10.532,2h0c-.737.069-1.433.135-2.105.208-4.056.426-8.2.7-12.323.811C93.9,378.873,92.469,378.892,91.062,378.892ZM53.886,355.854h0a22.53,22.53,0,0,0,.151,3.617,16.5,16.5,0,0,0,.689,3.091,13.348,13.348,0,0,0,1.178,2.6,12.4,12.4,0,0,0,1.618,2.155,14.021,14.021,0,0,0,3.43,2.639,20.412,20.412,0,0,0,4.245,1.727,40.844,40.844,0,0,0,10.1,1.377c5.135.489,10.337.736,15.462.736,2.089,0,4.2-.041,6.278-.123l3.414-.2c3.184-.187,5.858-.372,8.555-.666a70.034,70.034,0,0,0,8.441-1.39,4.589,4.589,0,0,0,3.3-2.271,4.76,4.76,0,0,0,.526-2.323,7.122,7.122,0,0,0-.571-2.621,2.1,2.1,0,0,1-.842.185,1.607,1.607,0,0,1-.93-.284,4.7,4.7,0,0,1-1.344-1.369,65.079,65.079,0,0,1-13.51,4.283,72.08,72.08,0,0,1-14.293,1.418,73.464,73.464,0,0,1-16.978-1.98,67.075,67.075,0,0,1-15.812-5.894,2.4,2.4,0,0,1-2.076-1.374,10.162,10.162,0,0,1-.849-2.611C54,356.327,53.945,356.085,53.886,355.854Zm5.7,2.223a2.491,2.491,0,0,1-.707,1.787c2.387.775,4.792,1.461,7.148,2.038s4.726,1.063,7.056,1.446,4.676.671,6.991.861,4.647.285,6.955.285c2.422,0,4.886-.106,7.324-.314,2.421-.207,4.893-.521,7.347-.935,2.432-.41,4.923-.93,7.4-1.546,2.455-.61,4.975-1.332,7.492-2.147-.849-4.263-2.028-8.855-3.606-14.037-1.406-4.618-2.991-9.269-4.524-13.767l0-.007c-1.581-4.638-3.215-9.433-4.654-14.195a4.259,4.259,0,0,1-1.464-1.717,6.959,6.959,0,0,0-.821-1.2,2.117,2.117,0,0,1-1.2-.533,2.723,2.723,0,0,1-.8-1.292,26.654,26.654,0,0,0-7.145-2.836,35.544,35.544,0,0,0-8.571-1.086,25.113,25.113,0,0,0-6.345.751,14.052,14.052,0,0,0-5.174,2.443c.444,2.564-.566,4.935-1.543,7.227l-.052.122c.857-.2,3.432-.607,6.515-.951a98.938,98.938,0,0,1,10.391-.658,30.5,30.5,0,0,1,5.65.424c1.648.324,2.686.837,3.084,1.525a1.786,1.786,0,0,1-.168,1.849,3.791,3.791,0,0,1-1.339.7,5.156,5.156,0,0,1-1.465.191,15.616,15.616,0,0,1-2.695-.325c-.619-.111-1.2-.216-1.777-.27-2.488-.207-5.054-.312-7.624-.312a103.518,103.518,0,0,0-11.637.675c-.232.649-.407,1.343-.577,2.013a15.466,15.466,0,0,1-.889,2.775,67.958,67.958,0,0,1,9.9-2.426,89.87,89.87,0,0,1,10.141-1.1l.377-.02c.4-.021.833-.053,1.214-.082h0c.784-.058,1.6-.118,2.389-.118a8.978,8.978,0,0,1,2.72.351,5.106,5.106,0,0,1,2.317,1.458,2.3,2.3,0,0,1,.464,1.092,1.681,1.681,0,0,1-.181.961,3.646,3.646,0,0,1-1.821,1.508,6.355,6.355,0,0,1-2.476.556h0a3.722,3.722,0,0,1-.431-.024c-2.2-.066-4.544-.1-6.951-.1-6.994,0-13.988.276-20.552.559l-.4.664c-3.275,5.422-5.206,9.113-6.031,13.088a24.125,24.125,0,0,0-.41,6.436,58.559,58.559,0,0,0,1.193,8.254l-.018-.014A.242.242,0,0,1,59.587,358.077Zm79.774-100.17a10.877,10.877,0,0,1-2.761.86,14.021,14.021,0,0,0-2.342.655,4.051,4.051,0,0,0-1.841,1.4c-3.113,19.722,2.608,39.583,8.139,58.79l0,.012c.675,2.345,1.374,4.771,2.037,7.133a18.132,18.132,0,0,0,8.175,10.721c10.263,6.268,18.955,10.548,27.354,13.467l.291.083c.521.149,1.13.333,1.718.51,1.664.5,3.734,1.126,5.843,1.615a28.1,28.1,0,0,0,6.231.85,10.608,10.608,0,0,0,3.057-.394,5.193,5.193,0,0,0,2.3-1.354,2.8,2.8,0,0,0,.543-1.722,1.935,1.935,0,0,0-.781-1.432l-.477-.181a5.783,5.783,0,0,1-1.361-.693,1.867,1.867,0,0,1-.8-1.229l-.01-.074.035-.013a1.8,1.8,0,0,1-.043-1.632,3.143,3.143,0,0,1,.9-1.153,3.414,3.414,0,0,1,1.271-.668,3.142,3.142,0,0,0,2.246-.949,6.392,6.392,0,0,0,1.3-2.326,8.837,8.837,0,0,0,.039-2.076,7.858,7.858,0,0,0-.424-1.854,9.592,9.592,0,0,0-1.969-3.168,32.986,32.986,0,0,0-6.547-5.046c-1.4-.909-2.847-1.848-4.114-2.836a14.735,14.735,0,0,1-3.186-3.23,1.854,1.854,0,0,1-.713,1.165,2.048,2.048,0,0,1-1.205.375,2.213,2.213,0,0,1-1.569-.627,1.886,1.886,0,0,1-.541-1.376c-.111-5.6.829-11.3,1.738-16.81.248-1.5.5-3.055.734-4.579-.08,0-.165-.005-.252-.005a13.4,13.4,0,0,0-1.832.172h0a13.415,13.415,0,0,1-1.831.172h0a4.724,4.724,0,0,1-1.045-.107c-.091-.572.546-1.224,1.893-1.937a28.681,28.681,0,0,1,3.288-1.4l.02-.008c.164-.061.3-.113.419-.157.267-1.244.547-2.467.831-3.635-.844.051-1.613.077-2.285.077a11.7,11.7,0,0,1-2.762-.245c-.566-.148-.864-.36-.887-.629-.019-.225.153-.481.514-.761a7.057,7.057,0,0,1,1.492-.828,22.808,22.808,0,0,1,4.909-1.394c.178-.606.354-1.287.537-2.082l.079-.347a26.992,26.992,0,0,0,.694-5.088,26.231,26.231,0,0,1-10.824,2.652,17.449,17.449,0,0,1-3.664-.381,13.061,13.061,0,0,1-2.983-1.09,13.588,13.588,0,0,1-2.577-1.718,14.723,14.723,0,0,1-2.132-2.23,15.9,15.9,0,0,1-1.648-2.625,16.545,16.545,0,0,1-1.72-6.531,15.315,15.315,0,0,1,.2-3.384,14.114,14.114,0,0,1,.982-3.262,6.147,6.147,0,0,1-.2-2.164,9.12,9.12,0,0,1,.462-2.156,21.2,21.2,0,0,1,1.946-3.985c-5.825-.02-11.583-.178-17.461-.352a16.423,16.423,0,0,0-2.375,2.018,11.314,11.314,0,0,0-1.6,2.1,9.623,9.623,0,0,0-1.308,4.423c-.173,3.051.862,6.313,1.959,9.767.332,1.044.674,2.124.988,3.215,2.516,8.786,4.643,17.836,6.7,26.587v0c.784,3.335,1.595,6.783,2.415,10.166a34.227,34.227,0,0,0,18.546,25.237A41.618,41.618,0,0,0,179.1,341.1a42.428,42.428,0,0,0,7.374,1.6c.335.034.68.056,1.014.078a11.2,11.2,0,0,1,2.383.323,3.607,3.607,0,0,1,1.962,1.318,2.216,2.216,0,0,1,.58,1.443,1.9,1.9,0,0,1-.58,1.432,3.643,3.643,0,0,1-1.687,1.038,7.725,7.725,0,0,1-2.274.3,32.405,32.405,0,0,1-7.394-1.274h0c-.761-.193-1.481-.375-2.069-.5a53.793,53.793,0,0,1-8.589-3.387,40.451,40.451,0,0,1-6.831-4.321,37.146,37.146,0,0,1-9.448-11.162,52.126,52.126,0,0,1-3.145-6.7c-.866-2.216-1.666-4.621-2.446-7.351-1.456-5.1-2.618-10.577-3.849-16.374l-.029-.138c-.627-3.385-1.512-6.886-2.367-10.272a121.965,121.965,0,0,1-3.07-14.648,45.077,45.077,0,0,1-.354-7.326,34.661,34.661,0,0,1,.33-3.644,31.007,31.007,0,0,1,.749-3.624ZM60.376,329.591a1.882,1.882,0,0,0-.218.153l-.069.057.017,0a.162.162,0,0,0,.033,0,.291.291,0,0,0,.246-.211c-.006.006-.009.008-.011.008S60.373,329.6,60.376,329.591ZM71.467,320.9c-.326.043-.657.084-.978.124l-.032,0-.024,0-.4.049-.094.256C70.431,321.193,70.929,321.05,71.467,320.9ZM92.6,300.258c-4.1.417-8.283.511-12.329.6-4.34.1-8.826.2-13.222.7a30.829,30.829,0,0,1,3.851,7.537,14.978,14.978,0,0,1,2.823-2.1,16.314,16.314,0,0,1,3.14-1.376,19.98,19.98,0,0,1,3.373-.754,26.012,26.012,0,0,1,3.522-.229,39.41,39.41,0,0,1,7.052.7c2.042.375,4.221.9,6.661,1.606-.58-1.694-1.1-3.375-1.552-5a2.764,2.764,0,0,1-.437.035,3.325,3.325,0,0,1-1.659-.468,3.218,3.218,0,0,1-1.222-1.257Zm121.032-56.821h0a84.2,84.2,0,0,1-13.783,6.459,9.857,9.857,0,0,1,1.165,4.761c.057.744.116,1.513.245,2.226.375,3.432.672,6.9.961,10.247l.109.655a125.7,125.7,0,0,0,3.587,15.989,73.573,73.573,0,0,0,2.8,7.692,56.65,56.65,0,0,0,3.753,7.258,36.068,36.068,0,0,1,8.217-5.882,92.135,92.135,0,0,1,9.249-4.2c8.151-3.361,15.444-6.564,22.3-9.793,4.994-2.349,9.954-4.807,14.742-7.307,4.891-2.554,9.74-5.224,14.413-7.935,4.771-2.768,9.492-5.657,14.031-8.586,4.632-2.989,9.207-6.105,13.6-9.262l.606-.424c2.854-2.008,5.255-3.86,7.34-5.66a51.162,51.162,0,0,0,6.514-6.632,35.712,35.712,0,0,0,2.64-3.73,29.132,29.132,0,0,0,2.065-4.033,25.465,25.465,0,0,0,1.367-4.356,24.573,24.573,0,0,0,.546-4.7,36.268,36.268,0,0,0-.345-6.662,37.45,37.45,0,0,0-1.472-6.238,43.285,43.285,0,0,0-2.426-5.861,54.655,54.655,0,0,0-3.205-5.532c-4.716-7.179-11.033-13.592-17.143-19.794-2-2.026-3.879-3.939-5.723-5.889-9.183,9.358-22.054,13.342-34.5,17.194-3.212.994-6.534,2.022-9.675,3.115a4.607,4.607,0,0,0-1.614,1.655,5.1,5.1,0,0,0-.6,2.047,16.8,16.8,0,0,0,.47,4.586c.133.686.258,1.334.343,1.958.873,5.662,1.566,11.381,2.061,17,1.31-1.515,4.126-2.1,6.612-2.62,1.041-.217,2.024-.422,2.824-.678l.362-.082c.57-.131,1.155-.275,1.721-.414h0a29.136,29.136,0,0,1,6.839-1.12,11.748,11.748,0,0,1,2.539.262,1.516,1.516,0,0,1,1.191,1.275,1.939,1.939,0,0,1-.109,1.035,1.682,1.682,0,0,1-.673.816c-2.5,1.554-5.491,1.853-8.381,2.143-.574.058-1.168.117-1.746.185l-.881.105a65.947,65.947,0,0,1-7.8.593c-.472,0-.938-.01-1.387-.029a1.128,1.128,0,0,1-.175.014,1.168,1.168,0,0,1-.842-.361c.1,1.6.236,3.242.365,4.826v.005a106.106,106.106,0,0,1,.522,13.1,5.24,5.24,0,0,1-1.232,2.991l-.025.091a7.1,7.1,0,0,1-.838,1.875c-.446.675-.932,1.032-1.405,1.032a1.55,1.55,0,0,1-1.154-.706l-.3-.537a54.061,54.061,0,0,1-5.681-13.335c-.183,4.638-.351,9.341-.514,13.89v.011c-.172,4.8-.35,9.773-.545,14.66l-.013.229a13,13,0,0,1-.374,2.541,5.747,5.747,0,0,1-1.089,2.262.893.893,0,0,1-.2.714.8.8,0,0,1-.6.269.878.878,0,0,1-.359-.078l-.079.036a2.683,2.683,0,0,1-1.012.253.834.834,0,0,1-.814-.457c-.853-2-1.745-4.011-2.607-5.96l0-.009,0,0c-1.151-2.6-2.341-5.293-3.453-7.966.055,1.278.047,2.578.04,3.835v.005c-.006,1.105-.013,2.248.023,3.372.008.55.034,1.109.061,1.7v0a28.81,28.81,0,0,1,.022,3.507,8.5,8.5,0,0,1-.844,3.3,3.836,3.836,0,0,1-1.336,1.509,3.229,3.229,0,0,1-1.747.532,2.878,2.878,0,0,1-2.309-1.171,23.208,23.208,0,0,1-1.69-3.391c-.391-.905-.8-1.84-1.273-2.7a13.212,13.212,0,0,1-1.334,4.012,2.02,2.02,0,0,1-1.64,1.2c-.82,0-1.761-.726-2.8-2.158a30.5,30.5,0,0,1-2.774-5.009,90.568,90.568,0,0,1-3.714-9.761ZM32.215,127.531a32.323,32.323,0,0,0-4.421.3,31.121,31.121,0,0,0-4.411.942A31.922,31.922,0,0,0,19,130.414a34.934,34.934,0,0,0-4.345,2.392c-7.846,6.641-11.36,17.13-10.744,32.068A129.809,129.809,0,0,0,6.5,184.679c1.319,6.637,2.916,13.051,4.461,19.253v0c1.419,5.7,2.76,11.082,3.616,15.66,2.418,10.695,4.936,21.556,7.371,32.06l.013.058h0c3.281,14.151,6.673,28.783,9.866,43.2,6.926.914,13.195,1.586,19.164,2.053,6.82.534,13.116.794,19.249.794,3.668,0,7.3-.1,10.785-.289,3.652-.2,7.273-.512,10.764-.925-.123-9.689-.543-19.533-.95-29.054-.337-7.9-.686-16.077-.863-24.122-.09-2.252-.15-4.544-.209-6.76v0c-.09-3.387-.183-6.889-.38-10.326-.222-3.853-.554-7.213-1.017-10.272a65.269,65.269,0,0,1-.573-7.478c-.207-5.334-.42-10.849-3.195-15.2a26.4,26.4,0,0,0-1.643-2.179h0a12.071,12.071,0,0,1-2.891-5.032.115.115,0,0,1,.029-.091.154.154,0,0,1,.113-.046.153.153,0,0,1,.1.036c.528.465,1.02.978,1.495,1.474l0,0a19.717,19.717,0,0,0,1.938,1.848l.936.725a14.56,14.56,0,0,1,3.98,4.135,13.564,13.564,0,0,0-.376-2.2c-.355-1.7-.8-3.817-.513-4.168a.126.126,0,0,1,.1-.051.289.289,0,0,1,.157.063l.2.561c.647,1.779,1.388,3.894,1.986,6.095a35.781,35.781,0,0,1,1.171,6.306c.857,8.762,1.5,17.7,2.12,26.337v0c.419,5.828.852,11.854,1.347,17.776.982.443,1.954.963,2.894,1.466a23.826,23.826,0,0,0,6.035,2.547c2.1.208,4.362.3,7.111.3,1.786,0,3.6-.041,5.358-.08h.012c1.126-.025,2.29-.052,3.448-.067l.5-.006c1.785-.027,3.6-.04,5.557-.04,5.85,0,11.78.121,17.515.239h.028c5.737.117,11.669.238,17.512.238,2.057,0,3.967-.014,5.838-.044,1.018.04,2.054.059,3.079.059a81.581,81.581,0,0,0,11.118-.768,82.825,82.825,0,0,0,10.937-2.274,79.759,79.759,0,0,0,20.4-8.888,56.194,56.194,0,0,1-1.221-8.575,54.779,54.779,0,0,1,.1-8.191,59.35,59.35,0,0,1,1.237-7.866,70.9,70.9,0,0,1,2.185-7.6c.832-2.4,1.8-4.814,2.946-7.387,1.025-2.293,2.177-4.659,3.52-7.234,2.5-4.786,5.3-9.593,8.012-14.242,2.326-3.988,4.73-8.11,6.948-12.228a134.37,134.37,0,0,0,6.045-12.577c-10.541,2.659-21.219,5.519-31.546,8.285-2.933.785-5.965,1.6-8.974,2.4a8.814,8.814,0,0,1,.1,4.619,39.161,39.161,0,0,1-1.728,6.154,106.334,106.334,0,0,1-4.66,10.787,67.054,67.054,0,0,1-6.767,10.745,53.11,53.11,0,0,1-8.344,8.648,37.6,37.6,0,0,1-9.535,5.765,27.423,27.423,0,0,1-10.337,2.1h0a25.405,25.405,0,0,1-5.581-.624,27.707,27.707,0,0,1-5.643-1.949,33.743,33.743,0,0,1-5.646-3.386,44.584,44.584,0,0,1-5.6-4.934c.008.057.015.112.021.171v.008l0,.029a21.971,21.971,0,0,0-2.333-1.8A58.911,58.911,0,0,1,132.3,211.9a44.144,44.144,0,0,1-6.443,11.851l-.6.758a17.856,17.856,0,0,1-2.385,2.56,6.535,6.535,0,0,1-1.407.92,3.609,3.609,0,0,1-1.517.36,3.286,3.286,0,0,1-1.679-.483,3.89,3.89,0,0,1-1.923-2.3,6.419,6.419,0,0,1-.1-3.1,25.965,25.965,0,0,1-4.672,4.095,7.7,7.7,0,0,1-3.878,1.517,1.935,1.935,0,0,1-1.69-.809,4.514,4.514,0,0,1-.491-2.961,22.466,22.466,0,0,1,1.381-5.423l-.15.156a27.513,27.513,0,0,1-3.488,3.027,7.648,7.648,0,0,1-4.032,1.745c-1.418,0-2.246-1.081-2.461-3.212a19.4,19.4,0,0,1,2.043-6.219,34.886,34.886,0,0,0,1.413-3.394,4.7,4.7,0,0,1-2.455.786,3.5,3.5,0,0,1-1.26-.236,2.975,2.975,0,0,1-2.073-3.012,13.077,13.077,0,0,1,.882-3.978l0-.006c.1-.3.192-.578.274-.844,1.916-6.175,3.942-12.574,6.024-19.018a14.364,14.364,0,0,1,.111-4.565,17.917,17.917,0,0,0,.235-3.194,6.659,6.659,0,0,0-.243-1.534,5.512,5.512,0,0,0-.672-1.481,2.289,2.289,0,0,1-1.057.265,2.161,2.161,0,0,1-1-.247,2.733,2.733,0,0,1-.921-.806c-2.437-3.246-5.182-6.551-8.158-9.824-2.714-2.985-5.723-6.053-8.941-9.12-5.31-4.983-13.409-12.25-22.391-17.813-2.151-1.332-4.292-2.528-6.362-3.555a59.3,59.3,0,0,0-6.552-2.79,45.633,45.633,0,0,0-6.684-1.823,36.545,36.545,0,0,0-6.758-.653h0Zm-.15,168.544h0c0,.026,0,.05.006.075v.034c.193.013.378.03.574.048h.009c-.119-.029-.238-.062-.353-.093l-.006,0-.009,0-.222-.06ZM170.656,255.09c-.8,0-2.532,3.2-3.1,4.248-.053.1-.1.181-.128.234a18.862,18.862,0,0,0-1.288,5.044,15.941,15.941,0,0,0-.286,3.158,14.334,14.334,0,0,0,.338,2.964,12.615,12.615,0,0,0,.913,2.667,10.937,10.937,0,0,0,1.437,2.268,9.161,9.161,0,0,0,7.215,3.393,12.689,12.689,0,0,0,4.8-1.018c-.132-.011-.274-.017-.436-.017-.243,0-.493.013-.734.025h0c-.241.012-.489.025-.73.025a2.74,2.74,0,0,1-1.745-.48.025.025,0,0,0,.008-.008l0-.005a.649.649,0,0,1-.054-.623c.342-.7,2.13-.979,3.567-1.2a8.67,8.67,0,0,0,1.608-.331c1.03-.215,2.078-.43,3.092-.638l.03-.006.013,0c2.813-.577,5.722-1.173,8.564-1.843.574-.135,1.163-.3,1.732-.453a21.771,21.771,0,0,1,4.035-.839c-.575-5.925-.769-10.218-.91-13.353-.25-5.542-.326-7.214-2.072-7.214a14.469,14.469,0,0,0-3.353.761h0a70.256,70.256,0,0,1-7.941,1.925c-1.921.343-3.949.616-6.03.811-2.425.228-5.007.358-7.674.388a.553.553,0,0,1-.094.473.505.505,0,0,1-.379.173c-.079,0-.135-.022-.145-.056s.02-.065.079-.1C170.923,255.214,170.811,255.09,170.656,255.09Zm60.457,4.078a.063.063,0,0,0-.048.02.115.115,0,0,0-.023.086c0,.051.028.106.06.106.016,0,.039-.014.061-.079.007-.019.015-.038.023-.056v0c.007-.016.013-.03.019-.044A.2.2,0,0,0,231.113,259.168Zm-5.65-44.347h0c-1.558,15.889.433,31.223,5.758,44.344a105.062,105.062,0,0,0,.56-11.938c-.011-4.067-.172-8.263-.328-12.322v0c-.218-5.681-.444-11.555-.257-17.127a1.5,1.5,0,0,1,.413-1.1,1.616,1.616,0,0,1,1.148-.45,1.722,1.722,0,0,1,1.109.389,1.557,1.557,0,0,1,.545,1.162l.107,3.491a119.916,119.916,0,0,0,1.5,17.8,49.284,49.284,0,0,0,2.3,8.524,38.685,38.685,0,0,0,1.783,4.048,35.109,35.109,0,0,0,2.3,3.859c.2-4.532.088-9.219-.018-13.752-.125-5.37-.255-10.922.118-16.312a68.2,68.2,0,0,1,1-8.012,49.112,49.112,0,0,1,2.124-7.819,1.184,1.184,0,0,1,.45-.546,1.135,1.135,0,0,1,.616-.183.968.968,0,0,1,.987,1.008,93.6,93.6,0,0,0,1.591,13.132,53.932,53.932,0,0,0,1.811,7.2c.768,2.238,1.584,3.717,2.427,4.4a17.925,17.925,0,0,0,.8-4.728c.081-1.639.011-3.288-.066-4.837-.232-5.421-.729-11.039-1.521-17.175-.657-5.09-1.51-10.509-2.684-17.054a7.274,7.274,0,0,1-.074-1.748,6.217,6.217,0,0,1,.373-1.716,3.972,3.972,0,0,1,2.324-2.427,15.584,15.584,0,0,1,2.958-2.143c1.055-.612,2.131-1.131,3.142-1.611a46.916,46.916,0,0,1,6.889-2.673c2.391-.743,4.895-1.385,7.316-2.006h0c2.283-.586,4.644-1.191,6.91-1.881a50.542,50.542,0,0,0,6.563-2.441A28.427,28.427,0,0,0,292.3,168.6a23.265,23.265,0,0,0,2.558-2.376,22.92,22.92,0,0,0,2.251-2.865l.412-.623a14.632,14.632,0,0,0,2.338-4.78c-.774-2.893-1.793-5.779-2.777-8.57l-.006-.016c-.47-1.332-.956-2.709-1.407-4.066-1.389-4.126-2.658-7.754-3.879-11.09l-.451-1.225c-1.56-4.259-3.188-8.35-4.84-12.159-1.785-4.117-3.674-8.08-5.613-11.78-2.067-3.944-4.269-7.735-6.544-11.27a126.475,126.475,0,0,0-7.633-10.628,44.848,44.848,0,0,0-5.07.65,41.51,41.51,0,0,0-4.672,1.162,43.2,43.2,0,0,0-8.425,3.673,62.924,62.924,0,0,0-7.657,5.161c-2.154,1.67-4.448,3.6-7.438,6.273-.816.705-1.562,1.325-2.282,1.894,2.988,5.241,6.186,10.469,9.278,15.525l.006.009c1.437,2.35,2.924,4.78,4.369,7.18l.855,1.423a33.658,33.658,0,0,1,3.42,6.953c2.061,6.523-2.941,16.81-6.96,25.075-1.223,2.515-2.378,4.89-3.185,6.867-1.59,2.806-3.177,5.54-4.711,8.184-14.307,24.651-25.608,44.122-12.151,75.044a13,13,0,0,0,.19-3.893,24.146,24.146,0,0,1,.079-4.034,3.789,3.789,0,0,1,.454-1.433,1.26,1.26,0,0,1,.954-.639l-.053-.536a97.78,97.78,0,0,1-.429-13.82A47.557,47.557,0,0,1,225.463,214.821Zm-56.057,40.2a1.8,1.8,0,0,0-.636.465c-.07.068-.142.138-.214.2l-.059.05.167-.133.11-.089h0c.137-.111.278-.226.472-.374l.159-.12h0ZM94.985,246.57h0l.076.994c.454.092.905.208,1.342.32l.1.025a9.865,9.865,0,0,1-1.516-1.339ZM245.068,220a112.954,112.954,0,0,0-.743,14.474q-.01,1.206-.022,2.353c.082-1.816.163-3.713.235-5.387v-.005C244.7,227.689,244.863,223.813,245.068,220Zm-120.8-20.983a1.743,1.743,0,0,1,1.311.585,1.71,1.71,0,0,1,.362,1.428,61.952,61.952,0,0,1-1.7,6.929,46.722,46.722,0,0,1-2.611,6.634l-.554,3.237c-.351,2.059-.726,4.269-1.081,6.479a.864.864,0,0,1,.381-.087.975.975,0,0,1,.235.029,32.769,32.769,0,0,0,2.528-2.868,36.305,36.305,0,0,0,2.166-3.091,45.97,45.97,0,0,0,3.434-6.7,108.041,108.041,0,0,0,4.582-14.452,13.027,13.027,0,0,1-.477-3.832c.012-1.285.155-2.6.294-3.875a32.8,32.8,0,0,0,.285-4.824,19.8,19.8,0,0,0,.06-4,23.422,23.422,0,0,0-.675-3.872,37.589,37.589,0,0,0-2.91-7.433c-1.11-11.452-9.869-17.983-18.339-24.3-2.562-1.91-5.21-3.885-7.567-5.948a70.082,70.082,0,0,1-5.935-6.776c-1.861-2.385-3.662-4.9-5.4-7.34l0,0c-1.65-2.308-3.357-4.694-5.106-6.954a72.639,72.639,0,0,0-5.531-6.434,41.851,41.851,0,0,0-6.394-5.412,34.026,34.026,0,0,0-3.658-2.166,32.505,32.505,0,0,0-4.038-1.723c-.21.013-.424.02-.637.02a13.874,13.874,0,0,1-4.578-.872.09.09,0,0,1-.06-.093.068.068,0,0,1,.06-.067c.952-.155,1.92-.363,2.856-.564h0l.008,0c.744-.16,1.514-.325,2.272-.463a1.826,1.826,0,0,1,.813-1.059,2.509,2.509,0,0,1,1.3-.332,3.71,3.71,0,0,1,1.585.373c14.779-6.478,27-17.755,38.814-28.661l.419-.386A76.109,76.109,0,0,0,91.173,57.1a85.671,85.671,0,0,0-11.05-4.235A90.034,90.034,0,0,0,68.6,50.153C63.9,55.483,59.338,61.1,54.93,66.527v0l0,.005c-3.566,4.393-7.253,8.935-11,13.3-4.2,4.9-8.029,9.044-11.706,12.682-4.786,4.326-7.964,8.337-9.716,12.264a18.953,18.953,0,0,0-1.189,3.529,15.545,15.545,0,0,0-.389,3.676,14.92,14.92,0,0,0,.564,3.8,17.429,17.429,0,0,0,1.669,3.915,1.786,1.786,0,0,1,1.084,1.432,2.08,2.08,0,0,1-.091,1,1.876,1.876,0,0,1-.593.844,3.109,3.109,0,0,0,.431-.145h0a4.134,4.134,0,0,1,1.037-.3c.077,0,.127.018.148.055s.011.113-.043.209a28.886,28.886,0,0,0-8.956,6.094,28.266,28.266,0,0,1,4.054-2.49,27.372,27.372,0,0,1,4.224-1.7,28.541,28.541,0,0,1,4.353-.968,31.611,31.611,0,0,1,4.439-.308,46.077,46.077,0,0,1,18.142,4.179,72.875,72.875,0,0,1,8.467,4.37,85.5,85.5,0,0,1,7.593,5.13c3.384,2.473,6.748,5.143,10,7.938,3.152,2.71,6.29,5.618,9.328,8.642a23.2,23.2,0,0,1,5.917,2.306l.248.124c5.985,2.876,9.689,6.311,11.656,10.811a22.739,22.739,0,0,1,1.715,7.215,52.619,52.619,0,0,1-.094,8.762,58.459,58.459,0,0,0-3.285,7.7c-.936,2.648-1.765,5.4-2.567,8.055l0,.006c-.695,2.3-1.413,4.684-2.2,6.978-.675,1.5-.9,2.492-.646,2.882a.4.4,0,0,0,.364.181,3.7,3.7,0,0,0,1.99-1.26,6.452,6.452,0,0,0,1.613-2.452,22.311,22.311,0,0,0,3.043-5.982c.248-.638.5-1.3.771-1.927l.08-.188a2.059,2.059,0,0,1,.574-.8,1.361,1.361,0,0,1,.88-.326,1.513,1.513,0,0,1,.416.061,1.713,1.713,0,0,1,.989.848,1.22,1.22,0,0,1,.092.974l-.56,1.442c-.256.659-.518,1.329-.771,1.978l-.031.079v0c-2.42,6.2-4.923,12.62-6.87,19.059a22.29,22.29,0,0,0,4.359-3.436,31.345,31.345,0,0,0,3.525-4.27,84.453,84.453,0,0,0,5.575-9.764c.418-.815.851-1.657,1.28-2.476a1.491,1.491,0,0,1,1.331-.855,1.867,1.867,0,0,1,1.535.884,1.688,1.688,0,0,1,.07,1.687c-.726,1.484-1.693,3.434-2.728,5.352a80.03,80.03,0,0,0-3.261,8.132c-.877,2.558-1.7,5.306-2.516,8.4,8.276-4.937,11.127-15.1,13.418-23.267a1.7,1.7,0,0,1,.526-1.2A1.563,1.563,0,0,1,124.266,199.02Zm-34.29-42.074h0c4.284,4.5,8.265,9.063,11.831,13.577a17.761,17.761,0,0,0-1.555-4.6,16.214,16.214,0,0,0-2.573-3.688,23.862,23.862,0,0,0-7.7-5.287ZM228.24,105.015h0c-2.838,5.128-6.244,10.145-9.537,15a184.809,184.809,0,0,0-10.255,16.3,70.65,70.65,0,0,0-3.959,8.664c-.567,1.52-1.065,3.049-1.48,4.546-.435,1.57-.794,3.158-1.068,4.721a32.266,32.266,0,0,0-.309,4.577c0,.094,0,.187-.006.28,3.245-1.323,6.849-2.605,11.018-3.921,3.718-1.173,7.532-2.263,11.22-3.318l.007,0c2.837-.811,5.771-1.65,8.64-2.52,1.148-.307,2.3-.671,3.423-1.023a34.005,34.005,0,0,1,8.408-1.879,11.63,11.63,0,0,0,1.232-8.691,21.84,21.84,0,0,0-1.451-4.213c-.658-1.466-1.43-2.891-2.1-4.091a104.307,104.307,0,0,0-6.741-11.872,98.366,98.366,0,0,1-7.044-12.556ZM83.689,97.133h0c-1.445.811-2.74,1.484-3.959,2.058a37.957,37.957,0,0,1-4.13,1.674,31.1,31.1,0,0,1,3.492,2.078,36.943,36.943,0,0,1,3.213,2.483,21.871,21.871,0,0,0,1.384-8.292ZM149.633,3.721h0c-1.553,13.691-.941,25.371,1.871,35.707a43.878,43.878,0,0,0,2.08,6.084,47.036,47.036,0,0,0,2.974,5.823,47.561,47.561,0,0,0,3.775,5.393,45.4,45.4,0,0,0,4.485,4.793,41.356,41.356,0,0,0,5.1,4.023,36.662,36.662,0,0,0,5.628,3.084A31.044,31.044,0,0,0,188.017,71.3h0a29.946,29.946,0,0,0,5.284-.474c21.953-4.588,30.557-28.8,33.732-42.827a59.318,59.318,0,0,0-43.725-22.25c-.656-.027-1.354-.041-2.073-.041-2.8,0-5.729.206-8.563.4l-.067,0c-2.867.2-5.832.409-8.75.409a41.458,41.458,0,0,1-7.3-.574,25.3,25.3,0,0,1-6.922-2.23ZM184,238.231a14.339,14.339,0,0,1-5.165-1.046,20.7,20.7,0,0,1-4.6-2.527,19.25,19.25,0,0,1-7.357-10.536.163.163,0,0,1,.025-.146.2.2,0,0,1,.154-.075.168.168,0,0,1,.148.084,18.461,18.461,0,0,0,3.754,4.639,22.248,22.248,0,0,0,4.843,3.255A31.388,31.388,0,0,0,181.335,234a45.976,45.976,0,0,0,5.819,1.223,1.179,1.179,0,0,1,.687.424,1.214,1.214,0,0,1,.244.693,1.479,1.479,0,0,1-.222.843,1.319,1.319,0,0,1-.709.563A10.008,10.008,0,0,1,184,238.231Zm-50.617-7.7a1.971,1.971,0,0,1-1.545-.744,10.24,10.24,0,0,0,2.462.532A2.115,2.115,0,0,1,133.384,230.529ZM138.1,203.5c-.233-.437-.456-.823-.681-1.178a4.032,4.032,0,0,1,.629.9.515.515,0,0,1,.044.2v0c0,.025,0,.051.008.075Z" transform="translate(-106.172 122.941)"/>
    <path id="_Background-2" data-name="ðŸŽ¨ Background" d="M94.452,48.976A131.353,131.353,0,0,0,93.4,31.88a25.758,25.758,0,0,0-7-14.46C78.109,8.939,66.1,6.868,54.913,4.97L35.794,1.724C29.961.734,23.738-.848,17.845.556a18.65,18.65,0,0,0-7.624,4.2,26.681,26.681,0,0,0-5.98,6.267c-1.475,2.469-1.982,5.356-2.461,8.149Q.968,23.9.52,28.675A119.058,119.058,0,0,0,.274,47.856c.21,3.1.545,6.186.971,9.261q.318,2.287.721,4.562c.08.447.14.942.222,1.442a15.191,15.191,0,0,0-.918,5.26c.081,5.21,4.479,8.49,8.912,10.251,2.571,1.021,5.258,1.715,7.784,2.856a17.47,17.47,0,0,1,6.282,5.364A61.119,61.119,0,0,0,36.087,98.061c9.465,6.728,21.454,9.911,32.939,7.5a29.344,29.344,0,0,0,8.013-2.835,17.915,17.915,0,0,0,6.233-5.959,58.273,58.273,0,0,0,6.929-14.9,86.381,86.381,0,0,0,3.558-16.2,123.354,123.354,0,0,0,.693-16.685Z" transform="translate(62.58 26.516) rotate(20)" fill="#fff"/>
    <path id="_Ink-2" data-name="ðŸ– Ink" d="M90.515,126h0a19.368,19.368,0,0,1-8.665-1.933,18.142,18.142,0,0,1-7.051-6.279l-.072-.114c-.359-.576-.506-.985-.414-1.15a.146.146,0,0,1,.139-.073,2.241,2.241,0,0,1,1.156.866,22.852,22.852,0,0,0,15.2,5.991,23.547,23.547,0,0,0,15.688-6.3,35.708,35.708,0,0,0,9.871-15.12,68.422,68.422,0,0,0,3.727-19.909c.673-13.382-1.609-28.281-6.1-39.855a88.552,88.552,0,0,0-9.63-.526C81.762,41.6,61,50.108,47.39,64.941l1.126,6.781c.063.382.131.77.2,1.146l0,.011c.131.757.267,1.539.378,2.312a2.477,2.477,0,0,1-.4,2.083,1.751,1.751,0,0,1-1.392.664c-1.087,0-2.38-.857-3.63-1.687h0a19.6,19.6,0,0,0-1.9-1.161,10.632,10.632,0,0,0-1.472-.108c-.2,0-.408.007-.6.021-5.467.7-7.632,6.106-7.329,10.827A11.668,11.668,0,0,0,34.607,92.2a6.951,6.951,0,0,0,5.645,2.826,9.512,9.512,0,0,0,2.8-.452,2.195,2.195,0,0,1,1.142-.38,1.2,1.2,0,0,1,.711.221,1.515,1.515,0,0,1,.5.652,27.172,27.172,0,0,1,3.7,4.678,44.1,44.1,0,0,0,6.146,7.55,41.19,41.19,0,0,0,5.276,4.619,8.746,8.746,0,0,0,1.371,1.006c1.375.891,2.933,1.9,2.145,3.327a1.388,1.388,0,0,1-1.345.879c-2.247,0-6.175-3.741-8.317-5.971-1.432-1.491-2.93-3.2-4.217-4.823a30.952,30.952,0,0,1-2.616-3.7,24.585,24.585,0,0,1-5.375,1.423,36.414,36.414,0,0,1-5.542.386c-3.093,0-6.216-.3-9.237-.582l-.045,0-1.144-.108c-6.808-.354-12.446-1.971-16.759-4.806a20.681,20.681,0,0,1-5.152-4.776,20.31,20.31,0,0,1-3.115-6A27.044,27.044,0,0,1,.234,76.529a44.158,44.158,0,0,1,3.812-13,64.463,64.463,0,0,1,8.2-13.221,79.753,79.753,0,0,1,12.22-12.3,84.86,84.86,0,0,1,18.608-10.3.818.818,0,0,0,.49-.942.661.661,0,0,0-.616-.583.747.747,0,0,0-.278.058,90.971,90.971,0,0,0-12.617,6.247l-.006-1.442a39.613,39.613,0,0,1,.454-7.177,17.651,17.651,0,0,1,1.112-4.416,11.819,11.819,0,0,1,2.323-4.26,35.178,35.178,0,0,1,5.8-5.865A42.809,42.809,0,0,1,60.82.194,21.68,21.68,0,0,1,63.761,0a26.953,26.953,0,0,1,5.764.644,27.617,27.617,0,0,1,5.653,1.888,21.768,21.768,0,0,1,4.9,3.066,14.974,14.974,0,0,1,3.512,4.178A101.9,101.9,0,0,1,94.1,7.866a87.727,87.727,0,0,1,11-.718A63.4,63.4,0,0,1,124.6,10a47.1,47.1,0,0,1,8.989,3.959,42.84,42.84,0,0,1,4.161,2.728,41.864,41.864,0,0,1,3.884,3.271,24.29,24.29,0,0,1,3.48,4.786,20.359,20.359,0,0,1,1.932,4.952,21.453,21.453,0,0,1-.049,10,31.1,31.1,0,0,1-3.538,8.634,43.021,43.021,0,0,1-5.734,7.615c-1.06,1.132-2.188,2.223-3.351,3.241a44.48,44.48,0,0,1-3.492,2.766,37.233,37.233,0,0,1-3.5,2.217,27.193,27.193,0,0,1-3.367,1.594,40.6,40.6,0,0,1,.159,7.742,119.713,119.713,0,0,1-1.418,13.4,93.912,93.912,0,0,1-3.632,15.066,42.515,42.515,0,0,1-6.481,12.723,26.636,26.636,0,0,1-4.387,4.588,29.992,29.992,0,0,1-5.421,3.569,29.31,29.31,0,0,1-6.05,2.314A25.151,25.151,0,0,1,90.515,126ZM42.977,72.422l-.145.084a1.237,1.237,0,0,1-.358.14c.171.073.341.152.505.235,0-.121,0-.219,0-.306l0-.153ZM47.362,86.33a2.011,2.011,0,0,1-.829-.621l-.047-.053.01.015c.12.185.167.314.136.372a.075.075,0,0,1-.073.035,1.252,1.252,0,0,1-.759-.6l-.008-.019a2.1,2.1,0,0,1-.324-.342c-.018-.023-.031-.039-.04-.049l-.008-.008a9.383,9.383,0,0,0-3.57-2.217c-.178-.034-.355-.06-.525-.078a15.948,15.948,0,0,0-2.178-.329.4.4,0,0,1-.249-.162c-.46-.016-.731-.109-.742-.257-.009-.128.19-.274.435-.319H38.6l-.091-.008c-.468-.046-.826-.171-.833-.291,0-.073.118-.14.355-.191l.091-.018c-.01-.015-.018-.03-.031-.052-.211-.023-.328-.113-.32-.247a.35.35,0,0,1,.338-.3.282.282,0,0,1,.111.022.25.25,0,0,1,.01-.224c.041-.055.121-.081.252-.081.047,0,.1,0,.141.006h.012c.04,0,.078.006.108.006a.124.124,0,0,0,.074-.014A.4.4,0,0,1,39,80.176a.72.72,0,0,0,.135-.113c.015-.017.015-.017.052-.018h.017a.846.846,0,0,1,.613-.218,3.115,3.115,0,0,1,.825.153l.077.022a2.576,2.576,0,0,0,.618.131h.019a8.155,8.155,0,0,1,3.51,1.409,9.494,9.494,0,0,1,1.459,1h0l0,0,.035.024A8.118,8.118,0,0,1,47.4,83.589c.45.515.685.882.645,1.007-.011.033-.04.05-.089.05a.867.867,0,0,1-.316-.1c-.083-.108-.174-.22-.287-.354a.23.23,0,0,1-.042.046l.071.1c.249.375.358.6.324.661a.038.038,0,0,1-.036.019,4.617,4.617,0,0,1-1.349-1.216.211.211,0,0,1-.036.022l-.007,0,.37.45.126.158.078.076c.661.649.978,1.265.914,1.421a.061.061,0,0,1-.062.039c-.16,0-.539-.354-1.014-.948a.565.565,0,0,1,.108.254l.085.109c.494.637.561.848.529.912A.05.05,0,0,1,47.362,86.33Z" transform="translate(43.094 0) rotate(20)"/>
    <path id="_Ink-3" data-name="ðŸ– Ink" d="M27.387,48.625a9.657,9.657,0,0,1-3.662-.731,10.346,10.346,0,0,1-2.39-1.373,10.181,10.181,0,0,1-1.946-1.963A2.01,2.01,0,0,1,18.983,43a2.244,2.244,0,0,1,.873-1.406,2.152,2.152,0,0,1,1.28-.446,1.858,1.858,0,0,1,.286.022,1.977,1.977,0,0,1,1.324.875l.078.108a6.833,6.833,0,0,0,2.5,2.1,5.684,5.684,0,0,0,2.483.58,5.5,5.5,0,0,0,.615-.035c2.029-.229,3.436-1.277,5.049-2.894.166-.169.341-.353.569-.6a.9.9,0,0,1,.472-.364.968.968,0,0,1,.307-.049,1.046,1.046,0,0,1,.857.447.955.955,0,0,1,.162.629,6.47,6.47,0,0,1-2.148,4.115,9.409,9.409,0,0,1-2.217,1.545,9.23,9.23,0,0,1-2.46.844A9.061,9.061,0,0,1,27.387,48.625Zm2.578-14.6h0a8.85,8.85,0,0,1-3.156-.636A15.939,15.939,0,0,1,23.1,31.286a1.426,1.426,0,0,1-.518-.824,1.706,1.706,0,0,1,.073-.925,2.1,2.1,0,0,1,.625-.9,1.521,1.521,0,0,1,.974-.38,1.382,1.382,0,0,1,.753.231l.251.194,0,0c1.29,1,3.238,2.5,5.108,2.5a3.049,3.049,0,0,0,2.272-1.008,3.36,3.36,0,0,0,.638-2.705c-.431-2.1-2.719-3.637-3.409-4.056a.637.637,0,0,1-.172-.732.947.947,0,0,1,.923-.656,1.291,1.291,0,0,1,.218.019,6.884,6.884,0,0,1,2.421.875,5.492,5.492,0,0,1,1.628,1.5,5.964,5.964,0,0,1,1.04,3.985A6.363,6.363,0,0,1,34.192,32.3,5.736,5.736,0,0,1,29.965,34.028ZM9.431,19.773a2.069,2.069,0,0,1-1.343-.526,2.092,2.092,0,0,1-.7-1.353,15.235,15.235,0,0,1,.081-3.968c.048-.386.1-.784.132-1.214a2.375,2.375,0,0,1,.9-1.7,2.773,2.773,0,0,1,1.706-.6,2.1,2.1,0,0,1,1.29.406,1.912,1.912,0,0,1,.712,1.268,10.644,10.644,0,0,1-1.111,6.56A1.835,1.835,0,0,1,9.431,19.773Zm30.142-.9a1.81,1.81,0,0,1-1.419-.608,6.112,6.112,0,0,1-1.308-3.242A3.755,3.755,0,0,1,37.869,11.8a2.125,2.125,0,0,1,.164-.25,2.319,2.319,0,0,1,1.785-1.027,1.933,1.933,0,0,1,.542.08A2.61,2.61,0,0,1,42.1,12.125a5.379,5.379,0,0,1,.216,2.943,9.849,9.849,0,0,1-.892,2.776,1.8,1.8,0,0,1-.771.762A2.337,2.337,0,0,1,39.572,18.873ZM.334,9.42a.328.328,0,0,1-.274-.168.367.367,0,0,1-.022-.36,12.5,12.5,0,0,1,2.8-3.549A17.335,17.335,0,0,1,6.594,2.779,16.137,16.137,0,0,1,11.05,1.225l.476-.083A11.6,11.6,0,0,1,13.471.931a3,3,0,0,1,2.4.895,2.039,2.039,0,0,1,.482,1.448,1.327,1.327,0,0,1-.482.947,3.7,3.7,0,0,1-2.534.743c-.2,0-.406-.005-.606-.01h-.007c-.192,0-.41-.01-.626-.01-.2,0-.376,0-.542.014A17.134,17.134,0,0,0,7.783,5.6,25.63,25.63,0,0,0,.509,9.363.312.312,0,0,1,.334,9.42ZM46.227,7.5h0l-.2-.05a11.352,11.352,0,0,1-2.2-.859l-.715-.352a19.848,19.848,0,0,0-2.552-1.087,30.116,30.116,0,0,0-5.813-1.284,2.375,2.375,0,0,1-1.166-.443,1.748,1.748,0,0,1-.652-.993,1.777,1.777,0,0,1,.2-1.489A1.9,1.9,0,0,1,34.049.15,2.07,2.07,0,0,1,34.834,0a2.311,2.311,0,0,1,.453.045l.364.075a26.016,26.016,0,0,1,6.279,2.039,12.7,12.7,0,0,1,2.761,1.816A8.06,8.06,0,0,1,46.643,6.5c.068.527,0,.657-.066.746l-.02.026-.018.024a.5.5,0,0,1-.312.207Z" transform="matrix(0.985, 0.174, -0.174, 0.985, 78.077, 79)"/>
  </g>
</svg>
